<mxfile host="app.diagrams.net" modified="2020-03-30T18:14:47.184Z" agent="Mozilla/5.0 (Macintosh; Intel Mac OS X 10_15_3) AppleWebKit/537.36 (KHTML, like Gecko) Chrome/80.0.3987.149 Safari/537.36" etag="HT2CIzTC9kiPCg5BYyHC" version="12.9.3" type="github">
  <diagram id="V3gWvR7eqarUsWHzFTpb" name="Page-1">
    <mxGraphModel dx="2127" dy="662" grid="1" gridSize="10" guides="1" tooltips="1" connect="1" arrows="1" fold="1" page="1" pageScale="1" pageWidth="827" pageHeight="1169" math="0" shadow="1">
      <root>
        <mxCell id="0" />
        <mxCell id="1" parent="0" />
        <mxCell id="MFkD_TH9y4HgoGXGHOmQ-1" value="" style="rounded=1;whiteSpace=wrap;html=1;fillColor=#f5f5f5;strokeColor=#B3B3B3;fontColor=#333333;" parent="1" vertex="1">
          <mxGeometry x="-440" y="30" width="361" height="70" as="geometry" />
        </mxCell>
        <mxCell id="MFkD_TH9y4HgoGXGHOmQ-2" value="&lt;font style=&quot;font-size: 10px&quot;&gt;DevOps Toolchain&lt;/font&gt;" style="text;html=1;strokeColor=none;fillColor=none;align=center;verticalAlign=middle;whiteSpace=wrap;rounded=0;fontStyle=1;fontColor=#3399FF;labelBackgroundColor=none;fontSize=13;" parent="1" vertex="1">
          <mxGeometry x="-428.5" y="30" width="90" height="20" as="geometry" />
        </mxCell>
        <mxCell id="MFkD_TH9y4HgoGXGHOmQ-3" value="" style="rounded=1;whiteSpace=wrap;html=1;fillColor=#f5f5f5;strokeColor=#B3B3B3;fontColor=#333333;" parent="1" vertex="1">
          <mxGeometry x="-715" y="100" width="80" height="340" as="geometry" />
        </mxCell>
        <mxCell id="MFkD_TH9y4HgoGXGHOmQ-4" value="Channels" style="text;html=1;strokeColor=none;fillColor=none;align=center;verticalAlign=middle;whiteSpace=wrap;rounded=0;fontStyle=1;fontColor=#3399FF;labelBackgroundColor=none;fontSize=10;" parent="1" vertex="1">
          <mxGeometry x="-745" y="100" width="140" height="20" as="geometry" />
        </mxCell>
        <mxCell id="MFkD_TH9y4HgoGXGHOmQ-5" value="" style="rounded=1;whiteSpace=wrap;html=1;fillColor=#f5f5f5;strokeColor=#B3B3B3;fontColor=#333333;" parent="1" vertex="1">
          <mxGeometry x="-626" y="100" width="80" height="340" as="geometry" />
        </mxCell>
        <mxCell id="MFkD_TH9y4HgoGXGHOmQ-6" value="DMZ" style="text;html=1;strokeColor=none;fillColor=none;align=center;verticalAlign=middle;whiteSpace=wrap;rounded=0;fontStyle=1;fontColor=#3399FF;labelBackgroundColor=none;fontSize=10;" parent="1" vertex="1">
          <mxGeometry x="-623.65" y="100" width="50" height="20" as="geometry" />
        </mxCell>
        <mxCell id="MFkD_TH9y4HgoGXGHOmQ-8" value="" style="rounded=1;whiteSpace=wrap;html=1;fillColor=#f5f5f5;strokeColor=#B3B3B3;fontColor=#333333;arcSize=7;" parent="1" vertex="1">
          <mxGeometry x="-439" y="100" width="360" height="124" as="geometry" />
        </mxCell>
        <mxCell id="MFkD_TH9y4HgoGXGHOmQ-12" value="&lt;font style=&quot;font-size: 10px&quot;&gt;Applications&lt;/font&gt;" style="text;html=1;strokeColor=none;fillColor=none;align=center;verticalAlign=middle;whiteSpace=wrap;rounded=0;fontStyle=1;fontColor=#3399FF;labelBackgroundColor=none;fontSize=13;" parent="1" vertex="1">
          <mxGeometry x="-434" y="100" width="70" height="20" as="geometry" />
        </mxCell>
        <mxCell id="MFkD_TH9y4HgoGXGHOmQ-14" value="" style="rounded=1;whiteSpace=wrap;html=1;fillColor=#dae8fc;strokeColor=#CCCCCC;" parent="1" vertex="1">
          <mxGeometry x="-440" y="450" width="361" height="60" as="geometry" />
        </mxCell>
        <mxCell id="MFkD_TH9y4HgoGXGHOmQ-16" value="" style="endArrow=none;html=1;fontSize=12;fontColor=#3399FF;strokeWidth=3;fillColor=#f5f5f5;strokeColor=#CCCCCC;" parent="1" edge="1">
          <mxGeometry width="50" height="50" relative="1" as="geometry">
            <mxPoint x="-450" y="440" as="sourcePoint" />
            <mxPoint x="-450" y="100" as="targetPoint" />
          </mxGeometry>
        </mxCell>
        <mxCell id="MFkD_TH9y4HgoGXGHOmQ-17" value="" style="rounded=1;whiteSpace=wrap;html=1;fillColor=#f5f5f5;strokeColor=#B3B3B3;fontColor=#333333;arcSize=6;" parent="1" vertex="1">
          <mxGeometry x="-439" y="230" width="360" height="145" as="geometry" />
        </mxCell>
        <mxCell id="MFkD_TH9y4HgoGXGHOmQ-18" value="" style="rounded=1;whiteSpace=wrap;html=1;fillColor=#f5f5f5;strokeColor=#B3B3B3;fontColor=#333333;arcSize=10;" parent="1" vertex="1">
          <mxGeometry x="-439" y="376" width="360" height="70" as="geometry" />
        </mxCell>
        <mxCell id="MFkD_TH9y4HgoGXGHOmQ-19" style="edgeStyle=orthogonalEdgeStyle;rounded=0;orthogonalLoop=1;jettySize=auto;html=1;exitX=0.5;exitY=1;exitDx=0;exitDy=0;strokeColor=#CCCCCC;strokeWidth=3;fontSize=12;fontColor=#3399FF;" parent="1" source="MFkD_TH9y4HgoGXGHOmQ-12" target="MFkD_TH9y4HgoGXGHOmQ-12" edge="1">
          <mxGeometry relative="1" as="geometry" />
        </mxCell>
        <mxCell id="MFkD_TH9y4HgoGXGHOmQ-20" value="&lt;font style=&quot;font-size: 10px&quot;&gt;Data and Analytics&lt;/font&gt;" style="text;html=1;strokeColor=none;fillColor=none;align=center;verticalAlign=middle;whiteSpace=wrap;rounded=0;fontStyle=1;fontColor=#3399FF;labelBackgroundColor=none;fontSize=13;" parent="1" vertex="1">
          <mxGeometry x="-434" y="228" width="100" height="20" as="geometry" />
        </mxCell>
        <mxCell id="MFkD_TH9y4HgoGXGHOmQ-21" value="&lt;font style=&quot;font-size: 10px&quot;&gt;Management and Monitoring&lt;/font&gt;" style="text;html=1;strokeColor=none;fillColor=none;align=center;verticalAlign=middle;whiteSpace=wrap;rounded=0;fontStyle=1;fontColor=#3399FF;labelBackgroundColor=none;fontSize=13;" parent="1" vertex="1">
          <mxGeometry x="-439" y="380" width="153.78" height="20" as="geometry" />
        </mxCell>
        <mxCell id="MFkD_TH9y4HgoGXGHOmQ-22" value="Container Services" style="text;html=1;strokeColor=none;fillColor=none;align=center;verticalAlign=middle;whiteSpace=wrap;rounded=0;fontStyle=1;fontColor=#3399FF;labelBackgroundColor=none;fontSize=10;" parent="1" vertex="1">
          <mxGeometry x="-239" y="450" width="150" height="20" as="geometry" />
        </mxCell>
        <mxCell id="MFkD_TH9y4HgoGXGHOmQ-23" value="&lt;p style=&quot;font-size: 8px&quot;&gt;&lt;br&gt;&lt;/p&gt;" style="aspect=fixed;perimeter=ellipsePerimeter;html=1;align=center;shadow=0;dashed=0;spacingTop=3;image;image=img/lib/active_directory/active_directory.svg;fontSize=10;labelBackgroundColor=none;" parent="1" vertex="1">
          <mxGeometry x="-604.65" y="290" width="35.29" height="30" as="geometry" />
        </mxCell>
        <mxCell id="MFkD_TH9y4HgoGXGHOmQ-24" value="" style="aspect=fixed;html=1;points=[];align=center;image;fontSize=12;image=img/lib/mscae/Docker.svg;labelBackgroundColor=none;strokeColor=#CCCCCC;" parent="1" vertex="1">
          <mxGeometry x="-381.01" y="470" width="37.8" height="31" as="geometry" />
        </mxCell>
        <mxCell id="MFkD_TH9y4HgoGXGHOmQ-25" value="Openshift" style="aspect=fixed;html=1;points=[];align=center;image;fontSize=10;image=img/lib/mscae/OpenShift.svg;labelBackgroundColor=none;strokeColor=#CCCCCC;" parent="1" vertex="1">
          <mxGeometry x="-425" y="470" width="21.74" height="20" as="geometry" />
        </mxCell>
        <mxCell id="MFkD_TH9y4HgoGXGHOmQ-26" value="" style="shape=image;verticalLabelPosition=bottom;labelBackgroundColor=none;verticalAlign=top;aspect=fixed;imageAspect=0;image=data:image/png,iVBORw0KGgoAAAANSUhEUgAAAkEAAABXCAMAAAA0ymEwAAABRFBMVEX///8AAADCwsKWlpa3t7czMzORkZH4+PjIyMj09PSrq6vPz88PDw9/f39gYGCysrJTU1NtbW3r6+spKCjY2Njh4eHn5+d1dXUaGhq7u7tNTU2ioqI5OTlsbGxnZ2fKysqIiIhFRUXNSQqlpaUiIiLdaRV6enqLi4s+Pj7XXRFZWVkdHR3RUQ3VWhDgbxcNDQ3kdxrtiSDuiyHYdk3KPAD78OrIMwDYVwDx0cXeaADibgDofx3rgAD53L/1kw35nyfpuKnejG3jp5b45t/jnoHSWynQXjbcfU/acj3txLbZZyH1287QUxfmnnfYeFPvwaffdC7Xe1/el4Psrobig0fkfyz0yqzpk07up3Hzv5HgjmzUYy3toGHxsnztkDTnq5Hyo0v1smz827X1ojn969X0xaD7w335nhH2vYb80Z7yqWH958ndOU2BAAAWE0lEQVR4nO2d6V/bRhrHfWDLJ8aSTwzGxgZTICEhNneAlCZtNmmb3bZp0nabZEO3Sfv/v18dliU9x8zIVij9rH/vQMeMR18988wzz4xiMTXpOcUT55qLVDW+qf/VdZjr76z0XiH1NzBDWq9cd1UuVv7q6sw1kb682G0UNjXZeZVB2dXqZikrOjWbT9bL3tmdfATV1JbiAc0RujXSapqeLBRWJaeVgg9wUUBcphsHSsxezQy4ZXH2W85FqGRa+tV8OmOalnqY6/LGXkd8BoQiw56ZgKfG412phZMK3nVz5jvORUnTBhkt2y5bNiPUhYmdwprwBAhFkjsx08AElUPVha7gnKAbUjofy9bT1VinHe66emFReBxCkWbOq2J+4nu1cHWhNCfopmQTlFio9kI2cTW+I/RWFAmqGBigRhSe9Jygm5JFUDlb7NVC+UGmug3hQ1EjqLpCmCBx96ioOUE3pcFaLNuOdTa1kL1YbNDoiw4rEZTtEgCVQlaE1pygm1K+FtMSsWo+FnYE3SzERe6KCkH6MgFQK2Q9GM0JuvVKNIRROhWCFgmAOlFVb07QbddavyDqbxQIogCK7EHPCbr1SjQKC4LDcoKKBEDl2UOJbvXmBN12JfZmI4gCaDkygOYE3X51ZrNBLQKgpQizRuYE3Xot92chKEkAtFONsHpzgm67tLgxw1isSQAkDA6E1pyg267mnhEXJf0ICVog+GlEEoqeaE7QbVenYUwdk67sEQQ1o63fnKBbLr3b3xHOpAkIqhD8xEU+1TSaE3TLtVYwhAFFAUHUdDyfPjSt5gTdctV3DEOYhMESVO0TAKnmoGqVhV4raauVS4g8eSFB+YXxTXKZcO67r/xeLjH92LHS7I0rkAgZwdDy7qXJXvMGkr+zmQW3vFZvhl8MVTWMvjj8xxGkbxEAKeUkVhJ1BJ+xyf0olqBqKzif22grPsRKs4zSKVPFDNuolTFqltY0//+DFeivVoTrEDxlMx2YDbNSFNe+lvMqkQgUU6vk8yXqwERapbS9A39xt1OJZMzcahg74n6BIUhfggdMbSuEohdWiQst7bTJpUcMQZVVIql2qyN9hFqOmsWzy6/TLlww5t6Z/I42cY9uUqEFqptdsgIrZd4UBT2GLe9eg8WU70CbKD7box6VXWA9jO3Tji4fPXjw6POjQBm6YRiSRDBY7Jigbar9pLXI5pgf42ivhVuAJKjCYRAfCB9hlgqA+pqU8Ajz4ByH0USXuUVDtgIvQ5HnqssNZAEEjrepLaB+AF1fpSadPG2pjpyvvni8Oxyurw+HwydvfG1cbBhGSmz7YZk2QRplSLrSTqRJuU4BpRDOBEFakooijNXnF5NoPWTLoVaQTwhjptZrmxVRsCjyMWp1SQUWabOQCp41sP6HF1ehrL5skbDUQS0ppSJfHq7v7u6uOzp48Mz9f940QeKxPEMQBXZDZhKzstbz7u8TJkjbFN+BS22rUXZTejUMmpq/spoir3SV4hsiIX2FmHAIKNFqJNKcBgnKULnHSPLh8+jL4a6tMULDg8vxkW7fMBqSAA4sz6o8iYLMAq2p/BpTYAkkJKgYkzbLgCyfnIAhBNxCTBAViA+K8wvSShUoE84cIihLOzcBgsRdtqctyaMbfXXo8jN0GXpqHch2CqYNakguh8Wl6ZrtyZJrS8RFtIIDOkjQIueJ+0S9VT3l8oMRCUQQsbASqkD3DAo1t7WEfTlIkNalL/UTJPaA/BI7MiZAd+5YBP309OnlV2OGhpemLV6yADJSootjFEHkmyQLRSu0u6+IKS+cCHvE6gCDjgwSlCwo3KFAjQnLyhXAY1pAUIfryH0/XOSrQaUEA/vRP0yA7tw5fO44P29cZ+go1rQBkozliTWrpBGXrctQ7cIc+e3ZVAShLlW1C3PkNyHyPosSsYpTrQtzhOJqgCB2JOE9h06o+hZYK6R9aQN05/Bo/I+nzx0z9Pwqtt2wOjHaafAEy+pS4xluIasrcjUQrxXf75mOIPAW69QEDC9/jHU6guJoUB/uPvByse/uqTRdccj79PTl4WefmQDtvpn8Z/TIRmi4e5Vd3DOM/pLk4asUL6OQeiH6xVwzUUkkch2idTrepdMRFO8Fyidc/1Qnl0jkE81ehxgf+fqxKQnqg36hRpxTbyXytXyzR3VvwJMKSxC1Bl0sZkT2tQmQqcOvRr5/Hn3jWqFBqmHIliYrFC6dy9DRJf0Fz1PIEoNOzwiICGo0GpxXYvg9EZxEsNL0ld/Ez8e7VkTQnlkB7ljQLGvIKzHSXg30NLrNctCTCksQ5QQZ7VZF1/Vas0Mt76O9/28dgD47/Db4/6dfHQzXh4+PYhXz5dwSzwTIa70snUpALsBq8A3FkSLPCLAELecSlUoln2nSLqPfCCG/sxisso5C3F4vwhLUNy2IWYG1BBPmCpSAYvFLwbhjFb0JwbiUKkELfKPlfG2eIWIB1AYcR8cbDkEb6NCzR8+Hw4NvTO8oIwkESist3yMITcLiyD98hB6VDEGBCagWFSLyTqjB9kcDR7hRms+PYgiq+wlY6BJn+BHWICBoaTo2UoFmVSRobA00bGRWwVMihhbYCI1ebGxsUCbI1tXlk/WD4YMvno7EBMgqbcgnxOELRszFoHdwwjVJUBf8Wp2wAx4mcGqLmPdA/dzkhSUJ6oOfoBOxF/9ub9AEERNAOhyhBBwTliAj1V2eqDjGGuNRRw85gawe3nDh1fGGg1DAC/Lp2effDA8ODtafPPr8iD4jJiWorzC9Cx4P2eFCBCZGnCKIyEfBj9CzyoAgsnxohCaIUASl8NQXDtDseSdp0EZSjQZ/aCDMRxPU6GXI1x+ZIGrOG2MGa/XSBsgUaYJcHb355/OD4cHwySVzAll1cVtAZQMTUnTsERqBbfcAQRBp9tCApjCpWnBjCDp4DouZzBYSBPWpuVMccPbsFIyG0Xl48CXy2zmKoJ0e03uggQtZYVxjEJOx+zBbLySOytWjg6HpFP2LPo2ouqc9teQAfTNluGIyaKpgNDIJlRMEkQzi8Z5Xt2p9UrzBZF9AgpfdAwRBZPl4uO7FagHdBfq1Y6sQIwlqsDkAaBEos+cT7MeM4PHvju9u3LUAOhaZIEdPrbSPg3+Sx3DVfYpohxdTWWB5d1zQMEFMMgFqN/HufkDQ215xD2CCmPLRxNvkgeigE+Oid8AoFHyDJ0yQwSeRIKeQGSwjsx245ej47l0boePv2ZI8XR6YDE2m7ANCVfdrWzGtUy4NpF5Mmg8TxASwUN52IUz5kOBJT4kJYhKQqtAVLrgvAdzQmJsCggz6bB0miM8LRAF4LnkdjjCCY+TvLIIsiI6fMdcH9NhKP3tMdTCo6gFtE1dMJUjQhBNE0DJ3C9Svh8EbZksYLsGIIHYqGgWV3M4KhsO40SvsxnyhfkSQYCoB9accsTq8q7+3G/3gAHT3+Du+KJ8urakO0gjB6gCF3bWREyLIfdMRQWwWADozzNpHSNCeSzAiqMPdAkUN3Z8AwmE7rF8KrvdF2hBBfCYmrjE78Q4HkP4AxMuTew5AP6jtw/LsuTVXRnlCsDpQ0SwQ03RVghg3NEb40j3uTKp80IsVWILY7gPFlNx3H/ybD8HC7ocnKCWwrwPYYuyZ0HX0TwX9eO+ejdC9K74kv0aPLYIeE2fDZkGa8eMu1UQpV1/G00scQV227bIw9K0Et11+F6VL8ASxBNfgjxi3DCSbN9swKOV5tpAg0SgB9qZ8h4dCQl7/Orpn6+7JQ0FJAT2xJ+yJwCIsBGu6dc56tZpIrnYNbmqSI0iwVS0cW4hyTjSr/HR7iyufJchg+wTkVowJgo40TxC0w143DG8tWtkJ78K3GMra8ggyOzFLJ2pOkKUHNkGf4wN0A5ONraxqrlNekeT6cQQJEgGgx8qeWul12pLyeYLYUTRHEEyPXFxg1ITP3guWwFuLwihdcC6fe4NyQLy345VD0I+CcoAcG/QTPiBs57HCrKHNl7gFcEFxBAlyKmG3Tq2/i+VzsIVJsQQtsb2oBruPMUGqCe9Yncm9IUGinFDYmQtogwVOjJ52enpqEaQ0kLdl+0Hr6w/khVDaUl0/W0suC5Z6BTQFQTCegr9kVU13FYuPkKBw+aZ+ef3dLAQJ3EFY4ISg6xOToNOTV4JigI6c9OldeSHkiie1nTczSgvGxuIIEngA0DFcAYGXpupiiXikBKmvmYCajqAuOFcQ1IAFTk59fWYaodMTZkqe0k/r9nKgn+WFDMiMcdGH68Zao7Zq4MURJLDJ8NQgQQml5Xeu/r4EoUQAgZsKC5wQ9Moi6N4v/JVQo3VnRdk38kKS5Abk8Y6kBCqDR6iICcJpiGLdCoK8MXsIgtCkxhQEjX60TNCZ8kjeMUEWQo/khaTRFJKjjrCApsoqq4CiJSjMcjFb/98EXf9qERRiIHbkrGrdtRYiygpJx2JZsj8QRYBhmBSqsbII24gjSLAuhCVIkzmzOyuLoN3/vgRF0YtdW53Y2b/5C6F+HhO0rhBRtMJ0NcqiCHKFhOPZrU4pU9HRiGWKsRjnSWvC1aJbA7t80MveCoKi8aQFEV9YoPsIH57dv396di0oJKivx+uid6l0WFiIHehFAXxbHOyMBdgqp0veJbCdIxzNMy5YdzNd8qYoPh1BU8eDfFsa3PBo/jeToPu/Ko/EntrLWi0T9IY4CgtxpgrIbVwLdFiIWnFslJu14FhblSBBMgATUaR8oFQ9UwuicHMErRTVlBRkmH1igl6bBJ0pB4Ou/nHH0eHPKvlB48km0jUl94DQ8IrjdhOXpNqLCebFYJzBgQ2nv8bLRK40zESNjiCY9THNbrSfJiaNZjVck/zONEFnvynWTXvhLIw2CSJD2LAQd7qSXAWTIhhEXvQ2NbuN1ktxBBFbo7iiZ1bRKoo2NQkD84MiJAjaYHaJukBhCIKza7zVRj2JawHe7e/fVx7Lf2Gva7UA+oI8DguZTHiT3Tv+rhhMEmZeQbSjEkcQsdLGvQWMMtjmuwZNID1jXwPVjJAg+JzkSzSxwhAUQXaHSdD+maIb9Ga8MPrO4ZdqazW8B0A6yGjSARLA9Mo1mGXM5iiyg1PUXdlPEPYhTNChAoaXERIEm7D/iQmCnTn/0QvoOPbd32YTpFazb92F0Z8dMrlo8LH4XmESIfiKg66Fm0FDBpUliA0IoTfKziYENp1L7IZJPFESBGMfU3x9LQxByL9gy4MPcLLW+/X5/v6vShU7Oh4vjKZXRluC1fETQm5tWRJez2U0otk2lqA4cwcm0x78jwuOwBF/lATBe0+R1RmGIOQfc4E6lNTZcY98NAl6q1KvZ86SRBFA4q9DkdtmlETXczmibCo5JoiBAK32sa13FvyP86JgIVESBI2jYDjJKQxBOmyIDnMisvsTtB+aBL1TqNb13fGqVgFAYoLID80HKAEvBBMyQp2IiCBm53y04tB+UGBNFLdPBApORElQHnRjgsWCnMIQhIa13BZ3aJQ6eXDXagRdfX/sIHS88ZI/C5YS9HN0KjjtX48LCNpjbBDuD3mCaGcYh33soI8aQRrKPImSIJRBz0RotNZmfaLNkr+gMAThd4kevSBb5S3quL7YP5cTdPVivC76+IVo3AZrAzzlKrVD4YpnaaClpPtk4mMJAoLI77iiDtXpsBR2folRM7+REoQCH+Q9al1Qku9YKIKQI0T33Wi+rjM5NHp7Lifo6ocTe03rxvEvwoE/LAaOtdDSWUveulINHCGjQRXCkgkIoiIqePrSGXXB1iSjQcROs5EShFaRkq0AL/d3PqEIUlvhihvW1z/8ISfo5b0TZ0mibGMGWAx6BCRCXs4iPEJMKJCTbCKC4iugM9QJl75Jl0+Ek6hfEClB2OMghmPYiPoOhiMIzxfgODjegcrvX344P/9DWIS9HMgG6HtZNj4sB7/E5F7Nk1A69AF2UD+yQGafCQmKNwY+lzybo7bXGbcH9HBSCKEclfwfLUHYyMHenMjh9K8qDEcQsfnyEhjClPCP9r/b/zm/eC8qYTReDXT3+Gtp6BqWQ3QD5AcHXG8RT8EGPwFVZZJ3xASZPnm9l6nV9GomVyQ3+HLriSdfgo4486GpaAkiMoOD3nSeSNrzv2rhCKL8ykLSv0k3YbNX/DcYnV+cC+7/8my8IPF7hckzWBDlSJBTZOP2o1ztQd55I7KVBLt4TEaQRH23veB0halGsuIc1StNMhwRj5wgIqHKSLhmQae2Vg1OiIYkCFl+W910Jp/Pry2USaMfsM3axcU5m2A2+uXUWU528kpl7gwWRLqiZBre2CqSn4BYaa9urq4uC773NSNB3gCWDJx3zfLb7S7/9a2ICcIjbFOp1U6r1Uq36UUsgbhDWILCfYXCEpjBf3dx/pG+9ej1mb0U6PTkB7XZe1gSPbVNBqedMSSRn6Oi2QjyTb+RfrpUURNEr3ARKDjiCEtQ6MRIuKHFb+cXbykDM3p53+Hn9EzJAMVUCSIR2nFGTOrfZfJrNoL8AZCpskwjJ4j5IBgnMHUTmiDa9LNCmzL+aXZj/8F3ffj27P7pfdsCqSagqRKkd4l6jbdNVvpOEbyeIUj61UdbQTeVqhrSp8swG0vyZcSgICHhCeK+QEZqDwda319cXEAjY/FjyTRAP6qn4cPC2C1VqOXQTnOrvH5pGBNgCCqQn7kX1xEluRHKgTFj9AQpVcPRDorchyeI2CWfFfV5wf/+fnERDCpeW1lDNkH3z/4dYj00LI0lqEI1kLMBi/x92ERPiuvFNLlfU4Qha/RZBqQBHAB/AoLIuCclYiOLKQiKZVW3fIDxWVvXJkHnH7y/Rx/O9/cdhM5+DbGYNQRBtMvacX6MxI8s4rgRSxD49joWUUNdYgUHKITC7qM4A0HylZe2iE+mT0WQqgfapmebP5gIXbz/+PB6NBpdX787dwDa3z/bf61U+ESwPMHaERKh8THRh+bttYqKvdie2byaaA2+Qc+dUqNpV40EruCEIFivmQiKVWTfm25sks9zOoLEnzV3tMUuSPz4/uL338/PL96/fft+ws/+/h/qHpAj6LqKNiyjlgC5xyrsY2/bRhQO+t3BAZi0cuYIS6xXWue2MuKfXZ2axPcikiD8L0gPg7+QejbagtChrjOpQ11wnsrHKGzlxda30RKl3P758b8mRec+vf0Qlh/0DoqXquTRbEvHd5CMO9ZdmxE86nVFQcvvNl2JCibvFUVbYa2RA9yie8dgkqw3mgM9j+ANAnkA3MbX3AfJ4t0c+zgrwdir7KukgUtbbK/fVtgveWR1Yn8+/Gjq4ZXkO1CMaklPadk3wbOZpF/p4Na5Wq8dcLdTi/7Jmnyavi7v3c/3xmjV4ra/aQrddpPtYNzatdoBC7DS9pef8ZXv58RXr2RSmF5Ya/l++gLf2tlMfSn4WPvL5ZwuejzZnK8VlC2QI63aasPP46a2NxORfZDgRqXn11rp+uJiMl1ay0+xaCGgmnWzZLuTTCbWKmqvh57PJNOri+1Iyp9F1XwmkU4OttPJdG8tX53q5Q4hzfoaZDI5WKwn0y2ztYT7Fv4Pu+f3/fzRr7UAAAAASUVORK5CYII=;" parent="1" vertex="1">
          <mxGeometry x="-429.43" y="60.5" width="86.22" height="13" as="geometry" />
        </mxCell>
        <mxCell id="MFkD_TH9y4HgoGXGHOmQ-27" value="" style="shape=image;verticalLabelPosition=bottom;labelBackgroundColor=#ffffff;verticalAlign=top;aspect=fixed;imageAspect=0;image=https://pngimg.com/uploads/github/github_PNG20.png;" parent="1" vertex="1">
          <mxGeometry x="-321.82000000000005" y="43.70999999999998" width="36.6" height="33.08" as="geometry" />
        </mxCell>
        <mxCell id="MFkD_TH9y4HgoGXGHOmQ-28" value="Tekton" style="shape=image;verticalLabelPosition=bottom;labelBackgroundColor=none;verticalAlign=top;aspect=fixed;imageAspect=0;image=https://kabanero.io/img/logos/85x85/tekton.png;" parent="1" vertex="1">
          <mxGeometry x="-267.59000000000003" y="43.45999999999998" width="28.59" height="30" as="geometry" />
        </mxCell>
        <mxCell id="MFkD_TH9y4HgoGXGHOmQ-29" value="Prometheus" style="shape=image;verticalLabelPosition=bottom;labelBackgroundColor=none;verticalAlign=top;aspect=fixed;imageAspect=0;image=https://kabanero.io/img/logos/85x85/prometheus.png;fontSize=10;" parent="1" vertex="1">
          <mxGeometry x="-327" y="400" width="16" height="16" as="geometry" />
        </mxCell>
        <mxCell id="MFkD_TH9y4HgoGXGHOmQ-30" value="&lt;font style=&quot;font-size: 8px&quot;&gt;Mobile App&lt;/font&gt;" style="aspect=fixed;pointerEvents=1;shadow=0;dashed=0;html=1;strokeColor=none;labelPosition=center;verticalLabelPosition=bottom;verticalAlign=top;align=center;fillColor=#00188D;shape=mxgraph.azure.mobile;labelBackgroundColor=none;fontSize=10;fontColor=#000000;" parent="1" vertex="1">
          <mxGeometry x="-682" y="140" width="14" height="20" as="geometry" />
        </mxCell>
        <mxCell id="MFkD_TH9y4HgoGXGHOmQ-31" value="&lt;font style=&quot;font-size: 8px&quot;&gt;Web Browser&lt;/font&gt;" style="pointerEvents=1;shadow=0;dashed=0;html=1;strokeColor=none;fillColor=#434445;aspect=fixed;labelPosition=center;verticalLabelPosition=bottom;verticalAlign=top;align=center;outlineConnect=0;shape=mxgraph.vvd.web_browser;labelBackgroundColor=none;fontSize=10;fontColor=#000000;" parent="1" vertex="1">
          <mxGeometry x="-689.09" y="195" width="28.17" height="20" as="geometry" />
        </mxCell>
        <mxCell id="MFkD_TH9y4HgoGXGHOmQ-32" value="&lt;font style=&quot;font-size: 8px&quot;&gt;Admin Console&lt;/font&gt;" style="pointerEvents=1;shadow=0;dashed=0;html=1;strokeColor=none;labelPosition=center;verticalLabelPosition=bottom;verticalAlign=top;align=center;fillColor=#515151;shape=mxgraph.mscae.system_center.admin_console;labelBackgroundColor=none;fontSize=10;fontColor=#000000;" parent="1" vertex="1">
          <mxGeometry x="-687.5" y="250" width="25" height="20" as="geometry" />
        </mxCell>
        <mxCell id="MFkD_TH9y4HgoGXGHOmQ-33" value="&lt;font style=&quot;font-size: 8px&quot;&gt;IVR&lt;/font&gt;" style="pointerEvents=1;shadow=0;dashed=0;html=1;strokeColor=none;fillColor=#505050;labelPosition=center;verticalLabelPosition=bottom;verticalAlign=top;outlineConnect=0;align=center;shape=mxgraph.office.devices.headset;labelBackgroundColor=none;fontSize=10;fontColor=#000000;" parent="1" vertex="1">
          <mxGeometry x="-690.5" y="300" width="28" height="30" as="geometry" />
        </mxCell>
        <mxCell id="MFkD_TH9y4HgoGXGHOmQ-34" value="USSD" style="shape=image;verticalLabelPosition=bottom;labelBackgroundColor=none;verticalAlign=top;aspect=fixed;imageAspect=0;image=https://lh3.googleusercontent.com/proxy/Eiu7wR-u9sAhAwSuWoWKkaYf2y8Z7ZnNmV4S8aKfNDTfE6s-yDDkHUiBOCwDciVKFKuBCDiIk8nCCKWHODO_FfNH3dd3LgcfmGjzysF0CA5CJq9d_j4658MegCfW_nuNDi1JABMOAWbP9mX2QsZ1L57HOgdBnWx7FPanasV3cr1RqptipxE3qBFBn-q91SVRvmlhcO84o1k_Y6lroA;fontSize=8;" parent="1" vertex="1">
          <mxGeometry x="-694.13" y="366" width="38.26" height="23.91" as="geometry" />
        </mxCell>
        <mxCell id="MFkD_TH9y4HgoGXGHOmQ-35" value="Operators" style="shape=image;verticalLabelPosition=bottom;labelBackgroundColor=none;verticalAlign=top;aspect=fixed;imageAspect=0;image=https://kabanero.io/img/logos/85x85/operator.png;" parent="1" vertex="1">
          <mxGeometry x="-202.76" y="46.99999999999998" width="26.5" height="26.5" as="geometry" />
        </mxCell>
        <mxCell id="MFkD_TH9y4HgoGXGHOmQ-36" value="" style="shape=image;verticalLabelPosition=bottom;labelBackgroundColor=#ffffff;verticalAlign=top;aspect=fixed;imageAspect=0;image=https://cdn.iconscout.com/icon/free/png-256/jira-282222.png;" parent="1" vertex="1">
          <mxGeometry x="-153.39" y="46.99999999999994" width="36" height="36" as="geometry" />
        </mxCell>
        <mxCell id="MFkD_TH9y4HgoGXGHOmQ-37" value="&lt;font style=&quot;font-size: 8px&quot;&gt;JazzCash Users&lt;/font&gt;" style="outlineConnect=0;fontColor=#232F3E;gradientColor=none;strokeColor=#232F3E;fillColor=#ffffff;dashed=0;verticalLabelPosition=bottom;verticalAlign=top;align=center;html=1;fontSize=10;fontStyle=0;aspect=fixed;shape=mxgraph.aws4.resourceIcon;resIcon=mxgraph.aws4.users;labelBackgroundColor=none;" parent="1" vertex="1">
          <mxGeometry x="-770" y="184.48000000000002" width="40" height="40" as="geometry" />
        </mxCell>
        <mxCell id="MFkD_TH9y4HgoGXGHOmQ-38" value="&lt;font style=&quot;font-size: 8px&quot;&gt;JazzCash Employees&lt;/font&gt;" style="shape=image;html=1;verticalAlign=top;verticalLabelPosition=bottom;labelBackgroundColor=#ffffff;imageAspect=0;aspect=fixed;image=https://cdn3.iconfinder.com/data/icons/lined-office-1/64/Artboard_41-128.png;strokeColor=#CCCCCC;fontSize=10;fontColor=#000000;" parent="1" vertex="1">
          <mxGeometry x="-770" y="294.48" width="40" height="40" as="geometry" />
        </mxCell>
        <mxCell id="MFkD_TH9y4HgoGXGHOmQ-39" value="" style="rounded=1;whiteSpace=wrap;html=1;fillColor=#CCE5FF;strokeColor=#6c8ebf;dashed=1;" parent="1" vertex="1">
          <mxGeometry x="-429" y="121" width="340" height="99" as="geometry" />
        </mxCell>
        <mxCell id="MFkD_TH9y4HgoGXGHOmQ-40" value="" style="shape=image;verticalLabelPosition=bottom;labelBackgroundColor=#ffffff;verticalAlign=top;aspect=fixed;imageAspect=0;image=https://miro.medium.com/max/2560/1*6vYIONu86BEawfWf6s8WuQ.png;" parent="1" vertex="1">
          <mxGeometry x="-327.97" y="463.25" width="78.97" height="44.5" as="geometry" />
        </mxCell>
        <mxCell id="MFkD_TH9y4HgoGXGHOmQ-41" value="" style="shape=image;verticalLabelPosition=bottom;labelBackgroundColor=#ffffff;verticalAlign=top;aspect=fixed;imageAspect=0;image=https://www.pngkey.com/png/full/63-634023_kibana-logo-color-h-kibana-logo-png.png;" parent="1" vertex="1">
          <mxGeometry x="-182.3900000000001" y="404" width="65" height="20" as="geometry" />
        </mxCell>
        <mxCell id="MFkD_TH9y4HgoGXGHOmQ-42" value="" style="shape=image;verticalLabelPosition=bottom;labelBackgroundColor=#ffffff;verticalAlign=top;aspect=fixed;imageAspect=0;image=https://logodix.com/logo/1687812.png;" parent="1" vertex="1">
          <mxGeometry x="-277.26" y="394.5899999999999" width="74.5" height="38.82" as="geometry" />
        </mxCell>
        <mxCell id="MFkD_TH9y4HgoGXGHOmQ-43" value="&lt;i&gt;&lt;font style=&quot;font-size: 8px&quot;&gt;Microservices Application Platform&lt;/font&gt;&lt;/i&gt;" style="text;html=1;strokeColor=none;fillColor=none;align=left;verticalAlign=middle;whiteSpace=wrap;rounded=0;labelBackgroundColor=none;fontSize=10;fontColor=#3399FF;" parent="1" vertex="1">
          <mxGeometry x="-425" y="136" width="40" height="20" as="geometry" />
        </mxCell>
        <mxCell id="MFkD_TH9y4HgoGXGHOmQ-44" value="" style="shape=image;verticalLabelPosition=bottom;labelBackgroundColor=#ffffff;verticalAlign=top;aspect=fixed;imageAspect=0;image=data:image/png,iVBORw0KGgoAAAANSUhEUgAAAMgAAACECAYAAADVwmSJAAAgAElEQVR4Aey9B3dbx7kF6j/23nrr3sQmgVMAkqruce9OXGI7N7Zveuw4LnFToUiiAwcd7A0keq8Ee1Hv1b2Is9/65gASRQEUScmW7UutNQsgROKcMzN7vr6/O+74Ef4tHDrM/jmSZ29PnMO7E+fYR4ULrD3+NTOEvoNx/Dt0RL5je5Lfso9yX2Df5BfsP+lj7F+DJTZ28DP2I9ze1iW2ZuD2zsBYIY+79zjQahjAvUoQD1gieKQjjSf2FvDkngk8tr+E33Tl8YA5iUeUGB40DOD+T934dKyA23vnW1ffmoEfYQaCJ45gl9INvTeItsA42jwhtFnT2GYsYJuhhDZTCa32LFqdCWx3R7BdGcFuaz8+KS1uAeRHWJ+tS9zmGfAdPojt7kFsG0pDdA1BUIahMUbR3JFGU0cGzZ0ZaExxaCwhCNYRSJZBtFkG8NHEkS2A3Oa127r8jzADgbkjkDv7obVHIbrCEJxRaMw5NBkm0NQ1yV815gI0lhQEcwSScQw7DCHsLZ3eAsiPsD5bl7jNM9A7cxLygRFo7SmI7iQEVwoa2wSazLNoMs3zV411EhprAVpzClJXDDs6E9hXOL8FkNu8dluX/xFmoHv6PKTOcQjOHCRfFpIvB8E1DY2yCI3jIB9aZRYaxwS0lgJEQwbbOzPYW7i0BZAfYX22LnGbZ8C7cBKScZQDRHQXIHrKEN0VCM5JaJ3T0CrTEJwVaJUctNYMRGMK2wwZfFrcAshtXrqty/8YM+A6voQ23whaBybQZCzgrq4Cmi1RaGwhaOw0xqCxjqHZNAqNYQSiIYhtljg+mbq4JUF+jAXausbtnYG+C8exzTsAyZ2GZJmHbJqH3pGG3h2G3lMdrjBaHGFsc8SxwxbDLlsCn0xt2SC3d+W2rv6jzIB7/hBaOgKQDAnsNC5gV9cC22UtYJc9hZ0OPthOe4rttqRwv1Jgd5tSbNeBGD5IHNuSID/KCm1d5LbOQOHkZ/jrcB7/zp7HR8mv8Un8a3yUPo8Ps2euHZkz2F+6hA8TJ/H2yAKCxy5vAeS2rtzWxbdmYGsGtmZgawa2ZmBrBrZmYGsGtmZgawa2ZmBrBrZmYGsGtmZgawa2ZmBrBrZm4Cc/A9nzyxg+chmOynnsTx/Gu+Ep/Csyhbdj0/hnddB7+uzf4SlYJs/CPfMZ+pe+xdjR77fc0D/ACpcuXUb8xJfoO/QV3g4t4m/Rw/h7hMZB/D2yiL9H5/H36Czeis7jw9giOtJHYC2ehKd8BqVLy5j6bPnnty6hqaNwJufRXz6LwOR5OBfOwLlwCt1TZzBQPo2h8gn0lg/BNz2P/vk5ZJYOYfbI0Vv+oBMnv8Xw9OfYHz2OP/fP4XElg4eUNO63JXAPRfCtEey0R7DDEcEOpTocEex0RNguWwR3W6N4wJHE474inuuewAu9FfZW5DCU6YsIHfty0/fbNzeHjkwJgcoRdE8cgWfmINyzB+GdPgT/5BHmrxwDH5NH6Gf4Jw+hv/zDFZSFpo7Dk5hCT5nu5xi/J7ovdRxC98Qh+KYOwTAxDe/SErKnj2/q2UuXGRs+fxmGyeN4Nz6D3/tieMIygl0f+6B5R0GrIQy9KQ69OUqD6c1hqCOEFsMYtnUEcU9XCL+xJvlaPtwVxUveMt6Nn4Gp8jkKn/8MwPLRWAq6fS5I5nFIXQlInQnIxiBkwwjkjjHoDoxC3z4EfWcfWpUAWi0KnnYMIHXx1gQK6TTqKB3Fa4Nl3O9Io82ch9BegGAoQ+cpobWngJZAAS2+PFo8eeidOeiVVcOZY3p3DnpPDnpfDvpAHnpfCZJjmonWKYimDKTOIB5whvBOdgGxL9m6N0zy+EXc+ck+aCx+aPYPQtw3DLmrFzpjH6SuYYidQSZ3jWH12LbHh9LZz9d9nfUe9q/7g2gz2qCzOqE3D0FvHLt2mILQm4LQWcfRbBzErz+y4EBuekP3EbzwBf5aXGRt3hITHBU0mzLQmFMQbSnI9gT0Shx6RwSyPQLRFoZoDdFgoi0KPqwRiJYYRJM6JEsckjUJyZGC7MxC58lD50yj1RbDC6OTcCyewuSXmz/A1jt3m/q9d6IFCJYBSL4SBGUBWscCRGcBkisF0ZmDqOQg2lOQXFG0DoxD5xvAw74YIrdAVHYUT+C1wWnsskTRYk9BsGahsVZ4DUqzdRaiOwfJm4bkzUB0pyC60hAcaYiODER7BpIjC0nJQnRmmeTJQ/blIQfy0PXkIXdXILiXmNZ5EFplBlp7AU2d49jhiOOpQBH/Ti+iuHxjoOS+WMbdA1FI3jgExwREZRI6Xwa6QAqSpwjRNclE1yS9XjMIMEMLtzYdJ3ZiGU+5g9C5e6DzD0H2ZyB5yg1GBRpbHnp7Bj1LX6wLIOmTX+DT9Awe9Y1AMA0wrVJhoucgBPc8tMokNLYCNLY0NLYENLYItPYQBGUcojNKgwkKzVFCHbSejiwEvj55iK48RE8Rkq8M2V/mr83WLGQliwf9abzcE4N7emld97mpjb7ZP3o/Eodg7IPomoDGcpAPSnuXfGlInhxEVwaiIwHZE8a2kSD0gT486okgeWHz4rHnwiE8PRjAdm8Qem8GkpKE6EhBsGehteWgseagseUgODO8gEtwpsAnnxZgxRBdSdQG/Q4B6OrIQusoQWufgNZWgsaSgdaaRbMxgjvbh9HiGsZ9AQN8Xy7ccFHeyZ+F1EVgXIDsXYS+Nwd9bwqSl0oDpiG6pq4bkiGEPUPRG373RtZt79gM7jkwAJ0jqG5MN9XulOoOra2MO/cU8PvuE+u6B0NxHm2fWqHd74ZgGsL2vhJkvv55aOxpPrSOnFr2oGTUtaF1cV0ddKDVhuAqQB3V+3PSa0UdVD5B9UX2iaugM4eh6xzC//Tn1nW/G5m3m/rdD8JJCIYBiE7aSHM0GAFD9qd58ZTkyTDJnWSyL4q2oTjT+UbY464I0uc3BxDb3GE8PRTA7oEAWnojaOkvQvbn+cQKSpYJCoEhwQQlAfU9/UzSjH6OQ3DFmTqS9Hv0f0xw8gHBlWF8OHPQOgpMa+cDWluBNZky7M7OOO4yJpnoKbKW3jh2D/vRYvoQ7qNr21ODRy9j174kROsCZP9B6HsL0PemIXomIDinmKBMqsM5RT/zIRlieLs/g+njF24ZPdILjhjEvf2Q7FFo7LGrNTxUx7NqaMwZaN8fY/vHTt/w+p3Fo0z62AqdMgTJHWWiK81EV5ZJrhQTlRQTHaRJFCAqJb5PRPcEo2cniVAdfE5pXtWfy2pdkYcAMQGtMsEBITgrjA+loh5cjhIE5wTT9cxA7p7manGLKYzfORKoXNrc/ropMNT743fDE9AaxriKRdWEpM5IHpIeGUhekiRUaZiG7M9C11uB5EzicWcEqYsbf4A/BqbQZkpA5xpGS08Isj/C1QTBlYZWoUGnUQYiXduXhejJQnRnIbqykNx0X1l+X7QZBKWIJkMBzcYSTT6TfBOQA2WuWkn+GYjeGSr6Yvyk4pKE/oZ+twCtQu8TaAmE0eYP4sHBLPbNr72RXgmUIRhJjVqE5KPCsjQEZxGCUmGCUqHXa4bWkMWjxjQGF26NrUZrJ7UPqocFn68URDrhPSvA4SnwNZP9BQi2MJ62BZFYOtfwRM5dXMY7qc+xjep/TCMQPWHI/jhfc9FTYFplgmntkxDsM+rhaZ+D1j4HQZmB5CapWYHkLkNQ8tDaM0xjTdMrXxvBUa5K7zI05go05jIHiuguXQGz4CKJo6peoicPria7MtA7krjf0N/wvuvt4x/ss3+H56Ex0EYtQd+bhK4nCsmTVDektwA5QCMLmnQ5sADRVsQTSmzDRvpA5Swv1W3qzHKCCNmfgK4nCzlA9gVtNhpUF0/AVAEiebPqe3cGMtkjSpbbHXQPkq2MFvsk9I5pyJ5ZJvvnIXcvQO5eguQ/BNG7BME1y+hE5ycYgaMGEAKJI8f1Yx0Z/4E8HupLr3nSHsidhtCVh9Yxy8EscImWI9uGJBW3cQi0taE159HWlcf78VtTN9N3+CsmmOkgI0CQakXgoANNfVXBov7MP7MM48NYac1N9s/s52ixldFsikHriEH2J6uDDqYCo9Nd66DTfhpa+ywEB4FjDqJrBlrHJDTmIgRLAbK9CL1SYW2eadDQKxVI9hJJblVd5qQfqspFhy7fS366VwJH9SCsvtK9ky2pt47AOzW35v3/YKBY+cU1gJCRrutJQtetAoRsjysPsxIgVhUgmQvrPxmjp8/ieTIuuxJo6iKAxCB6aDHSHHxkiAvO5BUJQnotndAEFJnA4kpzY05nzaPFUkCbMY+d5izusyewwx6HxlxgTdYZaF3HIHjOQqOchNZxmMqFSaRDdNHpVQ8gVZD4i9jmCDHHZGMjkQxk8UAczRbVUNWSzUS6uJJjojOP1YPsKU1nGM/4irdkkd+JLTLRGobkq24qkqyk81dBUgOK5CHpmIPYOYzh4409Q54jX2KbNcrBobGpACHSDtUZkoTgTDDRnWKSh9aCNnEekncConcacmAaWkcZze0ZSPvy2Gmt4H73InvAs4Tdtkno2lPQtEehsUYhuuOcDIS+m6+nn+y3AnQ9pJ2Qan09SOh6kj2IJ1xelL//7JbM38o9v6H374bmoemKcBVrLYDQySX7FyBuAiCv9IyizdwLPW0oG+mztBBJyIFrAUISRFXpSHIkIDtGoDP3o8XQi20H+vB+6SI+yV3EvvRFtKdOY19mCW9FK3h2cJrd1z0PgUS5ZYEPsqdI/SFw1AcIbSR1kIdFb4+x1/zxhosxdWYZ0icDaOpKQWMmb9oVJwIjCXjdcCUhOGLYbb15Q71ymeHp7jwTaMNxtVN1RnB1lHv6qpKE3ruL0JpzkPcNodzAnZ34fBmPe0PQGEe45CBpqFXi0NoTEMj7ZKPXBBMcCcbVbW+Cr4fkiUNyxiHZw9yt/YeRI/h3+Bw6Jr6HcvAy21/8Fu/HzuB/e+bwnKsAae8ABMMQBFsQgjMMyUuHYpaDQ9dN6mCxIUBEJYTm/UaYTtxm/rUfGiBDC2ew2z4IyTHOvWEkDciFLPky0PfSZNFJqHpF6ESkk2V7sAxdIIjHfAF8GAwifPxUw4278jTwHLqA53vT0Owfht5DujG5YVWAXAOSqjQRnGRkT0BwlSFY0njAHEdg7kLDa72bOcslmOwke4MWl2w1cveqQyZb7cpIQvLFIHb2wTo23/A7V95/o/eOE5exw5mEYItXvXQJ1XvnJPssz09icnSQ2qVzVyAZCvitv7F68vpwHm3OMci+uDr/ZE8pKWitKU7tpDWl0GxIqvadbQIyqT3ucbQ5B/GoZxDGUmNJu/oZlNwXeMgUgs40CtEV5VqDajeVVAO/gQQR3QlobQO4z919U3O3+n42/POaAPFU9cUA0QFdlSBPKjGsV8X6MDoDnTnE3cXctiH7hmIbHCA5rmKRUa4aaap+resuYps/guR332xqcn7XF4VwoBeCnbwxjQBC4JiEQC5aTwVaa5G1dubwaaoxId7Qkct41DOLpg5yKZMXh54jwSRfgl5X6PAkHWmoLvR/BFJr2jc3WrQ3s8cpwMYEexqiQtIjAZEAo2S5o0DyqZ5AUq90SgW7LHP4KPF13bnLHb6MB91R6AMEjiQ/pMghQ7El4j0jcNCrYM0yrWWC3dWZRnNXELKxFy8MRRE8v76YyspnSh+9jIc6ghAso5C8KdW54aR1WUOCkJrlzfCAbP7cbSQIuQYg3bSoUUikizrJa0R6IgFjBUAsBawXIOWvGZ5zxaDpoNOgBNmn2jikWhFAVCM8B103nYKkHpQgGgt42nMahtzN5VK9FAhCMIfXkCAkOaauAsRehmZfCW8OrC3S/+g/iP/vgxFIvgr3tBEI6g7yBnliEEx9eMY5hOJnm3+ee/y0qcjNSiPD14bWR7DnQd4iisdwkHhL0Dsm8ZT3NKJn63sZ+4tfQuoKoqWfXNXkJKFAawaiLQPBlOaSlKvAriRkD4FjGDutQbwxsrbBvxIQ9d6nZi+jtWMMIjlilAk16EoAWWWkX/nZVYS+ewlNnw5jbOlkXbDXu84t/+zd8XloOqs2yFoAIe+DbwEiAcQRQ+b8jY1028HzeMCdhKYzg2YTGXlJ6AiAPooh0EmoGpqyfwLkphXsRWw3FWFPfHfTE9K7cIooim4gQQggFS7qBaXMmg6U8MrQ2tHv/eNnoe0g1WpKBYg/ya56f2peoCQ/DCR3jKdhPDFQZIFTN56veosbO/8FdI5x0tcZZTioIFFf6dChYBtJQBqydwot9jL+2NsY5HvGjkFrHsf2sWno+yjzoOomJnuMAEeRbzq9fRkm+1NMtA7j9WBp03Gvlc/0W38RkjUKwT4BQSE38Q0AEjgCsSOOgZn1BTtXXuuWvX8vtACtIQaZpwCQqhBRg3KU0sHTA2hjV1Ug7xwEUx5P2KNIn7vxifinzGG0ebKqyLbn1NPDSeoBBf4oCp5Wo63uBWidC/h1RxzbDLGbBgdNTvnYMqQD4w0BQjERHrtw0iJxo5c1GTN4xLu21ym0+D20e6JoNpd4poHkS7OrdsdVG4TUSFKFyCkh2w6xF/vPbuq5PiqcgmQfJYcG414rft90AlegtU1BcEyp0Xz3DET3Au78eAg984031GsDk9D5x9E6SGBW15XHlVwElKLquQyUIAdKTHBl2TZfDm+N5Dd176s3qXXpM+i7hiEpFYhuSiVaGyCydx7igSiGZzc3d6uvv6mfPxhfgNC1DoC4KZCjAuRJ2/oA8uJQFtvsEejNQbRax9FqDV8ZemsIekeIJ7/xhELLDLQdEbw6OnFLFoMmQ2q/CpArbt6agU6vdjXIJXkSkDwJ1myO46HAjfuePNe/BI2B0nByBBKeeUDZB9cOck9T+kwFTcYzrOXAwQ0/V4UxvDx8ECIHSJJfhzIeRLKdHFPQ2ijHbAaCqzoc09hti6F0rr5To3BmGU/RnCtD2DacQUt3HjpvCS3+ojoCJbR2l9HWM4HW7klG7nNp7yi6y40Bt5FN5547hR37e6BTaC9Rik59Fy9Xs+j/KCth/9hPAyCqHpuATBKEUjrIIKSb5F4GcmNWAWLMY70Aeat/DC97B/GKP4g/dIfxh+4oXgvE+HglEMPvu2N42ZfCy+4p/N41hVc9GRg3mHm61gJJncNXJMhqgFCeFql0lPwoeSI0WJMpsi6A7J/+Bs37xtRESXeBrU7zUH9WAcSzYS0nmbB3CsNLG1OzfEcv4x57FiJlzvrTjNtpnhJPiiQVhUe47SQ5pnkKiGTJ4Q9jjTN3s4tf4W9KDC91Z/FsdxbPKyn8zp7EiwqNOF5yJvCyK4nfu9N42VVgTxny7JmPRhEr3RqA9EydwL17vWi1x3jgl6vYDW2QqwAZmbk1wda19krD//vP2AKEzljV0FsDIOROdM9BqAIke/bGKlbDi/5I/yEZVIBcBw6SHg7SuasAcUcguSPsLkMYD/nXVrHo1gePXcaD5HK1UTynEUAKEClhT6Gs2sNM6KjAMLGxhX6veAE7yA3tIJdxlskUfSZnBqWXUPKfndzNU5C8kzzzuqUriD259btgf6RluHIZ7+w57OoIoMUVhuxVVewrRvlqoKyQID8pgEjeGA/kUST4GgnyMwNIz5HzvJcJgYM8QKvHVYBQnhcHCO4yRNcFEFrxt8cmoKO6h1VJgld+dlHOEU9mhFZZ4AfLi/6NZao+RLlwJOkoxYZiEYEsdN1k51AqEHmDCISUg1aC5Izicfsw0idvfQ3KlR1+k2+e8sXQShncPRHoeij4SDbQtakmV34mgJCXkVSs2ytBliB00s2S25JSuH/+AAmeugxaDK05xuoChJ/sNQlCAIlVJcj6AdI3ewJ60/hVCUKA4KCoeoXIZU0Zr24ea2GCJYMH7GEEz3y7bltEjR9N8qAk2Tq6njT0vXHoAmFIHmp4pEoTfV8WsmsYHyVubD/d5B7f9J/7Kt+j1RqDvjsDeg5dD+Xb/SwBQgUvaV6b8XOUIPvL32GHowCNmQJpOcYlB69NUBP81AxSShOpAsROqiMBJMY2IkFop7RSdJhULA4OAgMN8m4VIJGtUAWI6JlgVHSmO9CLj1Mz6wJI7+JxSDbKriVjdoI7AzhA+qLQBcYh+8KQ3Go/F/JI6dzdCJ28jfGCBtDJn/gab0WOYJedV3hCdM9BDsxA10Oxm5qHtI4U4RqLKkGGZjemmja4lc19/P7YQWg7SXKQX59QneDRWu4T5y7Q6kPUjHTT+o30zd3Rxv4qf/E79FfOsY7YKTzrqOBu1zSaTDleXyB5S6yW5cpfawU9HhUs3ItlJ1GeWAGQ8ro2MN3ljgP9EGwZJpI9QzUPFAAjsPA6CXJwVHutuKaY4ChCsoTxynB2Xd//qqMXkiMKOTBZBV1VgtQA4qWALqlYpHpFobN61/W9G5vdzf12+vxXCB45h/bIBJ42DWGbI4EW/xyvVtUqVC4wCzlAGsvPACDvhQ5Ba6DcqCm1hNNHWapZCA5aYPKLU5Sbot70OgfBXMDjFAc5/+MZ6aXzy5x0ofvQOZinD+G9VAGvhwrY5chCNOZx574YazpASYQ8u5YbshSd13VnmZqqTydtNXW+mkpPMQUVIJSvRblNCXZXVxwP+dcPkD3lc9hhSTC9nQzmCWgoAEZ5WrzOgaohC9A6p6BRjjCtcpjnfOnMgzfcyLGzX+Fp9zj0lPpPtfVcIuUYZSDoekjFqpYkOCvY1beE5vZB/DX94xrn2XPnMLp4Gu6JE/gkPos/j5bZM4EU7nOG0WoZRpsjpLr4uccqC8lVhGCnGhEqpqK9xIORje2QqgTRto9hcO42SpD3Qoeh7aKFmIEcoEpCCuJRLTH5qKmGeBVALAU87vjhABI99znsU7Ncn/7rYA6vBXJ4VongUWsQDzmDuM8xhDajH5qOPtxlKKLZTnUfSxA9s9X0DzpR09B1U1oLDSr2Ugu+1EVRwVIHIFABUrnhBq6dq9FTy/itvwTtgRBEpQwNlfY6yisAkoFWqaDZfhQa5SjkwCwE8wj8S2fWvEbnzEnc4wpxEooqOPhGUssDKMAX5/lsPHKuVHCPMQzf4vptm9r9r+c18zWDZ/4Y9iTL+OdQBG92D+NFhx/PmL14zDiAB7qGod/TC82nfdB0jvN6HZ2/An33NGQfediqmQoutbSAgsO0x2Sq6ecHbwM7hGssU/g/DZDimWV4pr/Hm8FFPOiNodU5CJ27D6Lih8hVjGGeBSxYRiBYR6FzRtDiiUN2Rrnrk1Qa0TND4GZUq6B6RSgHiozYMERPlImUou2tgoTS63kpMcV1MtdLEEMCDwUm19y8qzfVP4an2X9/7OFkEbyPo4OkCKlwVAhGUqQEjbLEtMoSZP8kNMZB/DO4tjH98nAasm0AeiJl8FIqO71mmArwarTen0Xr8AyajWE8b09t6J5XP8PKn5OnvkJX7Dhe651hbc4x1hoIo8VPjZTGoXeN83p4yTIMyTIK2R6F7EhAtFGb8ASjAimqQBRd8xBcB6tjCQKP8qvzQmvROpjhgxfLURZDPU8WB0gFwoFRDMzfxkj67ZAgwcVL2Bs/jueUCdxvL0M2JaDlxUBR6Huj0PFyXPIQjUNwUQ2EWnQjczaRPPTdk9UTalq1nbwVpsYGkhCVMATbWHWEGdWyq8U6V/OkaJFoA2usRV71phI/JNhdmwCIOX2Q6ZVBXqNOrmNSs3hJLy8dJiDmSM1ilBhJVZuCNYiX+9e2Q+62D0BUhqDzV3PW+CZKsypQqtIkh23BabQF8ni7r3FwcOXmX+t9IDeFN9wjeMYewt3749Dsi7K7jEEmuEJqLYhXLWKr1aDwtBci9/CUuaSQfVScNgWNfRLNNmr6ugit8yg4qwxVdfK4k5qm39JPRVOk8tL8qGXW/HtXAuWnChDuenNS0hrlydxaFctTOob/HZ7Ejq40fv3xOLSUBk+pDy4qxIlB9lDKeBz63oTKGkLVbFSKe4VFg7xPnJABWoV02RmuWmkdk4w2u2jNQLIkIZmiaLWlsdNVZi0KZbwmIDgpIZOM3jgHHFUE0t/wv6PyWWeCNRnTeKR7akOn8dTFy+zOT/ZDY+vjlXyUPCg4KQZSPfm54yPPqDiIz60jggecCfgO1o9XhBe+QIt1ELKfaidI/bgCErbiPf8uKkK6a183Bqc2VxZAgLEeO4LHekbx//2rC0J7BNqOFLTGLHkxGSUs6roz1arPjMpwQ9nEjhwkJ7GezEBHpc7eOci+OaYLzEH2T0GmxFP3FAQ3McAcgeTMoUVJYJutSu+kFNVDhNbWRVK23qD5q0DbMYq+hZ+QBLkGIGSk17NB1pmsuPLE6i6fwnPeFLbZMvjV3jTu7CryNHeqSaDAFz/pneRNopO+qgpRnQKdxGT0ks/fXYTsLUNPC+GZgdaah9aYgmRMshZjHHe958E9XUG8NjSLd/KX8MrYaXYPBZtsSTRbg5D9VHcd42Wg1BdeU62V5owpmwQIPeNzI2MQ7X1c7RMIuO6qC5PiSr4UbXTGOazoFFZiaLMn8c/IbF0gmgpHobNTOj3lh1GNvtq/XnQTGwuduFXAuFPQ2kJ4tKeAuXP1U9tXzv/q9xOfX8QfhoZxr28YWssgP4iIk0xjneHRf9FVZKIrT0Mt7aU1oFJeLglK/GBpMuXRbCa1imdiM40lAa2ZyOSiPMfuV3uC0LSP4wFnBG/GZ/Hx1Gd4tm8eOuc8NEQEodCBR6n81XENUH6KAOGpDOv0Ym1gUfaWTkD4NACtMcTjK4K9xI1aIl6jBD/Of0XUPopKDEd5YDxHinuc1FNUa4+jyRCCxhRDi7OIHc487jUH8ahpAC+5x9if/WEYohWMVq6men8QvsB2dRXR1BGGhmIK1doNUrmIfUNbU7G4BImzZnMKj/ZsXF2xHjmBVlM3RBuBr8Q9T5RGzgOvVEgVSDFulHopkzkBwZTEw9bQdQApfv4l/pi3yrIAACAASURBVDiShs4+jmZLqMo5pUo80RNnNQ4wAolgj0PYN4qPco1ZS1aDovZz6vwSHjbuR5szBMlJMaO0yp5IEtVOJBcztIGZxjrNNJZpaK2U96VmDqtp6qQyEacVJ61Aq7+CbZ4CazWFsLMriEdtYfzWFcdf+sroSh5C8aJavlD5huFl/wTuas+D3L1cFa2Bg16vA0gZQucI+hYaF7HVnukHe31v/BC0XQ3cvK6rbl61aF9181K6e7ZBQc7qG/00exzbbLQQCTRbiJEvhWZLEhpbElqqYlMyXD/lRHFETEaFOxYqNApBMA9DNPdDNPRC6ujltSVP95bxRvQI3s8eh3/pHGInGpfIfjR0Ar8xz0BDuWYekkpqcRMBRHBQiWlBtUGccYjOOJpMSTzSvX4vVu1Zi19cxvNeuud4VfWj069aFEYSJEBSRC3L5SqjLY+dhvHrANJ/5gv8xhPhNSR3do6oJ6srDtlPZA1U/BXnhwlJKCoRfsKRwsjSxtSrqQtf4+GuDmxXPNB5ieXwMM+xI8ZIHsdxTkLrJIDMQWNehMY0r4KDDjVjhjd7lUwRTlWrs4zjbk8SzwyX8UZkFu2VM/AuXEL09DJmGvBaveLK4f95J4hm4mCjGpSfDUDqBArVghY1mMMZTqhgyqwWTOXWIUE+mfsCD47OQk+eGPIaKcRckobWQeBIQKB6CWcGGksJzSaVAbG1p4LW7iR2ukbwkjKAA2MZDM/XT9+ubdBGrx8NnWCPWOd5Kg1nR/GppbAcILwGmwBC6psaKGwyxTcFELq+OXsWQlcOGvs0BPLhcwNUdWGqxUfE6UXXUhMN5Y4QDAO5a0px/xI6gm20US0xNNUIFXgdN9WPBxmBmBNNuA5BYyziDV/kOpA1mova5x9FT0NoH4XeX4HGnuduaY2dJEee206Ck9zU5GiYZs2WOdZkKuMuwwiajT08E/cf3hBsE9OIXthcbOJFovqx0LVnq4yQ9ewP+owOGZIgQ+hfvI0ZAh+ML0FLuVi+inrK1SLpFIQj/ZPTvVTLb70qQJ5yxLAegDw8WEFLL7lfVbenChACCdHKqMwmJEEIHM3GSfz3vgi291ag2e/H4+ZuRKcPb3gD1DYCvX4wfII9ZJ1Vc82ILIIA4levy0kKyC1pI/CqqSZNxhgeDmyutDRx6DJ0BqIEIoAQsRy5eWvB1oLqZaP8LJ6vNQFiXnzHn70GIA/YyhCspNKQpB3n/LfkxZP9VwGiJb4p51FoDEUYM+tLW6nNydCxy3jGdwQaE0XnFzk4tET6Vh1XEjqJztQ5yZqtU0wfWMCv9vnwgGcI7vwsFg5vjime7mHyG4YX/HnOaSZwVzDRkTYCSAayr/gTAsgNkhV5wIoAYipgPQAZWbyEVhuRPqvg4BOxQpxq6QQnQ9laBYiJaC1z2OFK4ZPQVTuitribeX0rdILd75qFYEhybi0iDOCqjo8MX9LjycN1NVmxyRjZNEDo/u42ZyArZchEduFTXaASL4edYGqeVjVfi4iuzQk8Zw+x/FGVXCGz9DXaTMQDNgXJleQGOCeIVsixMA7JR8VfySpv8QKEAylET9X3hDWaqzeGpiAdSIEK1DTWSZDkqIGDXq8AhPLUXBV2lzHH/ntvCC/23JqKwsq3DL/lACFgqAfJjQEygP7FW1OP0mhe1vz8P2Pry+ZVI7orAHKDmvRPozNcT71mAlYARD3BU9BYcqqKZcxBNifwcu/GAnVrPdxf4yfYLs8MBHMVIJ6aV6nq03fUAFItmDKurx6k0TUfs45jG9H6B8jTNgnJTaR1nPX9WgZ4Smq0pbDbNMJ8h1QbwlW6iFYn0R6VuT1EzOkaawRax1UjndhHiIRbYyxDt2fkivHb6H5Wf67/JIDmTqpjoZYGBTRbsg0BolXK7C5Dju12b8ztvfqaK38uf8dA6Siyg4BJKTkExBtJkJ8LQLzkYl2EZCniaSWB/BrMiuUzy3jGOgTREqqqGSpnE+mV3GPlVI1zYgDkASSlxIkdXnTOYGaTpNgrF6L2/rnROdbqq6jVkcTcQWoWsTXyCLWaTsMlSK2ikAASuHHBVO37V7/6jlzCLtMgp3LV+dQs3CrtULWykVQbNeOXaHZ01gh7YUR1974xOAuNmfiKacNEoXVEoKEItY1sNr6RGQXlWnyTaLOW8N4GvVfjhy5CbB/iNSTkHm8ypqCx0TrUUbGcxHmcY7qPU2xffGNSavWcrPw5/x3DI+4wdIqat7a2m7emYt12gFxbUSh5Y4xoX1YUTJH/nQe6ZO8ikyxFRgDJVl13Kyeg9j5yZpk9ZB0BUWWqenieCa4cjSsA4UDhJ0i1mKkzhn/45q/RyWvft9nXB/pyjLh3RSfxY2WItZynbFBcgtI2KN+MEjN5ya2XSm7DeKh77TSQte6l9PW3eLmPGAFHq9V+nJOLwKEChFjR+SBbJMckZ5K1Kmm8Nf09e3p4iVE2geiOMRqCMwatnbx9eTTb+IZism8aWksKj/qm0HdyY+W79vJhCAZiOCzyUoBmYwIaajehAoStULGoRIBpuhLs0X1JFp69fMvWxH/wNLvHNsQIIM0WkiI8DkLs/FWP3bXSRLVBOEDWvofpTTCpr7WQK/9vvSW3FAleKUFylxonx/Wd/Ba7TP0Q7eRepWxUdXAWC2KyqA5VxBJAchC6Qvg4fuu8FdmLX6LNE2aUgMm9R5yFUK074J8Rezxx6ioEmggkb4g1mcbxm5sACM3r+/Ec7vywF3d1FThnFfcE8qAbPTdF2GvzQXxjRaaxxnH34EG0esvQ2qilAeWOqfljJDmarSU0W6bRZJlmusAC/uuTYbwytHGmxrfGs5AsEc5wrzHHoLHE1Z4fCoFEHXwdaC0oW8E0zp62j669MVdupHW8/ySexzZDN3TE62shrmQOkKuu3lXq1gqA1HfWBI9fxr/6y3jGFMIr3SU8706qw5XG89XxW1cav3Oqg97T58960vi9Y7T+l656kPWymtDNyr6rKlb2UmPuKuexL9Fq7FGpRhsBhNdMEPkynRopCF1BGMq3jqh46MR56JQxnqEsEQM6cXDR8BBTPdV2VwHiTEP2hiD7Qmgy3zxAvNMHsduSwa/2UclAlT2Q+J84i+AKgHg5tQ6aTGSEU/brFHdaEE+uGkOhBkBFNFsn0WSe5123iNZHMMTxcXrj3r2XA0NcomsdeTRbYtDaSI0jb2KNWf/atA+taQSv9FwfzFy1fTb049+iE5y1ncqI1w+QNdy8RDL8lGUM2n1BiNYsj9RSEY1oT6jDmoBoSUA0VodZ/ZwoPnXmnnUB5L1wlRfLX4YcoFyoiFofQRSXlDDmzXNmRdlfhBxYhGQt4ilnAukGgSCaMcuxi2i19vFeIpRPQ0NtuFLlwSU6UJ7nRWn21QCaYRyfjm184Rut0NuJPGT7OHev8kRGXuNcdVvzQp0aIztlx3KAMALIgz2bV7Fq93JfZwa/3puB4CBpQd4s1c1bfa9KVAKIv8yo3kOdG5Iw1C+D5oQS+UiykqdpFk2WRTSZFpnGsoQ73xtE/nRj1vbaPax+/UskAdFBFZAEPFLd4lWAqC53cruv7BalNY2wl7xjt0yCJJYu424K1npJtSUiixtJkFocZI1IevyLZTxui6C5i9QAqsIqqPlL3XT6EBthVXWh5DieIKeeSq2DZcju4LoA8m5kAVpjjDef0XVTWkQVIE7K+aFaEGLfo1O3ChBbCU8SQNboUWg7ch5tBBCuvqwFEPIqVXOOTON41bkxUoPVm6D288D5r7DD1A2JmkoSGyHPJ6KYRC2uU31PKhbVJxBA/CGe3nErAPL30VMQO4galIOjBpIVryVIXjUlha+hj2JFdGhQ/IQ2BklWCthNQeOYRbN1Hk3GWQhd83jCvrk4zd/CMQi2IZ78qAKEgrUrwLEaIOYg7u3wYfTopXXto9rcN3p9O3QCElEsUSIjB35ZVa1r9ge9XqNi0TzcIFnxRwdITwK6bmLqoLTkGwBkDQniXjqLHQYCCAUYKbtzWqXq9BALIHlyJqunKIGD7BTqoBrFDvMY/Bs0PustyH1KFL/mHhvq3UEGcdXuudoyTP2sBhA/Bwij/KcHe29egvgPXUbLgTB35ZL9cy25XBU0vHtXiUsQ2jQEEBUkKnhIqvCN5JhGs3UaTYYJts1cwae5zW3Yt4IhCKZetQ+LnVL91YwG3ghIzWa+0seDZxrYx5nO2MPeTW8sGFlvPfbPncN2D6XJ0IFIXjwisqDnI1b/NZIVPVPQdoyhb6FB1H41QOhkISJpOUBs3jSh6sLXuhqRAUgUMCRBJNcmJMgaAFnJ7q52mGqcQdo3ewp37++BaKWAnAqI2ivnwuWfkfQjcJDEojqOJC+GenZ0cydkbWH+x1+E1hACpY1w7ijeAmEVQMhJQKBZCZBAVYLcAoDkP1vGoyS9rBE1YOglVyrNRZafkjVJptauU75blYCaVFHuBiZVlHKjSMWiMQFNVwb3G5MYP9l43mtzUO/1vaEQhI5e7hmjRM0bAsQRxc7ePJ7sTSFyvrFDpt61Vn42NPcZdtqHsGO4WH32SQ58LadjunmAsMdtEVZTsXjvPm+aUQsrEtEkkrknSCkyQaH0ZAJOES0DxJO0PiP9GhVLBQhbJUF4XUAVIEy0FhkBJHODLreP7BmAYCS9ljOoU8EQLxq6wqhOiZAEEDdxAad5ma/GHmGtnhhe6Suw8aUGp8bK2V/xPn12GbqPQ0xrSDCBvEEOagCTZ6qhXGYCuVo5iUL1PTecqypWIAQ5EFIlSN/NSxC6rc7Kcehs49AF8kT4xpop6KekGA21Zj1HjIyclVHylpnoKdWi7dwVzPOhqp1gBSK6M0TY+7FDm1Z3wofP4dfvOvFfe0arnYSvkSCMJAlJDp5W704yrSPBmg1RpjONs8f7gthX2XgS5z+GYthh6OHk2/oA71HINPYpprGWebo8xcGqjVdXqVfkuCHJe0WC1LeFVksQtRaAGEhIR1V7aXCXXLVH3jUAcW0aINepWFQjQsY6J22gmnSqB7lBQO+d3gVefMN7cBCX7MpBPTk4IQRFsKnXNhmOqoEqe9O4x5XE884xWLNlJI40TjvJnLkIb/EE/u5aYA/sr0BjUhPteG0JbxdNXXPVJjrUJKcKEE6eQAE8ignQnMo/AEAiZ79Aq2McOj/13MtygDRbqdUZ6f01f78aGxI5RZBKNHdFglDXYU5yUHODD7PBpZvrk7G7M4jmriS01Gb7RiqWkmIaS45pjGHISi8eGxxFV24G0blzmG1wOKZPf4H+qYPYPxTCH9192Gnugaarn7pVceoiwTnH60AIIFSeWwVIHXBcB5D6B8N1AOGdZylt+1oJUmsiecsBUvViXQOQGqvJDbJ5B6a/h9CRAtVpXwOOK01ryDumulfJiKb6AvX3irzCsMU1jhYliBZlBJKlH9u849jVG8eOQAgtzgG0OAawwxHEdnMY0t4Ea9qbhsZKRjgZunQSUuYrAYSkBIn3HxcgJEUeGaaOutS6OlWTINU+jLV+4lXa0roAIaaUEt/M5F2SDL31T9EVUvRGb/8UOY4WYoW35m8IENGTZ5KPpD5t5FHo3MNosw2g1TzMW7dJShyyNQbqB18dTCYwGcchG4OQTEFIlii0VETloDWZgeCmWvV5iJSCc4XZnWxd1f1+nZF+VYLUB0jys2U8biUvFnVlIpJiAgb58NXGNuQKpM9qSWak05J90tJfgqTcAgmyAiCr60HSNwBI5SRXeTgLOvWxUFudVdMsyMVLKR90cvspHYU6JalN5qlGQEuubE8c+r4ib/ioVSLck0aqo66HQBCDxj6Olt4KdN5JyMo0E6nQx6F+P5ewRJhgT/OuTFpqveCpGcJUSkzfQb1J1Ffqhyh5UozslvsD+fqLcaPdV+f/X08vQCb10UUqFqX3k8pZbWrJS2lzTAU0qcvVccUGIecCbeYc7xmo2+e/aYDYZ77FUwOH0eafrUbRyXCm4CSVHZBkUw1m1V7KMzkwyai1ttqIMwzJFeV18rQurUPT3JPKAeQkruMiUxuc0vxWeJ26zjvNQc7XlupMbNQtl2xS2sfVykhyBvFBe0BtxcdfeRrSBISOCHrnG6S7ZM8v42lTFJpO4kGqeoA8k9xHTiTGJEmICIAMdj4CZei6y9D1liHabg1AaunuVwBypT/IjY3F3pnvcU97Fv/10TBkckmTy5i3/6VgGDGWE0CoVpzURjpFKEWc3tOBQKnpvFyV5yfx/CkfuQlJgtKzk701CZFo9J3TjFe8KeQxm4Pkn0eztYhdvdNMNMX4aUkEz0RWJgfoHmK8fyB9Jx0qXJWxTrK7jCXssmcxdWHzRulKnES+ZthliUN0lFmzlTw4cci+MUgeGpTpnGF0yEk+Km2uDSrXrQ7/DFoCs9hmzWF/5YubBgjd29+Hl/Dfn47y8gZq/Uw5X6T28Xwv3h6bSmipiI1Sc8hOImlHDgbiB1BJF1TaHiqRINLzCGSK/HsyjPeN5w2J1MZEFOikEmQiCW/qTKHNUsG9PUugA49CCtR2gnezoqauFHdbMYiXrclYgNSZwd7Q0fqHVv78Mo+iazpGeD321VNYLUPlHi3aLLToq4ZkHq7/pStX8I477qhjpKs2CD/56IRVC6Z40PCa/iA3BghdqiN6Drq949Rjj4OAb3ROFk01DmQck3SgaDJNODWxvzros5VD/T9iOiebiAAyDdE7S8QNTHROQ3JOQe+ZQYtnFtQy+n+y59j91NySWjlwrlzqR1hWm256yaWtAo33/LbNMo11Di1dSZRPfLWuuVs1lXV//N/BOSoyY3dRNR4Bn+iIlChvMUFtllXHizo3aku66ntfEfq+ed5//fnADDJnl28JQKjS7yGaC8rDoqpKKmBT0qpEsZNtQmW0fDBBoU1Ph1ZV2tYkLmVFe6mnDKnIY5DcIQIPV2c5IHjfR5pryrmKQ9s5hu0dIbwxeAi/66cKxTG0DaqFalcBonoyaz+TXdpkJmLAFP7c08BBQMG4ZyyD3D0nU/UdFTERylyqcUs3yVFMSF41ZOP6uoPeECB8UqpRdQLIlf4g6wMI7ZpP0+dwL+/HUQ3QOSJcBeQpHlzNImlCkkQtLa290mcrx9XP6eSiU43UEKJMJb12GoIlC3l/EH8ZmUH8Swbl4Od41BtS2xC7qKk9ZcwuQmud5tFcOrWJgZGkEakFOv8ShH0RUB+Nurt9Ex/6Cpcg7I3hV+1ETEHp9XloqHqS6l8UYmlXmeWve/Vm0DI4j//eN4q3Rzaee7XWrRZOLuNpssuoDZp3FoIzD609Cq0tDK0twkFJ5bfqoUKSn9zQasBXlW41MkE1jiWSmkbOB1tWrfO3Uos1ktbEphjG0644jEk1S8I+9yUk4zBEF3kwU7zSlKpNaaiqVlXlIueJn9TLMTzjGkfxfJ3UptQXBJA+iPv9kG1RXuxPtQ2iPQRJGQP1khYVanhz/dB1+te1yO9GqGsUibwip6S/EiisSZArAKGs1xmIphyetIfX1YJt5SK9NToP3f4RiKYwRKL7oTp1quSrdoilV85/RRxY1bHy/1b+P/+cgovEtOGgFgF5SJY4tncM8zylyap9RJSlL/miaDYNcBVGY1tEs+kImq2HoHXM84UnKaLvI8bxPNqGDuPOT8cxOr+xTNmVz7n6ff7wd7jPkkVzVwYCeY5MeWgOTEJ7YILXsNM81B0K0R9NQa+k4co2UDFWX2wDPyeOXkabhRwbOWhIjTeNc24yNWGSPGqkvqqD8zZTIRcfxKlLgKHDjjYzOURI9VLVJYHS84k2yJSE1jyKNkvfNZWPSvEEJOMo2oYmOUXsFXua7GrylFYHD1cMTkLrCOHxvjii9Zqgjp5fxnO2YbS2D0PqiEHfVYDOkIPOGofOHoXOlmw4iFh5PfP1XnQegpnI2krQ9yY59yvlchHdDo8CU3CSdH9PjvMfieY8nnJE1tXEc/X1balp/HmgyPsQUm6Zyv9bS+Aj1efaQfxKKwf9Pzkkmi0p3GWI8H4erc4kHnWG2bujeSTqUHp+MLqIX+0LcB+/4FqAxnGY05U222b4d1HmLBHV6brDTOtI4/99rx9/7KtPybP6edb78yvD00zuCkFnHofeGEHLgTRaDmQhd6WYzhRDvUHFY5Rn94AjhtnTPwwPcu7sJezLL+ExVwy73QXoKevBPwPJP0PqKxNck4xTqVY9j+QooqwIXTe9kpSgBFCid42hpS/CdD1h6EiF7BzGw44EumbOI70qyBi7uMylVevQFDS2GpGHSuKhsadAa0Bl2MQt1mSh2EmFmrFif6VBVeHe8Sz+PjaFN4cW8LfBk/jL8Am8ETqIP0YX8XroEN5YNegzGv8YWV+vv3dj8xAtYeh6rweISn5WAwiVg85ANGfxtCOEXD2Rt44dUzz9LT7NX8ADSgFNe0fQ1D6KpgNB3kiUylBXDk4CR0RwliT/XNMVAQ1qOioaxiG39+ON8DTCp79sqJ87x2exzdiLJsMgNOYENIYMZzmhFAahYwii0Q/JZodoU1grsTJ+3IM/9RUw9Tlb1wGzjke+wzJ5mv3P4CTeHC7hT8Ml/HlwGmSbvD48x14fmcP1Y4F/9srAFN4fu3UVfY3uNXzuO7w+Oo0d5hRkcw4aYwrNhiTTGFJM05WC1pBRhzHLpYNozkBnS6PNlUGrK8F7k4g2P7tzrwlPjaZhOPwVSPtpdL0nIlRlGYTkDEOyhyFTizkaShQ6Vwx6dxx6onyiwLcjBfljOz6KrM1G2ehaN/05B4g1rLpU+6oShLfHIuOMopk145IkyjREUxbPOiIoNggWbeSGol8zHJg7jz8OZPGSL47HDH3XjMeNA1g5njAN4n/6c/hk4jR8RzdmJ0x8des2/Eae8ef0u5NfM/hmv8XbAwfxqnuaPecssWddJdB4xkmVpMRHQBpEFk8503jIEsSLgQTeD0/BmjnI0kcbuGPrTELm843llC0d/+EPijq3eccd78SOQnLEQRSTxIbOmcM9aosvbjwRQOhn7reegGhOEdkAJn6AIq7Q0mmsHOGDZ7Fy1H2ArQ9/sBlIn1hm8dPLiJ1aRuT4ZYSPXUbo8PcYP/Qdxo99B1KXfrCL/1S++C9jFyA5qU6b7AwiNyCf9gqAkKeBGNV5DKLEaTyfV8KY+b8wOT+VRdq6j9s3Ay/0noHWllATHF1JSFTySQC5ApIqQPy80yoEewy/dVzPCnj7nmDrylsz8APNgFL5HrvNRTRbwmgdLHLi6CsAoaAW91MTWIi8jNQsSt+I4QXl1pZi/kCPt/W1WzNwczNw794xaPaHITipLQAFfQgURBigpnpcCxCyU4jkgAAy9svXPW9uarf++ucwA/ETy/iTp4y/9c7gw8xZ/GlsCc94stjZMQB9+wDEjiAEC0XlKS+I8r2oJoDypKqjChjZS91W4zwJkiL6bw7cmtLYn8Mcbt3jL3gG+k5cxoOGPFo+GUdrZxQ7nVnOwyQ7YhDtEQh26rVdBYcvqka1CRwU3eYZrqpEqQGEsjh1nhQ+zN46coVf8PRvPdpPfQZS3zE855/H9s4IWk0RtLmSTOeOQXSOQVCCPKtUpdavgaQKjgYAoeRInTcD7y2oG/+pz93W/f0fmIHR08t41F5AqyFGDU6gc2cZdXCi1l2iewwSz6YlcKj5T2ruk8pfy7sZERO5k0gGkjylmVKjW51RpL/eCrr9H9g+v/xHpDrtx6lJTCdlAlNeyxQT3NPVgiHK0E1Wq+/UV16XwXvqURS9DI3jKDT2oxCUCe7+1RoH8Wp4ErVkwF/+DG494S96BjJnl/EYERSbiM2cGl4uQPQu8EIjyqLkFWSKWgRDYCGAqMUwlO9fBYjtOLS2KVDh0c7OHvQcW386wS96crce7uc/A4mLy3iEiKhtVJBUptx/JvmmeSUiqVCCg8jEIhCoxJU3aolB10OZmfRKoKKuT1MQTGXo9ofw4djNUfL8/Gd06wl+UTMQ/2wZj7jUvuGci7ZGvU/10NTOi1g2LAnOOiEo5LlS++npe1NqSSTl+lM69v4Q7vkgsBX7+EXtjq2HuSP3JcPvR7LY0RPjBS1ae4ZprdQkk1r1xiBRDbK1hF93pPBfe8KQPETPU+Lll3d2jUHbNYznB/OwN8rFbzDHwwufY/TMMic5C51axsiFZYye+wKJS43JqbPnLiBx8RvELy4jfaY6PltG/GR9fqyFo8tILV5G/OBlxA99w8LHLiH4xUUMntk8d1SDx9n6+Jc6A4lTn+ElfxA7PUFIjgjVVDDJkIDcOQa9cQx6axoykWKbUtyQb26PQtMehfZADNK+EbyVO4Hh0xsnMPiDLYX7DyRxb2cc9xrHcbe1H/dZPXi004L+hetjKD2lBTzT4cATyjAeVaJ4wpbBU5YUnrYG8VZ/uK7k8sbO4bmuDB635vCkNcYeV0bwm24fHnaZ0TOz8VbOv9Q9sPVca8xAaPoQfm/x4z77ILbZIthmTLEdHQncvX8M93YM415zPx6wD+IxZRRP28fwRiCHT8KH0Td3GcV1tnmud/lXvXO4x30Qu3qXsGt4CruDOdw7FMb2TjNcC9eXj/bMfYEn3Am0KQno3WXeaL7FOgndnj686qlPofpu/0lIndTAfhaiJc/oAND5eyFZTTDNHqsLqnr3uvXZtTMQO3MQ/UcnEf7sCBu7sMRC55YQPb2E9InFX+ac+vMz2F8+ik8q57CneIG15y7AkDkNY+YQjBOLcMwcwsDhMwgfbdxv/NopvPFPj1rKaOoocFWN1ysTe6K9D78JjME+d33ppKVyHi0dw9CY45xortk+zzvf3h0o4M1wfcfAv4NneGdcwXWYCOcY0dJsD2bRbHJjf3nznVhv/HS/3N+wTxTxks+J+8wdeGa4lz3S7WSPBRx4ym3HS2bjLxMgt2M5n+5ZhMZchM5fhL4nB50/A50jhvuso3DPnrtuopVD57HTcgBPAQAAIABJREFUQfQxRGE0D8m/BNk3idZACC/FUtf9Pj3TW0MTvF+i5DsEuXua6bpL0AUKEA2jUCqn6/7N7ZiLn9M1TVPHsdvSB9kegs6fYi09UabzBqGzj+CF/uTWnN6qxXyib55prESpk4O+OwPZk2U6a5w9YArBM3M9v6ypsoC7Db3Qdo4wDRG9mWNMMI9ANCp4vr+v7sL8ryeGO/dEcZdpgmnsaaaxJdFkSrNffdDLjLFfqDpwqxaowfcYJ09hh3Wcic480/XMs5aBGTp4mOQs4NmBLbuuwbRt/OMn++Y5e/cKgHAmlkYAGV08gQ9Gi/jX2Az+HprB3yMT+Ec0h78MB+Gq1CefeKd3CZKJ6GeWIHdPMl33BPfCie0heIpbEmTjq3bHHbbKIu62dEO2kz1XZLruCpOop6KtgN/2bgFkM3Na92/qAsSSxAOmcF0JUvdLbvDhP/0HoemgTqlz1AqCc9wKzjI0e0eh5LZskBtMX93/dlSmcI/RBZ1tGLI7y3S+SSY5y5CtRbzQe/ONdOpe9P/ihwQQrZVOoCsqFnSWJO43hZln5mJDip6NzNVbgcNobs/zFmVqnw2ispzg/Ryd+RO35BobuZ9fwu/6Dh5k95rdEE392NY3xXTeqwD5bd/M1pzeqkV+spcDZKUNwgFyKyXIv/oXoDmQhsYxTWzhnGRZ9k5AbA/CU7p17aRv1Zz8HL5HOXIS9zn70dw5TN13qX0dI+JpjSmHx3vLdW3Bn8Nz/eTu8QpAAlnoAmnI7gyIKXAtgIwd+RLxrxli3zBkvvoS2S++QurzZUw14LP6x3CeBze1xC/rKTFqeSBT162O4YYAGZw6D9/853Ac/BqeQ58hfOQQyicXbunCj19axp7iEbw8VoROGYLOE4RsDzK9MYhHXAW8PnQEHaXvEVzaOL1p5cIp5D4/hdRXp5H54hS/78mj18eVaENMnf0enaMX8FvHPARTAE3t7fhT4FqHR/zbLxH+9jIKl75B5vNl/Kswjx3OELS2DO4ypJlWKTJqbNRkyuKBvjJiX36P8qXjSH5zlI/4sVvLGfyT28g/1A1tFCDjC+fwqieMR5QxPOwew2POATxhH8CT1jG0Z+t3mPprMKuWC3upHQQ1viR3cg7igT54SldjLYvnluEvnMP7wUU83BkkNQ/3WqO4zzKMJ80OvKI48EE8hf6jN2/Yvz5YwDN9RdzrTaDFm4TGHoLgSvCWy02mNE/6bDHPYrflIB42l+E9+PWGwPm82YzHXXY84lXwuEvB7ywKXjtghisYv+Z7AgsLeNbYi917itB2UF+ZKDRWD55WBq75vSdc3XjYN4pnrIN4yjaC3wTSEC3UzkAlBCebTquU0WwtYXfPJB5XevCc3YwnPGY85TbjBWMXela0ZmsfHcSn40F8GA7jP+E4Pgyl8NF4ir/uG4lec+317L2PRvJ4f6yM98eKeG+8iH+MFvCGKwjDSAZzZ77Z8Pet55o/yu/UAEKtDih9XnKlIZniDSWIc/o47jePQiZia2uaU43Kxih2WxP4Q4Ommm+OUtvkOFoGJ6hxKeMNefwpiJ0BDC2q+VvO2a/Y7/qmoO+McWmzs3cR27un0OZJQ+8Y48aoZB/hXGCiPcpeDC4geIPWcvUm8L3QEpr/3Q3ZmINkK0GmjlAeapZDbQUIKGmmsWbRbMxBMBV5i4ZtPQvQmBJspxLCgakbcwEXL37HWowByK4QZKdK1Sl0DaHtk26Y+yavbJb3xjOQ93VCNPmhNeSgtU5A101rMIzf+xJXfo+eQ2cdgewh6Z6C3pyFnneTykJyVwgYTHBWWLNtAhrzPPSOWbTZwtjuHMGOQAy7vCHc29ENR/ngle/cl81jt8kOvdWHHd0RyPYoqLxbdkaxrXNjya7vx5YgEaFIVxpiVxiicRy/3j8Ecf8A/mn/mZOGbBQgltnTuMdOCZR5aoYDUZmGaC1hh6OEV/vru3nfHCHVKonWoQp03QVGzI/UDkLnGMGnxePwHv0e0t4BRgTQWkuG98SjTaq1pSA5k5A5IR41r6lA17sAyT/HdvTO4V7DGCInGidVrgbInwJlto1y2DqpD8kcJPcc77ykC5BEy6PFX4LeU2Y6antsLaLZRC3hptDSfxCCs8yoKc0j/WPoml6bWjN/aZnJ9jHoeiqQ/SrTerMliRZLGuaoKv0+GJzDI0oMbQFqHhoBtZ+jpjacscY+jNfcmSubmZ5Db4tC9lUgEYjsU7xbl1TrfUnNczxlxjvtWpYgmKahsyaht0fR4s6i1ZHGg0oSzvmrGRh9x8/gqcEYJOcQWvoL1YZFc9D3T/HgY+50nRYGqyf0jjvuiJ/9Hi/2T0FrLkHrXOStFKiNHpVfEI9z7+TVa9b585/+R1cAQt2gfNQXIwXJGGsoQSyzZ3GPPVYfIH31AUIE0II9C13PFDkDGNWvEHUq9aOQzRk0d8R567PtI7PY0TvBT6Dd/iJ2+Mpo4azxVEA2B9EzD9FLvfOmGH2f2BnEAx1BlL65cVnxawOz0Hel2TbXJO5sj0NUKpy/WO6ehuzLQ+8aw3ZlHLttabaDAqdOYjSfQZN1AYJzATpfkTUZ+nFnRwByp2fNdJ/ihWUm264ChEBC7Oh6Tw7/GFtE76HLED8ah85Rwc7gAqdoEpQCqP8j9Y4RrcN4zXVte7m7O0exzRrFjq40tptzaPFQrxSVZVPXnWb63gL1KYTWPg+tsYzWziB2dPRiR+cIH48oIRhnrlWB3w0Voe0KQKAeNl7qmkV9QsoQrSEYMkvXALTRTnbOXcS9Nmo2WgRVwPL+kvQcrjx2O34BEf0fAyB/6Z/mvTaoUlLyZRi1VdMRt5c3A60yDck9g53D02x7IIpHemN4PVbBfyrH8WZkDg/789CZ0tCaqZPsLATqR27LM8k9gbbALKSuLF4bXNsANWRO4M4PBtHqWWCSfY532OUAcRY4I7neOoKXYyn8KZrCe7FZ9m7iBB52TaDFQl6hMppIHVPiTGMZ5pwAO/qLeMUXa9hBtnD2MpNIDfVfbWZDbQIkVwr3ORN4LDCB5q48BGUWsrMMyZrkDPiSYRCypQctHU68uYrwz5g6jL3502hPXcJHha+xzR6DjiigfFHouuPkpmeyn+ZoBtr2NP6dOo5PI7P4OLKIj6OL+E9iHtlVThRv+SB2uEfRbBmqdkam9oBFiLYIXu+/FqCNAPJ+5hR28QY/1G2LJAc1+8lCMIbweviqStfo73/yn28eIFmIzimIyuRVFauBBPlr3zS0XTkOBqqOpFOSn8T+LO9PSLUuz3XH0X/i+twvmsDMxWWejr9dqUCwZqGx5aCxUb/CKWisMxAOxDB44su6J17foe/wYFcUQkcMGkMZze2LaD5wCIJtFmJXFG8O5lD4un5Pjzy1QHOOQ7IMqo2P3HHego46TAnto1wa1Fvg/JnvIRqHeQPXWqtoLW0aJaV2hbLFoLFlcGdnHE/0HMRzXVG0R2fQEc9hTzqF9lQc/uTap6/p2GW0WoMQHWMQXUTsQV28JiDbp/GUb33evsqXX0N7QEGzpb/aD7IImfovKnHsNo8hcPzGrO4720O4q51qmKgMnAjVCxAcKejbh+A79DM2zmsL+2TvPKNAIRFeV1UsJhpjrFGg0DJ7lt1tjzDRlmWic4oJyiQTbUW2w1HAK30TdQNUBBChizqjTjLRlWVEeicH4kzfk2QaS4Td44qzsSNn6v5t7T6zZ5fZE/Y4BNMYa+mdZFp7hWkdcxDcc0xrTbD3J+pvij/HjnGjVmPOMI25zJo651lz+yzTtCfYY8qNvTUDJ8+zp4YjTFRCTPbnmBxIMcmbYII9jsd8WTZ78rvr7jt3+hsmdA0w0UNNNQtMcNLIQXBSo80KtWtmOn+O3R/IM0epPrBrz93o1X7oO7bdMsQk2yATHONM66BYSIHplQqe8Vauu6dG3/O7sTxER5TJvhwlkKrP6Eox2TTO/paZZgfZ2YbfFVz6HroDKaaxlhk5YXTdUUY2pmBPsJd6Cqx84db0amx07z/K50/1zkJrLXBG+PXZIGSkhyBRs03qkuqsQLQVQQB5tYEE+Uv/JG/zRT23BWeRUX873iHLP4q7HQF8mlhfwxVfYQGSyQd9T4ZpbZNc5ZL91MY4hMdGhzD81bVBx/ClZWxzZdUGoh7ex48JSg6CcQwvdafrSpx6k26dWoLoCDHV6Kb+f1noA+NoMXgxMnG9y5kAIhoGuTu71juQg8VTgdZ1DP9/e1f+1dZ1rf+y98N7r7E1Xk2AHeI4cZLaCU7TtGmTTmmT16arzUuymqZ1Ysc2aJ4lkARiEpKQhIYrISGEkJgN2HjGU1aG2ud7ax8Zm0HYgJ3XOOEHliQQd9j3fOecvfe39ye1VHDYG0fyyvZ0U1Zfm+XcTTQ5gxCcPVC6Q0zhSjBSFtO2j6Cls7Dle/PMfIlmSxYqVxYUrFCRGI4rzWXenvP0onqnlsNZfe6V95/1z0J6sgi5c4oLuJJqlaarwHtCnyrcD9+vfP+JfN0+QM7vDCCk1+glgIxC6c5BZu2HwurDWx1BVC9f2vIDPegI8o6Rcgvtt8tQ+Ug1eBDPRRI4Nje55jjHh2chMUSg7Z2Fsp1aKJXAB6qxF5/0P3gLs/5hKi0D0ARJq6/Etcq1nVHITjpwMrxxn5278AWUhu7auTyFmq46qc96xyG1zkF2UoRvciOw1p/zQZ+t55ZrAHGRyGatZzMJKGl9ebQE10bAHnSc8tU7+I2nDJUlBRXPT1GLqRQX6tSYu5C6udaxX32s9wJTkBvGILOTXVLQBMknIv9jAH1zD9+erT7Wd/b9UfIPrDXptq2tIOdxgOpB7KRPMgolDXhb/uEriDkNhWf8LkBoUOew56QHevHBDvZ6w53ILGCffggKcwFKV4k7+lwwyJnG65H7OQb6vz8FM7x8WRUY4+FHub3CBUGVrUnkFreX+HupN4+GbtJEp1zJAFTeGFSGMH5uLqJwdq04DQGEHG6ll0AxUutbZi9AcJW43/NL36P3S/aeWcY+UlUmIU5nAXJq5OEVoW3P4Whg6wAhOxFhVPJJEFIzDfIU1J0JaLurEMwxfJ6pT1uJLd3G6+3VlQgkVO0J6LpEaN1p/KRzazuC9c/2O/m5hSJM3zpAKjU1VXellk9w57EvPAWtI4ZAaeurBxkwNPEv/FifYUoTSREXuewcyc+RfvqL61isv22PQWmL8AiN3F6CzDbB5M45HjBoy84jUT0HcekrDC7ewMDiFYTOXkLo7BXWv3gJvfMX0T13HuGlZXRc/ArP+rOsIUh670NQuMIQPClOyTliqyI8v5aKIp6/xQT9CkBIYZb6lpUhOIpoaO3BxwNb3wJtNmg6Zpex3zTA8w8yR4XJHRlGCU+tN4ef+LYHkOzCTTzdOsj12AkgKj9JbEzwJPDvAvVX2mP5a9hvLXDV3cbeUagomuaO4ZAnixOZ71EzjpbuMuS2b3sFIYDkoXCTzvcoo3g/5UQaPSKGltbOvpsNiJXfk5zcK5YsEyyksjVS2zN78xwg+2xr/YqfWbogN/Xz2D6Fh+XOCaYkcVNPHj861g6NqQs6dy9k+nYIpgAEQxeU+m6mbAtyvXvZScq490FliUDjyTKNrwBNF8nfZdDQXYTWlcdzjnF4ZzYCRG2k0OkwhHbaYpFE8xTk5gL260NwlB99f14DSOSxAIRs++v+Cejcw9yXULioxmSMA+SAMQjP9Ma+AUf9I5C0Uo+2HJ6OTYPaT+057ccbThHlR+iRsPKcvzOv2wWIdfLcDrZYBJAC5K4pDhDKGBMna583h8zF7QPkNecI4wq7XLiU9swU9i1Box/C6NIt7oeMLlxGS6sXe1uDXHddQauXZ4Kp/JTdzkPXWcQz4Qk0R8tQ+5Jo7C6isauMhs4KawhUoPOPQ9M+hqbgBHS+UaidIlM7k9D6RGj9WTT3jKHRmcOzlhHYKmu7yYjnbzK1sWcNQFS+WUgNOTxriiJ07tHDnx2z17Hf9PgAcrJ0FS91l6HuIFnnFAR3AUrrEJpcYbyfHVvj29Hg3WcbAiU3NcEJNPRPQhPMQGXrwyfda7e535mBvtML2TFAHEku/Uvyv0pb7iE+yCqAOMcYAYTCnlp7CvGz9XMQm93P0PxtvGwWmcJE2fdcLf7vpnxKETrj/e1A9cIyXjntwt7TlCnOUqdKysYzla8MomjI9ENosuehs4mQnOjnNBCNOQ+NucDUpgJUxjyUbTnoLCVoDCK0+jBr0Peg0dyHJnMI+0whPthfMsXRJq5l6WaWbjAVd9LFu72VRyH4piE15vBjexLZ69ubFOrZ4nEDZORLhlfb81BYEzV7ubI8H6JyhaFr86wBiKd8qebU+6ag7pyDurPKs/H/9TcDcotrJ4t61/5E/W67ALFMrHbSRzhItgoQhZtWkDFGXB1KnO0EIJHp2zh0KsbkxqHag3RTB/wspJYRNFnW7r1fM/kg1Qdr0SQvrSCTjICisBfw1uASPspext9GlvHn5BI+yl3FR9lr+FC8wT7MXMMH6WW8n7yCj3O38Lf0RXycmmGfpKr4Z2YSn4rTeJ/Yq4MlfBqroHB57RarLkA6pnitxhFbEvnHIKrKAWK8u4LY7/ognp35ICsD9u/xBUj1g9xe5PCr2pNQ+RJQmYNIX7jPzfqHOA2VLQuhg6KDCxC8k7xl7pHAw/NKK+d6Yl7rAsSUxHPGQXgqG4lm5uoSmm1RCA5indaiWIK9wGfjX21SqPNeTxUyfR5y1yQUrhIUxER1idDZh5BY3N4K0lP+As2f9kJpSYBn5b0ZvpLUA8hbrm4I9jDUnaMgJ52oKnLXHGfOxm89+iy+2UNOn7sGQd9VA7CHkoVFCB2TkBpFHLEkkN8BC3n9ue4BxFSE1FqBzJYBkSmJnLhdJ33l2ANTt7Hn8xC3qzpA0aw4VP4MBMsAjGKNmxW78SXe6E1DoK6frjNQuM5BYZ+Fsi2J45P1O2uuHP+JfN0+QC7cBQhxi7YBEAM56ZNQuEuUSeYAEYxxRM6unX0fZkRn+UuoPgvzTDaXgGinjvcpyMxZNBvia7YCv2vvg9YTRkPvGKeSyyxTTOaYh6Iti9jZnWWwH3Z99Pf0uetMqe+G0pPlkwFRQATfxD2AFK48Oji9c3d9kBpAmNSSYUpnBlr3KI52bI1Htf5eqhfvQDgd5sCuqQcQGXIECksCfw7WjmldWsaz7n4ozTnIrdOQWs5Aaa7isDOLoW9x0ll/rf9vn+sBhCoKN19BCCAxCA4Ks9Yy6YK9iEbbMN4K1G8cx1cQAw2WWhSL/A+5U4TkVAzv92+eqa1nhKO+KiSGHK9KJEawyp+A4I5Ca4rh98G1zuTpPNHDvZxaL7eNQmqZZlLrLOSnRVi/RWk6DpDVicJ7AEnjiCX2WFYQ1zzlQQZ48ENiKjOZOc3k5iwE6yRetNfPXdSz5/rffZich3A6wSNuFDpXuCpQmHL4iV2E58xt/CY+Dp0lDJk+BamxCIl5Ak8di+KzxINLANaf54n5vH2AXLoLEGq8sDWA/Km3CpkpS1EkyLmTPsxnKYk+gZe9E+g9s7VVJDb1DfYei0JiHmEqfwHqzrv8MVsMByiplVyb1Q5duAJlmwn7QznI7cNEbGQyYvPqc3h3VeHSVh6WuPA1C4z9C9bcv9Cavo7P02dwrEeEP7QWlHSs9Nmba6kmBJAOWkHSOGKNIbf86CuI+8wy9ptXAFJhUlOe0YCVGebQbNw5QAbmbuCnbhJyKkJmnaltS815HPIO4/XQOPZ7qdQhBqkpAaklD6L8aPRxhGc2hoK3Ytfv/HfqAYS6mjxriMJd3rinNFUu4Gkq9XRSwVSNzSs4RtFgyeFN/8iaLc7Kzb/XV9t/U6hVZisymZ2o0USOG4bKPoTfDm5t9nnXM4v/+KAXEnOWqTup2d0IB6lgyuGwdQh9cxsFg17p7EWDtx9yawzUMZ+3GzIX0GQcha2yNf8nffE6mp0RprSm8NSxOPYcF7GnVeRti04nN9ZNpBZvcIAoeUFTkbNsawBJ4rA1itxjcdKX8bR+BSBTTGKYZnvbpiExLkJ7uoD8XC3cvfIMtvP693gFstMjNVqMdYxLbkgMPjR0RiG0h7mKssKdhNCRp7A4XvCuzT9t51zf+e8+HoCUoLPkHwoQqv2QWotMZstx4zaFx3gOQmfvgf/8g1sMvdu9gKa2EgRHCXLHMFMHqHahCKW7AsEo4jXbIMbqDDzb2fNoNHqgsISgcKeZypfmvoFgr+CgrYjo+QfnJLK3vsHbg2konL28ElJqGcZTehr0Z7HnsxhI+Gj9Q04u0ApCtSM1HpbCXeZhZqkxicO2xwOQrsllHGitAURmm2YS0xSTGKcgMc1A2ZqDa3zj5Lb+Ojf7HFq4BMXJNG1JITMXOEV/T6sduh6i1g9A00XMbHLg8zgQLOOXge8RtWS9UdYDhGrSSWphcx/kEpqtCagp2ece5z8qZxkN1sKmPshf+qcg02chs09Aai4xmTXPy28bQrSM96GpJwONpYe1uFOw5O8P2NDZ2/hg5BZa4ouQWTM8d0L+i8I9zIhfpe6iPXIK//2pB8cymzdLe6snih+d8JG+PNN0hiE1d/BaDSqtPejJ4g+RSQTO38bgpTugctnS1wyexW/wjljBfn8AcpsVms4oo3JYLn/nGMGej6I4Fr+8ARxk3/jcdXavHsRbxLcBkOSZr9BiTUGqz0HuqjKFk2jm2ZrvYEihwdqHQx1R/DxUxB/jE3jDHEDn+ObEw/XjYp8+jqdOZXnwQ2qOQuULQ+2P8olNaC9BSiW9HUU8b0pgYP5+CHj9cZ74zy3dFbaaaiK4RaaximxzgFzmAFG5RtldgLCHAeSvvZO8L5bUOsEIIDQLK1xJpvTEmdwxCME1xKhij5pFNBxPs6PmGfZT+xm8YJ9hTe4qI9qDupNoHrQ1I3JehhG/SddTgao9giabZ9OiJ3pA4QvX0OwIQ26PME1XhGmDCUahX06/txWhtY3ggEPEC06RvezKs6MdRbzUVWSNHXGm9HRB4exgVOtANQ+CJ83UpiT7nWMMIzO369ZK8BXEdL9gqgaQCh7nCjK1fAct+iGmbSd+2Sj1GmMKZ4bJrRnOj5JTkwdXGE3+LHs+IOIVVz88U1sPiPyqt8gEY5qR3yQxxaHqiEDVEWcK9xhq+axRyMwJ/MJdv2H5Ew+MlRvgZEXb8L2CqZUV5KBxkHkqyxsGgLl6mTVbh5ia09arTOmqQuUsM1pB3gwUN3yfzkON4+THRUgMtRVEbi9AQjQJZwzP900z8l8UpiRT2jJMaclBacxCYRChso2g0T+B/f1TfPYnEh2tAkpPhvQbmeAS8XJ3iFknHl4g5C9fZEfac4zyL1SHrutbZJToktknmMJaZhpnERrXMNVC8OYMCmcScnsCMvMgFQBRvTiTOwpMsI3iVX8VoWL96ke638y5r5nSPMDultwyhWecCR1V3uj7sD3Chm88nkKid6nkmKosqUbfXWVy5xjkpERmSzGZOQa5JcyoE4zG1s1e6ogw6+zm17wyHlZe7bNLeJ5aEJlSTGYTmeCJMwqnyx1TTO6eZ6RuttcwgNbxzQuqVo71RL8e7ROhdAxA8FC4NAnBnoTOFMcLbWH4xjYmCu3lizhojEJDA9lOPsEY1I5RNFkz+HWg/mzyl95pyD7PQWKaomIhRrwpyn5r/QX8b2EZr7uz2OfIMrUrD6VT5NsmuYPKUuOQO2hbQ0q+pA9P5DhythOsuX8Wza4htI5uPWLjrVxm+1xZ/IhKRJ3jULlmoPIsQumchcJBbN8MJKYo26MPYa8xAupCLziL0FFrHX2cqVoH0XQqisDCg6NusdlrTNXWxRN3CocIpTMNFUV/TAG02DuRu3V/G/kog8eVv4L//MAFwVlgMss4o/JjuaMIwZPn2x9doABtIAmNhxS9BmGZ2/g8Nzt//qsv8bOuIchNKd5vi4rclC6KBk5B5pjjSswHekpIfB9zH6uN8mK3jWnb7dB4w9A4k2iwxNmzhih77WQI/WMbo0LOzAwO/cONZ/SDrMGUhcZWZA2OAg7aB/F2+0DdPfnbA1OQGKg37yzba5xme01VSCyjTOUYYiM376B65Rv2sjPDdE6qZx5imi6RNYSG0dAnMk0wzdQBahNEW6ISlI4MVKYIO2jug3uuvg+w+v7qvTeVr7Gj1mE0nspi7/Es5NaaL6X0lGjrxhSuPNWMUzCByWzUFTLCfmbrZ8bBPLIL1+uukqvPM3b9Djt43I4mQwA6Uy901k480+FEk/ETvGo7jsSVjdJ2q/9/O+/jZ66wN90RpjOKTGEpMamJJiJqgDfEt6O63izTBpN43h+DbWp79tJPXWBKGxW6Ve92LOEl1pBbinimYwa/6NoY4t7OtT8R3/2wGMLbxSj+MFzF/6Tm8H5iCp/Gqvi7N47JSxsjNJHSJD7uGMBHfSN4r7+K30fm8c7gPN4Ll2DK1m/7c6pwkWst8hqOUzkmnMpzQR3Zx657gOqa/or9WbyGF7tLUPImCb2QOzohtfggMXRB0hqDsi2Dp41xHDGGmH+bD7vew7Dmr+M1VwmN1NDhsx5ITwSx59MA23PMD501hgO+PI7G5/BOcga5xasPBcbqc/ROXADRQRwLX8C6dAWGhTJOVaMIzH07ER/D5E32x+GrONxZRIMlBJW5Bxp3PxqDMewPRNHiCqOzsr0qRvv4Em9Ux1nYxKPjid4xKEwiDrSl4Shsfcu22ja779dZYGL+GxQvfIn8pa9RPH+HFc7fQez8HfSMbUwuUScRc+kS3hsYwbuhHH7fJ+KdrhT+6krBHplFfl1x0rpT7fjj+NVvUFr+CoWrN1n+yg0MX9q4eu744E/oP/ryl6EzUCnBBOQOKnYbBy8bMIl4ua3v3uT2hN7e7mXvWuDRLGAr3YKat0St1MieDvIdx6A0xPBR/1rm9KOdafe/dy3whFmgtXzPnb+KAAABbklEQVQBL/hzvGONwskZEODRR2Mcwqnt9e59wm5993J3LXDfAgPZOXzgGMCJoRKOJyowhCfxWXyhBg4H1d+PUBgZJF1BUgtq5yBe7Yrubq/um3D33ffZAs7CLF40dENtHIBgSlMjOKjaslBYqSSh1kpUaB+D0jsDmSWNQ10RnJzcnLXwfbbV7r39AC1gHpnHQdsA6RxC7a9CoKI2UgIj/piX2hzlefsiwVuEXN+PN7pDSFzbjV79AIfKD/OW9bFxNPzTCy2V63YVoekkDft8rd8Y77Wbgao9BrnBg1/2DyF64XvSEO6H+bh373q7FmjPn8NRS4TLuTX6U6CfBn8Kuo4hqN1hKKw9kLW68Wbf4GNR9tru9e1+f9cC/1YLuMQzaDnRiR8bg3jB0sN/XjT34JAhiNfbY/hTvIwT+TkMnd15fcm/9QZ3T75rgUe1QPjyHbhmb8I1ewPuuRvwzF5H5/wXiFy8g+F1miI7Pdf/AfMF2TjnI8s5AAAAAElFTkSuQmCC;" parent="1" vertex="1">
          <mxGeometry x="-225" y="130" width="34.85" height="23" as="geometry" />
        </mxCell>
        <mxCell id="MFkD_TH9y4HgoGXGHOmQ-45" value="" style="shape=image;verticalLabelPosition=bottom;labelBackgroundColor=#ffffff;verticalAlign=top;aspect=fixed;imageAspect=0;image=https://upload.wikimedia.org/wikipedia/commons/thumb/d/d9/Node.js_logo.svg/1200px-Node.js_logo.svg.png;" parent="1" vertex="1">
          <mxGeometry x="-299" y="131" width="37.61" height="23" as="geometry" />
        </mxCell>
        <mxCell id="MFkD_TH9y4HgoGXGHOmQ-48" value="" style="shape=image;verticalLabelPosition=bottom;labelBackgroundColor=none;verticalAlign=top;aspect=fixed;imageAspect=0;image=https://www.seekpng.com/png/full/26-262743_black-on-transparent-apache-kafka-logo-transparent.png;fontSize=6;" parent="1" vertex="1">
          <mxGeometry x="-352.24" y="130" width="41.24" height="18.88" as="geometry" />
        </mxCell>
        <mxCell id="MFkD_TH9y4HgoGXGHOmQ-49" value="" style="shape=image;verticalLabelPosition=bottom;labelBackgroundColor=#ffffff;verticalAlign=top;aspect=fixed;imageAspect=0;image=https://cdn.freebiesupply.com/logos/large/2x/nginx-logo-svg-vector.svg;" parent="1" vertex="1">
          <mxGeometry x="-149" y="136" width="33.09" height="7" as="geometry" />
        </mxCell>
        <mxCell id="MFkD_TH9y4HgoGXGHOmQ-50" value="" style="rounded=1;whiteSpace=wrap;html=1;fillColor=#CCE5FF;strokeColor=#6c8ebf;dashed=1;" parent="1" vertex="1">
          <mxGeometry x="-429" y="251" width="340" height="60" as="geometry" />
        </mxCell>
        <mxCell id="MFkD_TH9y4HgoGXGHOmQ-51" value="Red Hat Data Grid" style="shape=image;verticalLabelPosition=bottom;labelBackgroundColor=none;verticalAlign=top;aspect=fixed;imageAspect=0;image=https://www.redhat.com/cms/managed-files/data-grid-vector-graphic-500x415.png;fontSize=6;" parent="1" vertex="1">
          <mxGeometry x="-262.78" y="268.20000000000005" width="30.12" height="25" as="geometry" />
        </mxCell>
        <mxCell id="MFkD_TH9y4HgoGXGHOmQ-52" value="NoSQL Store" style="shape=image;verticalLabelPosition=bottom;labelBackgroundColor=none;verticalAlign=top;aspect=fixed;imageAspect=0;image=https://logos-download.com/wp-content/uploads/2016/09/MongoDB_logo_Mongo_DB.png;labelBorderColor=none;fontSize=6;" parent="1" vertex="1">
          <mxGeometry x="-372" y="272.03" width="66.22" height="17.95" as="geometry" />
        </mxCell>
        <mxCell id="MFkD_TH9y4HgoGXGHOmQ-53" value="&lt;i&gt;&lt;font style=&quot;font-size: 8px&quot;&gt;Data&lt;/font&gt;&lt;/i&gt;" style="text;html=1;strokeColor=none;fillColor=none;align=left;verticalAlign=middle;whiteSpace=wrap;rounded=0;labelBackgroundColor=none;fontSize=10;fontColor=#3399FF;" parent="1" vertex="1">
          <mxGeometry x="-425" y="246" width="40" height="20" as="geometry" />
        </mxCell>
        <mxCell id="MFkD_TH9y4HgoGXGHOmQ-54" value="Relational Database" style="shape=image;verticalLabelPosition=bottom;labelBackgroundColor=none;verticalAlign=top;aspect=fixed;imageAspect=0;image=https://files.readme.io/b8c5ae6-Docs_IBMDb2.Square.png;fontSize=6;" parent="1" vertex="1">
          <mxGeometry x="-187" y="268.78999999999996" width="85.2" height="24.41" as="geometry" />
        </mxCell>
        <mxCell id="MFkD_TH9y4HgoGXGHOmQ-55" value="" style="rounded=1;whiteSpace=wrap;html=1;fillColor=#CCE5FF;strokeColor=#6c8ebf;dashed=1;arcSize=16;" parent="1" vertex="1">
          <mxGeometry x="-429" y="316" width="340" height="50" as="geometry" />
        </mxCell>
        <mxCell id="MFkD_TH9y4HgoGXGHOmQ-56" value="&lt;i&gt;&lt;font style=&quot;font-size: 8px&quot;&gt;Analytics&lt;/font&gt;&lt;/i&gt;" style="text;html=1;strokeColor=none;fillColor=none;align=left;verticalAlign=middle;whiteSpace=wrap;rounded=0;labelBackgroundColor=none;fontSize=10;fontColor=#3399FF;" parent="1" vertex="1">
          <mxGeometry x="-425" y="311" width="40" height="20" as="geometry" />
        </mxCell>
        <mxCell id="MFkD_TH9y4HgoGXGHOmQ-57" value="" style="shape=image;verticalLabelPosition=bottom;labelBackgroundColor=#ffffff;verticalAlign=top;aspect=fixed;imageAspect=0;image=data:image/png,iVBORw0KGgoAAAANSUhEUgAAALYAAAC1CAYAAADyZAWqAAAQFUlEQVR4Ae2c3ctuRRnG9z/SWXRQBEUH4olEBEEJURCehORBkURUWIgnoemJhZRURIZGERSKUhlKkVoJaqamsC3TQs2PPqwMMQz3lid+e3ftfb+3s561no81a561rg2LmTVrPu77N9fMmplnvfvYMf8zARMwARMwARMwARMwARMwARMwARMwARMwARMwARMwARMwARMwARMwARMwARMwARMwARMwARMwARMwARMwAROoQeADtx9fvf/Hj6zOv/nhg77wAV9qMHMbjRO49DdPnxLzRb984qBFzaCUD/jUOHabNyaB4y++ckTMzHaHOmtn2/FtTHauu2ECmuEk5q88+peDFXa2Hd8aRm/TxiJw45P/PCLiOQghD1R8HIuf622UQH513/v3lw9eBPigtw+hN5KNim8ss/Jre06bLW2GJXB8HYuj622MQDzaI96YeTubM3f/dgY0xwryOnSOM9qc30hz1OTOPi1pDTrHPcTOAphrBbmzf/r8v2e3DFHf4ZvW2d5IisoMwzke7/V1U152+fivj9gBPo8bKmawJfwyl39ZneNG+QCluD+Tl7yZ8vHf/nTUXE1xrbnEWSu/rZrrIBu0OYG8zrz+8Rdmu2HsopPfWDDpyuv0AyCwpOO9vu7IJ0Jz+ISgz+fZPndnnu1aD/KzLA46xpIjrq39+j12zMuyg5b0aeNb2zB9+/5XV9c984fJ17ZxsC9xI33Q0r7y4WePzNbcT+nQ1Xf9d3XxTa+sPnH87tXlTzw0qS2tsZmyXw6q7ZZ+lHj8xddWV/3stKgl7BbEnd9mS/ix6qBEXDI2ryOn+hkZUSPmeCHqeD300jR/4bLEzwtKWjmYtFY+/LnnqZNHBC1xR1ErfvsLz02yNMknRnP+IOxgBNxlaO6sKc5q2SRKyDmUmHM4xabSx39dKmosvYVf1+J6Ooua+yzoeD/FpjIv22DYWLfanLghqn2MlTeJJVH3CRuRTyFuH/81PHam/IKtaz1dEnecodfFa24q85tuTn/Y3LBk+02bcq24iaiHzNhR7DU3lS3sTfp7emE58jqx1vHeuk1iabbeVNiIvNam0sd/jQ2aqTqkb5O4L2Ej7lrr7qkmiMYk1YY5tV+hQzeJ+xR2LXFPuaRrQ02NWFF707Pperok7riG3iY+9qZyyk14I7Ka3oyax1Q/+WP5l8SSeNelbSPmXGbsTeWUx6bTq2piC/J6cMwfFrbZJHaJO4t02/sxN5X5TQjribt7Gc3XXAvecNdfO38e7xJvVzqfrrIR3FbMudw1D/5qNMHV3rssQ7k9XmboY368c+l1D6y4usQ6NJ1Zn/UxF7NtFumm9xfedP3qgu98bTRht/IxWY8U5vO49vEeon7vZXesPvbl+7YW961/OnFG1BI36+RNxaz877r2itW5V35mVGGjmLzcq/X7wHzUuoEncWPD5nHsD+QlbMTNten5NTOfxJzDTcX96ft/fkrQiLqGsFv6g40NJHJ4Waf4k6YsbMR9xQ8e6529GQDsBbKY8z3iHrLu/uSdPzoi6hrCRiGZ+Zib9MNT5B4szhvGWl/vlYTdJ242iVnAfffrxF0SdS1h03X5LUlf7KFLXUUJbq3/zalL2IibZ3nzGDeJfWLOz0ubSjaJWnrkcMzNY1Rd/m8sak0q0YZZxjNYTkVqObpO2Ig7bipLm8Qs3r77uO7WJjELWve1hA3rfBJVa2Kp1c+TtJNfhTWh9glb4r7jqf9svPxYJ/I+USPumsLOk4tn7T0MhQy1tRmbNfUX7311tQ9xcxJxz/MnV7f8/plVn7hrCtsz9h6EXKpiqll73YzNMwQdr12WI4/+68QpUSNsLgYK4tXSI4e1hJ0nFs/WJYVumdbiqUgUdIzzwdS6ZUbpWRa1xE342VtvKYq7lrDzpOJTkS1F3FUsn6ly35V3X+mlGftLtz13ZJaOolb8hkdODDrHRuRRxF3xr97z69eJu4awM3OfY+9LWamePHvU/uVR62kJuC9kdivN0KRpPd0l5pzOujsuR8YWtn95TOIb83bKb0X6RNz1vLSp3FTUEnncVI4tbH8rMqaSC3XnHfrYX/fxE3qXaIemx03luvW0BLwuZKCw7h5T2P66ryC8sZPyRnLM4z++xx4q3r58rLt3FXUUPOvusVjnycMbxrFIp3rza3LMTQ2nHH2iHfo8CnOXOH9UnJDs7RaW8c/u/Bc0e0M7rKIIf+yz1X2Jexcxq+yYooZ83KCPzXVYTy8sV55Zxv6vuRDW0Jm5K5/EuW04dhf7r9THJjyw/tprQWbLLtEOSd9W0JQbiGTrbDX3LlsbuZSCtY//xHWIiEt5thW22h0zzPsW/ynYmLQH1D1Vh5SE25e2jbAHINg5y1QTxM6Gz7mCKV+hHOH1iTk+31TYtfqt9pKull8H386Um55NxD1U2GOffMQOr70Jj207PoDAlMdUQ48Dhwi7pqjBWvPYdEA3OksmkGee2j8sINq47CjF+4RdW9R5fwLDzNX3DRCYeq3Ydxy4Tti18U25N6nt68G318LHO+vE3SXsKcDnSWDMj8mm8G92bebX61TnsUOXIlN0gI/3pqC+Y5stfSCfT0zyjL2jq1sXjxvtGv9V3NaGuuBRAvlPmmr8GdlRC87eRXFHYZ/NUTfWEpu6ns+ktTwrTemWjgMRdu2Tj+y3j/cykQO7z/9tQO3jv4wLcU8t6rz/gFG20/cHQCDv/Jf8lyA+3jsAwQ410Z15lpQH+VkWs4j59Xvs2NS/ys5CSC06sfQNU0sb6Rb1cbA25Rlr7D8jawnUlF8+tsRhtrbkWYsfcmbr7P8da+nHqrmznsy/Jf6MnPcXU31eMFmnL6XhfDIw5w9/WvggbCm6mtzPJR3/5UG85DP8yYVXw4D8ep7jx/VL3izX0FCzbcSNJPFmDd3SsLn7tyWW+Reb84zm473563eth3Ncgy5pD7G2c5f8cI7Hf3n/4OO9hSp8TkKY40BdqCx3dzv/MpeXJ/Ebk9bj2fYl/LK6uwJmXIM2W3n2bl3IJfvkw5K+hZmxNHd3jdkuHpGVRHMIafiAL7sTcQ2zIXAIwh1i42w6xI6YgAmYgAmYgAmYgAmYgAmYgAmYgAmYgAmYgAmYgAmYgAmYgAmYgAmYgAmYgAmYgAmYgAmYgAmYgAmYgAmYgAmYgAmYgAmYgAmYgAmYgAmYgAmYgAmYgAmYgAmYgAmYgAmYgAmYgAmYgAmYgAmYgAmYgAmYgAkcFoHHHn9i9YY3vXX1oQ9f1Pu/fp5z3rtXb377ub35MoELP3rx6uvfvL633PdvvHn1vg9ecCbf2845b3Xf/Q+cuc/1DrmXf/hYut74lnfsVP8QG7bJA4shfdJXd2bal382z2PHE+9yDIEhjG2EgLCvvubazrrV5rdu+O7qne85/0w+BtG+hH3nL+5ePfjbR1537Vq/bN93iCAji6H10z/Rp8x0aD0Hny8Ke534Pv6pS04Je8wZO8Pcl7C3GYzZltr32wqbtxwDuLa9zbWHsBEQS4Uu0T7952dOiZo8JZEwIPSaZ5ZhdoyOMmMzc1APceXNA4lyMa0k7MuvuvpMeeqizthWjuNfyeacT/d9vsDgppt/+Lo2sSPafslln1/RNnlpH59LbGgXNjEPwqRcnrGVJn5MNvIfuzT5wIX2qTszJY0yPFc95MdWMSDcxP5Yrpm4hI2zjPYsSgzV66wkEsogQMrxHMAAI5STAq508pGfcpRXvjxLZWHT+azzedXS+Rok1Kc6cliyOefR/RBfWPdGAass7URfiOOv7OW5xBRnVPmAaMkDAwkurrHpA9IJyQc/6lablBd7Br/4Z6a0TT20S5xL/ROXMEPtl//NhUDSjAaQCFPG4iSAEL/y8oz8iE/5FAIdeNRNmsCRrjwKKU9ncZ87IQobUeQZjDKkl2xW/diALXQ0nU8butQueYf6giAkGrVBSDsSGffES/aSpoGBkCIn1Sebo19wx37lUUi6Zm21GwdOZkr79IfKK8z+D7FfZZsMgSixCmgEBfz4XHGcwfkSbJ4BUAIAZKmTyYe49Cx3QhQ2bcUZRTDzYFO6QvlEG5y4xIv6JYKhvmwi7NJARtQSNnUxMGVrDBFaPCEq1UV++iNyicx4HpmKRezf2CaDLPIotRntj2Wbi0dhY1wUJPcRfs4LiC5IANDMQB3qzAwAkHQG6bETuI+dRAdSHx0eL73esS3XzX22uZSHtE180YCNddEOg0Np0XalEeKjWHQNEuXTgFd52qA8PiN6bOYaKmzyibXqjCHtaaIaYn8s21w8dzzg1EGIFnAaxTFv30xJPZpx1nVgrJMysTMFV3YgCESVL2b9rgEW6++Cvw9fYFSyPbeJj1HYcTkU82YWLEvoC0LKIFLsFiOVzfexHkSrvlX+GFK3Bm2uR/mi/UprMix1vMQMwAgi5+1yHkeBpA5kpuW+BCCCj3HyxvqJ036pDg280rNscylPbivnib50DdJ1tsf6ojBivTEPcQSmiQER88YqDd7IiHL5PtoFC/o2t6X7WDbG9Zww2h/Tm4uXOh4hAhXncERG57x0MpeeK6QDAKg1GvVxX+oYZjmtM2MnUFeESz6WIGpDIW3Edb/SFWablZ7DTXzBn1J5CZFn0faYNwqDOPnic8WZUDQZZC7Kg++ahJRGfXGg57I8L70lmM0jxyH2q80mw1LHM0MALDqK8Tkv9+SLgiONTomdrHUwsHguEEqX4EudgC3kl02xU5Sm16fqjWG2OT6L8aG+SEwatNRB+3CIPg8VhgQsBoQM4lifbIu+yw7yxXTahaN8y0y5p4zW0uRTXZHjUPvVTnNhV8dzRhoFi+GlvMwOQACWLs3AcpYZDqB0gPIQMnDi7ALsKA46XcKmLnVArEPLHbWVw5LNOY/uh/hCXrhEG5jtsTOusbE9+qY24BBtjkJWnQgMu2N9GjzKA3PKiqk4Ubfy0GZmqjTlURgHB3mG2i+/Zh1q1ulzcmi+rnoov2sdXXUrfUj9Q/KoviHhkPqG5BnSFnmoa5/1DW3X+UzABEzABEzABEzABEzABEzABEzABEzABEzABEzABEzABEzABEzABEzABEzABEygJoGP/O7E6sGXXzv1BRzx0iV7Pvfk6eff+8fJM1/M6ZnKqS6lOzSBSQhkYX/h2ZOnhI5AETDPETTGSdi6l8HktbBFw2ETBLKwv/G3o7MxIpaQJWzKROMZDBZ2JOL45ASysBEv4uaSkG/79+mlCvdKiwOAOriPdU3umA1YNoEoRuKlSyKWsCViyCF6yhx/8RULe9lSasv7LGyJWFZqhuZewiYuMec0bx5FzuGkBPqErRkZI6OIFae8liqxrkmdcuMmEMVIPJ6K3P3S2dOOLGydmFBGFGNdSnNoApMQiGIkXrq0vNAsLUPJy0CI98qrNIcmYAImYAImYAImYAImYAImYAImYAImYAImYAImYAImYAImYAImYAImYAImYAImYAImYAImYAImYAImYAImYAImYAImUIvA/wDQ6dBjrpNdjQAAAABJRU5ErkJggg==;" parent="1" vertex="1">
          <mxGeometry x="-372" y="320" width="46.25" height="46" as="geometry" />
        </mxCell>
        <mxCell id="MFkD_TH9y4HgoGXGHOmQ-58" value="" style="shape=image;verticalLabelPosition=bottom;labelBackgroundColor=#ffffff;verticalAlign=top;aspect=fixed;imageAspect=0;image=https://developers.google.com/analytics/images/terms/logo_lockup_analytics_icon_vertical_black_2x.png;" parent="1" vertex="1">
          <mxGeometry x="-239" y="323" width="47.51" height="36" as="geometry" />
        </mxCell>
        <mxCell id="MFkD_TH9y4HgoGXGHOmQ-59" value="" style="shape=image;verticalLabelPosition=bottom;labelBackgroundColor=#ffffff;verticalAlign=top;aspect=fixed;imageAspect=0;image=https://www.customerly.io/dist/images/integrations/Live_chat_software_free_Facebook_Analytics_logo.png;" parent="1" vertex="1">
          <mxGeometry x="-311" y="326" width="66.22" height="30" as="geometry" />
        </mxCell>
        <mxCell id="MFkD_TH9y4HgoGXGHOmQ-60" value="" style="shape=image;verticalLabelPosition=bottom;labelBackgroundColor=#ffffff;verticalAlign=top;aspect=fixed;imageAspect=0;image=https://logos-download.com/wp-content/uploads/2016/09/Mixpanel_logo.png;" parent="1" vertex="1">
          <mxGeometry x="-162.40999999999997" y="334.48" width="39.62" height="13.03" as="geometry" />
        </mxCell>
        <mxCell id="MFkD_TH9y4HgoGXGHOmQ-61" style="edgeStyle=orthogonalEdgeStyle;rounded=0;orthogonalLoop=1;jettySize=auto;html=1;entryX=0.5;entryY=1;entryDx=0;entryDy=0;strokeColor=#6c8ebf;strokeWidth=1;fontSize=8;fontColor=#000000;fillColor=#dae8fc;" parent="1" source="MFkD_TH9y4HgoGXGHOmQ-62" target="MFkD_TH9y4HgoGXGHOmQ-23" edge="1">
          <mxGeometry relative="1" as="geometry" />
        </mxCell>
        <mxCell id="MFkD_TH9y4HgoGXGHOmQ-62" value="" style="shape=image;verticalLabelPosition=bottom;labelBackgroundColor=#ffffff;verticalAlign=top;aspect=fixed;imageAspect=0;image=data:image/png,iVBORw0KGgoAAAANSUhEUgAAALYAAAC1CAYAAADyZAWqAAAQFUlEQVR4Ae2c3ctuRRnG9z/SWXRQBEUH4olEBEEJURCehORBkURUWIgnoemJhZRURIZGERSKUhlKkVoJaqamsC3TQs2PPqwMMQz3lid+e3ftfb+3s561no81a561rg2LmTVrPu77N9fMmplnvfvYMf8zARMwARMwARMwARMwARMwARMwARMwARMwARMwARMwARMwARMwARMwARMwARMwARMwARMwARMwARMwARMwAROoQeADtx9fvf/Hj6zOv/nhg77wAV9qMHMbjRO49DdPnxLzRb984qBFzaCUD/jUOHabNyaB4y++ckTMzHaHOmtn2/FtTHauu2ECmuEk5q88+peDFXa2Hd8aRm/TxiJw45P/PCLiOQghD1R8HIuf622UQH513/v3lw9eBPigtw+hN5KNim8ss/Jre06bLW2GJXB8HYuj622MQDzaI96YeTubM3f/dgY0xwryOnSOM9qc30hz1OTOPi1pDTrHPcTOAphrBbmzf/r8v2e3DFHf4ZvW2d5IisoMwzke7/V1U152+fivj9gBPo8bKmawJfwyl39ZneNG+QCluD+Tl7yZ8vHf/nTUXE1xrbnEWSu/rZrrIBu0OYG8zrz+8Rdmu2HsopPfWDDpyuv0AyCwpOO9vu7IJ0Jz+ISgz+fZPndnnu1aD/KzLA46xpIjrq39+j12zMuyg5b0aeNb2zB9+/5XV9c984fJ17ZxsC9xI33Q0r7y4WePzNbcT+nQ1Xf9d3XxTa+sPnH87tXlTzw0qS2tsZmyXw6q7ZZ+lHj8xddWV/3stKgl7BbEnd9mS/ix6qBEXDI2ryOn+hkZUSPmeCHqeD300jR/4bLEzwtKWjmYtFY+/LnnqZNHBC1xR1ErfvsLz02yNMknRnP+IOxgBNxlaO6sKc5q2SRKyDmUmHM4xabSx39dKmosvYVf1+J6Ooua+yzoeD/FpjIv22DYWLfanLghqn2MlTeJJVH3CRuRTyFuH/81PHam/IKtaz1dEnecodfFa24q85tuTn/Y3LBk+02bcq24iaiHzNhR7DU3lS3sTfp7emE58jqx1vHeuk1iabbeVNiIvNam0sd/jQ2aqTqkb5O4L2Ej7lrr7qkmiMYk1YY5tV+hQzeJ+xR2LXFPuaRrQ02NWFF707Pperok7riG3iY+9qZyyk14I7Ka3oyax1Q/+WP5l8SSeNelbSPmXGbsTeWUx6bTq2piC/J6cMwfFrbZJHaJO4t02/sxN5X5TQjribt7Gc3XXAvecNdfO38e7xJvVzqfrrIR3FbMudw1D/5qNMHV3rssQ7k9XmboY368c+l1D6y4usQ6NJ1Zn/UxF7NtFumm9xfedP3qgu98bTRht/IxWY8U5vO49vEeon7vZXesPvbl+7YW961/OnFG1BI36+RNxaz877r2itW5V35mVGGjmLzcq/X7wHzUuoEncWPD5nHsD+QlbMTNten5NTOfxJzDTcX96ft/fkrQiLqGsFv6g40NJHJ4Waf4k6YsbMR9xQ8e6529GQDsBbKY8z3iHrLu/uSdPzoi6hrCRiGZ+Zib9MNT5B4szhvGWl/vlYTdJ242iVnAfffrxF0SdS1h03X5LUlf7KFLXUUJbq3/zalL2IibZ3nzGDeJfWLOz0ubSjaJWnrkcMzNY1Rd/m8sak0q0YZZxjNYTkVqObpO2Ig7bipLm8Qs3r77uO7WJjELWve1hA3rfBJVa2Kp1c+TtJNfhTWh9glb4r7jqf9svPxYJ/I+USPumsLOk4tn7T0MhQy1tRmbNfUX7311tQ9xcxJxz/MnV7f8/plVn7hrCtsz9h6EXKpiqll73YzNMwQdr12WI4/+68QpUSNsLgYK4tXSI4e1hJ0nFs/WJYVumdbiqUgUdIzzwdS6ZUbpWRa1xE342VtvKYq7lrDzpOJTkS1F3FUsn6ly35V3X+mlGftLtz13ZJaOolb8hkdODDrHRuRRxF3xr97z69eJu4awM3OfY+9LWamePHvU/uVR62kJuC9kdivN0KRpPd0l5pzOujsuR8YWtn95TOIb83bKb0X6RNz1vLSp3FTUEnncVI4tbH8rMqaSC3XnHfrYX/fxE3qXaIemx03luvW0BLwuZKCw7h5T2P66ryC8sZPyRnLM4z++xx4q3r58rLt3FXUUPOvusVjnycMbxrFIp3rza3LMTQ2nHH2iHfo8CnOXOH9UnJDs7RaW8c/u/Bc0e0M7rKIIf+yz1X2Jexcxq+yYooZ83KCPzXVYTy8sV55Zxv6vuRDW0Jm5K5/EuW04dhf7r9THJjyw/tprQWbLLtEOSd9W0JQbiGTrbDX3LlsbuZSCtY//xHWIiEt5thW22h0zzPsW/ynYmLQH1D1Vh5SE25e2jbAHINg5y1QTxM6Gz7mCKV+hHOH1iTk+31TYtfqt9pKull8H386Um55NxD1U2GOffMQOr70Jj207PoDAlMdUQ48Dhwi7pqjBWvPYdEA3OksmkGee2j8sINq47CjF+4RdW9R5fwLDzNX3DRCYeq3Ydxy4Tti18U25N6nt68G318LHO+vE3SXsKcDnSWDMj8mm8G92bebX61TnsUOXIlN0gI/3pqC+Y5stfSCfT0zyjL2jq1sXjxvtGv9V3NaGuuBRAvlPmmr8GdlRC87eRXFHYZ/NUTfWEpu6ns+ktTwrTemWjgMRdu2Tj+y3j/cykQO7z/9tQO3jv4wLcU8t6rz/gFG20/cHQCDv/Jf8lyA+3jsAwQ410Z15lpQH+VkWs4j59Xvs2NS/ys5CSC06sfQNU0sb6Rb1cbA25Rlr7D8jawnUlF8+tsRhtrbkWYsfcmbr7P8da+nHqrmznsy/Jf6MnPcXU31eMFmnL6XhfDIw5w9/WvggbCm6mtzPJR3/5UG85DP8yYVXw4D8ep7jx/VL3izX0FCzbcSNJPFmDd3SsLn7tyWW+Reb84zm473563eth3Ncgy5pD7G2c5f8cI7Hf3n/4OO9hSp8TkKY40BdqCx3dzv/MpeXJ/Ebk9bj2fYl/LK6uwJmXIM2W3n2bl3IJfvkw5K+hZmxNHd3jdkuHpGVRHMIafiAL7sTcQ2zIXAIwh1i42w6xI6YgAmYgAmYgAmYgAmYgAmYgAmYgAmYgAmYgAmYgAmYgAmYgAmYgAmYgAmYgAmYgAmYgAmYgAmYgAmYgAmYgAmYgAmYgAmYgAmYgAmYgAmYgAmYgAmYgAmYgAmYgAmYgAmYgAmYgAmYgAmYgAmYgAmYgAmYgAkcFoHHHn9i9YY3vXX1oQ9f1Pu/fp5z3rtXb377ub35MoELP3rx6uvfvL633PdvvHn1vg9ecCbf2845b3Xf/Q+cuc/1DrmXf/hYut74lnfsVP8QG7bJA4shfdJXd2bal382z2PHE+9yDIEhjG2EgLCvvubazrrV5rdu+O7qne85/0w+BtG+hH3nL+5ePfjbR1537Vq/bN93iCAji6H10z/Rp8x0aD0Hny8Ke534Pv6pS04Je8wZO8Pcl7C3GYzZltr32wqbtxwDuLa9zbWHsBEQS4Uu0T7952dOiZo8JZEwIPSaZ5ZhdoyOMmMzc1APceXNA4lyMa0k7MuvuvpMeeqizthWjuNfyeacT/d9vsDgppt/+Lo2sSPafslln1/RNnlpH59LbGgXNjEPwqRcnrGVJn5MNvIfuzT5wIX2qTszJY0yPFc95MdWMSDcxP5Yrpm4hI2zjPYsSgzV66wkEsogQMrxHMAAI5STAq508pGfcpRXvjxLZWHT+azzedXS+Rok1Kc6cliyOefR/RBfWPdGAass7URfiOOv7OW5xBRnVPmAaMkDAwkurrHpA9IJyQc/6lablBd7Br/4Z6a0TT20S5xL/ROXMEPtl//NhUDSjAaQCFPG4iSAEL/y8oz8iE/5FAIdeNRNmsCRrjwKKU9ncZ87IQobUeQZjDKkl2xW/diALXQ0nU8butQueYf6giAkGrVBSDsSGffES/aSpoGBkCIn1Sebo19wx37lUUi6Zm21GwdOZkr79IfKK8z+D7FfZZsMgSixCmgEBfz4XHGcwfkSbJ4BUAIAZKmTyYe49Cx3QhQ2bcUZRTDzYFO6QvlEG5y4xIv6JYKhvmwi7NJARtQSNnUxMGVrDBFaPCEq1UV++iNyicx4HpmKRezf2CaDLPIotRntj2Wbi0dhY1wUJPcRfs4LiC5IANDMQB3qzAwAkHQG6bETuI+dRAdSHx0eL73esS3XzX22uZSHtE180YCNddEOg0Np0XalEeKjWHQNEuXTgFd52qA8PiN6bOYaKmzyibXqjCHtaaIaYn8s21w8dzzg1EGIFnAaxTFv30xJPZpx1nVgrJMysTMFV3YgCESVL2b9rgEW6++Cvw9fYFSyPbeJj1HYcTkU82YWLEvoC0LKIFLsFiOVzfexHkSrvlX+GFK3Bm2uR/mi/UprMix1vMQMwAgi5+1yHkeBpA5kpuW+BCCCj3HyxvqJ036pDg280rNscylPbivnib50DdJ1tsf6ojBivTEPcQSmiQER88YqDd7IiHL5PtoFC/o2t6X7WDbG9Zww2h/Tm4uXOh4hAhXncERG57x0MpeeK6QDAKg1GvVxX+oYZjmtM2MnUFeESz6WIGpDIW3Edb/SFWablZ7DTXzBn1J5CZFn0faYNwqDOPnic8WZUDQZZC7Kg++ahJRGfXGg57I8L70lmM0jxyH2q80mw1LHM0MALDqK8Tkv9+SLgiONTomdrHUwsHguEEqX4EudgC3kl02xU5Sm16fqjWG2OT6L8aG+SEwatNRB+3CIPg8VhgQsBoQM4lifbIu+yw7yxXTahaN8y0y5p4zW0uRTXZHjUPvVTnNhV8dzRhoFi+GlvMwOQACWLs3AcpYZDqB0gPIQMnDi7ALsKA46XcKmLnVArEPLHbWVw5LNOY/uh/hCXrhEG5jtsTOusbE9+qY24BBtjkJWnQgMu2N9GjzKA3PKiqk4Ubfy0GZmqjTlURgHB3mG2i+/Zh1q1ulzcmi+rnoov2sdXXUrfUj9Q/KoviHhkPqG5BnSFnmoa5/1DW3X+UzABEzABEzABEzABEzABEzABEzABEzABEzABEzABEzABEzABEzABEzABEzABEygJoGP/O7E6sGXXzv1BRzx0iV7Pvfk6eff+8fJM1/M6ZnKqS6lOzSBSQhkYX/h2ZOnhI5AETDPETTGSdi6l8HktbBFw2ETBLKwv/G3o7MxIpaQJWzKROMZDBZ2JOL45ASysBEv4uaSkG/79+mlCvdKiwOAOriPdU3umA1YNoEoRuKlSyKWsCViyCF6yhx/8RULe9lSasv7LGyJWFZqhuZewiYuMec0bx5FzuGkBPqErRkZI6OIFae8liqxrkmdcuMmEMVIPJ6K3P3S2dOOLGydmFBGFGNdSnNoApMQiGIkXrq0vNAsLUPJy0CI98qrNIcmYAImYAImYAImYAImYAImYAImYAImYAImYAImYAImYAImYAImYAImYAImYAImYAImYAImYAImYAImYAImYAImYAImUIvA/wDQ6dBjrpNdjQAAAABJRU5ErkJggg==;" parent="1" vertex="1">
          <mxGeometry x="-610.13" y="400" width="46.25" height="46" as="geometry" />
        </mxCell>
        <mxCell id="MFkD_TH9y4HgoGXGHOmQ-70" value="&lt;font color=&quot;#0066cc&quot;&gt;Jazz ID Management System&lt;/font&gt;" style="text;html=1;strokeColor=none;fillColor=none;align=center;verticalAlign=middle;whiteSpace=wrap;rounded=0;dashed=1;labelBackgroundColor=none;fontSize=6;fontColor=#000000;" parent="1" vertex="1">
          <mxGeometry x="-604.65" y="265" width="40" height="20" as="geometry" />
        </mxCell>
        <mxCell id="MFkD_TH9y4HgoGXGHOmQ-79" value="" style="rounded=1;whiteSpace=wrap;html=1;dashed=1;labelBackgroundColor=none;strokeColor=#9673a6;fillColor=#e1d5e7;fontSize=10;align=left;" parent="1" vertex="1">
          <mxGeometry x="-359" y="160" width="264.43" height="56" as="geometry" />
        </mxCell>
        <mxCell id="MFkD_TH9y4HgoGXGHOmQ-80" value="c" style="group" parent="1" vertex="1" connectable="0">
          <mxGeometry x="-339.26" y="183.48000000000002" width="62" height="30" as="geometry" />
        </mxCell>
        <mxCell id="MFkD_TH9y4HgoGXGHOmQ-81" value="" style="aspect=fixed;perimeter=ellipsePerimeter;html=1;align=center;shadow=0;dashed=0;fontColor=#4277BB;labelBackgroundColor=#ffffff;fontSize=12;spacingTop=3;image;image=img/lib/ibm/miscellaneous/microservices_application.svg;" parent="MFkD_TH9y4HgoGXGHOmQ-80" vertex="1">
          <mxGeometry width="29.268292682926827" height="29.268292682926827" as="geometry" />
        </mxCell>
        <mxCell id="MFkD_TH9y4HgoGXGHOmQ-82" value="" style="aspect=fixed;perimeter=ellipsePerimeter;html=1;align=center;shadow=0;dashed=0;fontColor=#4277BB;labelBackgroundColor=#ffffff;fontSize=12;spacingTop=3;image;image=img/lib/ibm/miscellaneous/microservices_application.svg;" parent="MFkD_TH9y4HgoGXGHOmQ-80" vertex="1">
          <mxGeometry x="25.486486486486488" y="0.7317073170731707" width="29.268292682926827" height="29.268292682926827" as="geometry" />
        </mxCell>
        <mxCell id="MFkD_TH9y4HgoGXGHOmQ-83" value="c" style="group" parent="1" vertex="1" connectable="0">
          <mxGeometry x="-249" y="184" width="62" height="30" as="geometry" />
        </mxCell>
        <mxCell id="MFkD_TH9y4HgoGXGHOmQ-84" value="" style="aspect=fixed;perimeter=ellipsePerimeter;html=1;align=center;shadow=0;dashed=0;fontColor=#4277BB;labelBackgroundColor=#ffffff;fontSize=12;spacingTop=3;image;image=img/lib/ibm/miscellaneous/microservices_application.svg;" parent="MFkD_TH9y4HgoGXGHOmQ-83" vertex="1">
          <mxGeometry width="29.268292682926827" height="29.268292682926827" as="geometry" />
        </mxCell>
        <mxCell id="MFkD_TH9y4HgoGXGHOmQ-85" value="" style="aspect=fixed;perimeter=ellipsePerimeter;html=1;align=center;shadow=0;dashed=0;fontColor=#4277BB;labelBackgroundColor=#ffffff;fontSize=12;spacingTop=3;image;image=img/lib/ibm/miscellaneous/microservices_application.svg;" parent="MFkD_TH9y4HgoGXGHOmQ-83" vertex="1">
          <mxGeometry x="25.486486486486488" y="0.7317073170731707" width="29.268292682926827" height="29.268292682926827" as="geometry" />
        </mxCell>
        <mxCell id="MFkD_TH9y4HgoGXGHOmQ-86" value="c" style="group" parent="1" vertex="1" connectable="0">
          <mxGeometry x="-159" y="184" width="62" height="30" as="geometry" />
        </mxCell>
        <mxCell id="MFkD_TH9y4HgoGXGHOmQ-87" value="" style="aspect=fixed;perimeter=ellipsePerimeter;html=1;align=center;shadow=0;dashed=0;fontColor=#4277BB;labelBackgroundColor=#ffffff;fontSize=12;spacingTop=3;image;image=img/lib/ibm/miscellaneous/microservices_application.svg;" parent="MFkD_TH9y4HgoGXGHOmQ-86" vertex="1">
          <mxGeometry width="29.268292682926827" height="29.268292682926827" as="geometry" />
        </mxCell>
        <mxCell id="MFkD_TH9y4HgoGXGHOmQ-88" value="" style="aspect=fixed;perimeter=ellipsePerimeter;html=1;align=center;shadow=0;dashed=0;fontColor=#4277BB;labelBackgroundColor=#ffffff;fontSize=12;spacingTop=3;image;image=img/lib/ibm/miscellaneous/microservices_application.svg;" parent="MFkD_TH9y4HgoGXGHOmQ-86" vertex="1">
          <mxGeometry x="25.486486486486488" y="0.7317073170731707" width="29.268292682926827" height="29.268292682926827" as="geometry" />
        </mxCell>
        <mxCell id="MFkD_TH9y4HgoGXGHOmQ-89" value="Mobile Wallet Microservices" style="text;html=1;strokeColor=none;fillColor=none;align=center;verticalAlign=middle;whiteSpace=wrap;rounded=0;dashed=1;labelBackgroundColor=none;fontSize=6;fontColor=#666666;" parent="1" vertex="1">
          <mxGeometry x="-334" y="161" width="40" height="20" as="geometry" />
        </mxCell>
        <mxCell id="MFkD_TH9y4HgoGXGHOmQ-90" value="Management Microservices" style="text;html=1;strokeColor=none;fillColor=none;align=center;verticalAlign=middle;whiteSpace=wrap;rounded=0;dashed=1;labelBackgroundColor=none;fontSize=6;fontColor=#666666;" parent="1" vertex="1">
          <mxGeometry x="-238" y="160.5" width="40" height="20" as="geometry" />
        </mxCell>
        <mxCell id="MFkD_TH9y4HgoGXGHOmQ-91" value="Partner Microservices" style="text;html=1;strokeColor=none;fillColor=none;align=center;verticalAlign=middle;whiteSpace=wrap;rounded=0;dashed=1;labelBackgroundColor=none;fontSize=6;fontColor=#666666;" parent="1" vertex="1">
          <mxGeometry x="-148" y="161" width="40" height="20" as="geometry" />
        </mxCell>
        <mxCell id="nwB4_m3L2SUhbiX_EwjS-1" value="" style="rounded=1;whiteSpace=wrap;html=1;fillColor=#f5f5f5;strokeColor=#B3B3B3;fontColor=#333333;" parent="1" vertex="1">
          <mxGeometry x="-539" y="100" width="100" height="350" as="geometry" />
        </mxCell>
        <mxCell id="nwB4_m3L2SUhbiX_EwjS-2" value="API Gateway" style="shape=image;verticalLabelPosition=bottom;labelBackgroundColor=none;verticalAlign=top;aspect=fixed;imageAspect=0;image=https://miro.medium.com/max/1200/1*VzzFQbU7ym_lU_gBJdL09Q.png;fontSize=6;" parent="1" vertex="1">
          <mxGeometry x="-624.6500000000001" y="154" width="80" height="45.23" as="geometry" />
        </mxCell>
        <mxCell id="nwB4_m3L2SUhbiX_EwjS-3" value="" style="endArrow=classic;startArrow=classic;html=1;strokeColor=#b85450;strokeWidth=1;fontSize=8;fontColor=#000000;fillColor=#f8cecc;dashed=1;entryX=0;entryY=0.5;entryDx=0;entryDy=0;" parent="1" target="MFkD_TH9y4HgoGXGHOmQ-43" edge="1">
          <mxGeometry width="50" height="50" relative="1" as="geometry">
            <mxPoint x="-577" y="170" as="sourcePoint" />
            <mxPoint x="-454.9999999999998" y="194.58491124260365" as="targetPoint" />
            <Array as="points">
              <mxPoint x="-577" y="146" />
            </Array>
          </mxGeometry>
        </mxCell>
        <mxCell id="nwB4_m3L2SUhbiX_EwjS-4" value="Enterprise Bus" style="shape=image;verticalLabelPosition=bottom;labelBackgroundColor=none;verticalAlign=top;aspect=fixed;imageAspect=0;image=https://images.g2crowd.com/uploads/product/image/social_landscape/social_landscape_710808d064d889ee6afa578aaaf1b080/wso2-integration.png;fontSize=6;" parent="1" vertex="1">
          <mxGeometry x="-537.38" y="161.82" width="98.38" height="51.66" as="geometry" />
        </mxCell>
        <mxCell id="nwB4_m3L2SUhbiX_EwjS-5" value="&lt;font style=&quot;font-size: 8px&quot;&gt;Insurance&lt;/font&gt;" style="rounded=0;whiteSpace=wrap;html=1;fontSize=8;fillColor=#fff2cc;strokeColor=#d6b656;" parent="1" vertex="1">
          <mxGeometry x="-539" y="296" width="44" height="30" as="geometry" />
        </mxCell>
        <mxCell id="nwB4_m3L2SUhbiX_EwjS-6" value="&lt;span style=&quot;font-size: 8px&quot;&gt;&lt;font style=&quot;font-size: 8px&quot;&gt;Loyalty&amp;nbsp;&lt;/font&gt;&lt;/span&gt;" style="rounded=0;whiteSpace=wrap;html=1;fontSize=8;fillColor=#fff2cc;strokeColor=#d6b656;" parent="1" vertex="1">
          <mxGeometry x="-491" y="296" width="37.5" height="30" as="geometry" />
        </mxCell>
        <mxCell id="nwB4_m3L2SUhbiX_EwjS-7" value="&lt;span style=&quot;font-size: 8px&quot;&gt;&lt;font style=&quot;font-size: 8px&quot;&gt;Lending&lt;/font&gt;&lt;/span&gt;" style="rounded=0;whiteSpace=wrap;html=1;fontSize=8;fillColor=#fff2cc;strokeColor=#d6b656;" parent="1" vertex="1">
          <mxGeometry x="-535.75" y="368" width="37.5" height="36" as="geometry" />
        </mxCell>
        <mxCell id="nwB4_m3L2SUhbiX_EwjS-8" value="Mobile Wallet (CPS)" style="rounded=0;whiteSpace=wrap;html=1;fontSize=8;fillColor=#fff2cc;strokeColor=#d6b656;" parent="1" vertex="1">
          <mxGeometry x="-491" y="330" width="48.5" height="36" as="geometry" />
        </mxCell>
        <mxCell id="zASXWuwOFtAYf3o6rH9Y-3" value="Revers Proxy" style="shape=image;verticalLabelPosition=bottom;labelBackgroundColor=#ffffff;verticalAlign=top;aspect=fixed;imageAspect=0;image=data:image/png,iVBORw0KGgoAAAANSUhEUgAABoIAAAaCCAYAAAABZu+EAAAACXBIWXMAAAsSAAALEgHS3X78AAAgAElEQVR42uzdv4ojZ9rwYR1CH0IfQiUST2WdbC58AEa5E2WTKnA+glFV5AWBIztSYiYzwkxmMHK2YDBKjBMHjR05mu27ZnvW86enu9VS6amq64IfH3zB7rt2d6tU91N1j0YAAAAAAAAAAAAAAAAAAAAAAAAAAAAAAAAAAAAAAAAAAAAAAAAAAAAAAAAAAAAAAAAAAAAAAAAAAAAAAAAAAAAAAAAAAAAAAAAAAAAAAAAAAAAAAAAAAAAAAAAAAAAAAAAAAAAAAAAAAAAAAAAAAAAAAAAAAAAAAAAAAAAAAAAAAAAAAAAAAAAAAAAAAAAAAAAAAAAAAAAAAAAAAAAAAAAAAAAAAAAAAAAAAAAAAAAAAAAAAAAAAAAAAAAAAAAAAAAAAAAAAAAAAAAAAAAAAAAAAAAAAAAAAAAAAAAAAAAAAAAAAAAAAAAAAAAAAAAAAAAAAAAAAAAAAAAAAAAAAAAAAAAAAAAAAAAAAAAAAAAAAAAAAAAAAAAAAAAAAAAAAAAAAAAAAAAAAAAAAAAAAAAAAAAAAAAAAAAAAAAAAAAAAAAAAAAAAAAAAAAAAAAAAAAAAAAAAAAAAAAAAAAAAAAAAAAAAAAAAAAAAAAAAAAAAAAAAAAAAAAAAAAAAAAAAAAAAAAAAAAAAAAAAAAAAAAAAAAAAAAAAAAAAAAAAAAAAAAAAAAAAAAAAAAAAAAAAAAAAAAAAAAAAAAAAAAAAAAAAAAAAAAAAAAAAAAAAAAAAAAAAAAAAAAAAAAAAAAAAAAAAAAAAAAAAAAAAAAAAAAAAAAAAAAAAAAAAAAAAAAAAAAAAAAAAAAAAAAAAAAAAAAAAAAAAAAAAAAAAAAAAAAAAAAAAAAAAAAAAAAAAAAAAAAAAAAAAAAAAAAAAAAAAAAAAAAAAAAAAAAAAAAAAAAAAAAAAAAAAAAAAAAAAAAAAAAAAAAAAAAAAAAAAAAAAAAAAAAAAAAAAAAAAADnU42LUZVmNy1GVbm5+X+3byr3o7p8ParT9f///5oWo1U5H71IV/7hAQAAAAAA5OR5cfFm8FNumiFPM+x5QjEcisHQ83TpHy4AAAAAAMA5xKCmTusnD37uGwrFkAkAAAAAAIAWtDEA+mAgVO69Og4AAAAAAOBU3rwCbtHqAOhjTwh5ZRwAAAAAAMARvdkBtD/rEOjdJ4SWzWAKAAAAAACAA8Xr2OIpnFwGQO+Uru0PAgAAAAAAeKxz7AE6fCC0sz8IAAAAAADgIZo9QOm6G0Ogd14Xt7E/CAAAAAAA4GPqyTSrPUAHD4TSwv4gAAAAAACAUI2LfPcAHfx00N7+IAAAAAAAYLjiqZnO7AE6+Omgrf1BAAAAAADAsKzKeSf3AB1cWtsfBAAAAAAA9Fs8HdOHPUCHDYOum/1BAAAAAAAAvRJPw/RtD9BT9gfVk6kfCgAAAAAAoNtiD1BVLg2A7tgfVI0LPyQAAAAAAED3VGk2rD1ABz8htGwGZgAAAAAAANmLPUB12hnyPHJ/0Kqc++EBAAAAAADy1OwBKjeGOk/cHxSDNAAAAAAAgCw0e4DSwmvgjrw/KAZrAAAAAAAAZxN7gOIpFsObUw2EFvYHAQAAAAAA7YrXl8VTK4Y17ewPioEbAAAAAADAScXTKXVaG86cZSC0sz8IAAAAAAA4DXuAMnldXLmxPwgAAAAAADiOejK1ByjL18XZHwQAAAAAAByoGhf2AGX/dNDe/iAAAAAAAODh4imTqlwatHRpIJS29gcBAAAAAACftirn9gB1+pVxa6+LAwAAAAAA3hVPk9gD1K/9QQAAAAAAwMA9T5ejqtwYnvR0f1A9mfohBwAAAACAoWn2AKWFgclA9gfFwA8AAAAAABiAKs3sARrkE0JL+4MAAAAAAKCvYg9QnXaGIgPfH7Qq534ZAAAAAACgL+K1YHVaG4Lonf1BMRgEAAAAAAA66u0eIK+B050DoY39QQAAAAAA0DWxByie+jDs0IMGQmlhfxAAAAAAAOSuGhejKm0NN3TQ/qAYIAIAAAAAAJmJpznsAdJxBkI7+4MAAAAAACAX9gDpNAOhtf1BAAAAAABwLvVkag+QWnhdnP1BAAAAAADQmnhKwx4gtVkMHO0PAgAAAACAE4qnMqpyaTCh8w2E0nZUjQu/jAAAAAAAcEyrcm4PkPLaH+R1cQAAAAAA8DQv0tWoTjuDB2W7PwgAAAAAAHikZg9QuTFsUCf2B8XAEgAAAAAAuEezBygtDBjUyf1BMcAEAAAAAAA+okoze4DUgyeElvYHAQAAAADArXitVjxNYYigPu0PWpVzv9wAAAAAAAxXvEarTmtDA/V4ILSzPwgAAAAAgGF5uwfIa+A0mNfFbewPAgAAAACg/+rJdFSVe8MBDXMglBb2BwEAAAAA0D/VuLAHSPrf/qAqzfxRAAAAAACg++LpB3uApI89HbS1PwgAAAAAgO6yB0h6yBNCa/uDAAAAAADojnjKwR4g6bGvi1v44wEAAAAAQL7iqQZ7gKQnvC4uBqiTqT8mAAAAAADkI/YAVeXSjXzpiPuDqnHhjwsAAAAAAOdVpZk9QNIp9wcVF/7QAAAAAADQrtgDVKedG/VSC/uDVuXcHx0AAAAAAE6v2QNUbtycl86wPygGsAAAAAAAcHTNHqC0cENeymB/UAxkAQAAAADgKGIPUDyN4Ca8lNMTQkv7gwAAAAAAOFy8hiqePnDTXcp3f1AMagEAAAAA4MHitVN1WrvJLnVmILSzPwgAAAAAgPs1e4DStRvrUidfF7exPwgAAAAAgA/Vk6k9QFJfBkJpYX8QAAAAAACjUTUu7AGSevl00N7+IAAAAACAoYqnBewBkobwdNDW/iAAAAAAgCFZlXN7gKShldZeFwcAAAAA0GfxVIA9QNKQh0HXzf4gAAAAAAB65Hm6tAdI0jv7g+rJ1B9HAAAAAIAui9dAxel/N74l3bU/qBoX/lgCAAAAAHRNlWb2AEl64BNCS/uDAAAAAAC6IPYA1Wnn5rakR+8PWpVzf0QBAAAAAHLU7AEqN25mS3ry/qAYKAMAAAAAkIG3e4C8Bk7SkfcHxYAZAAAAAIAziT1AcXrfTWtJpxsILewPAgAAAABoU7y2KU7ru0ktqa39QTF4BgAAAADghOJUfp3WbkpLOtNAaGd/EAAAAADAKdgDJCmb18WVG/uDAAAAAACOoZ5M7QGSlOnr4uwPAgAAAAA4SJy2twdIUv5PB+3tDwIAAAAAeKg4XV+VSzeYJXVrIJS2o2pc+CMOAAAAAHCXVTm3B0hSx18Zt/a6OAAAAACAf3qRruwBktS7/UEAAAAAAIPW7AEqN24aS+rt/qB6MvXHHgAAAAAYlmYPUFq4USxpMPuDYvANAAAAANB7VZrZAyRpoE8ILe0PAgAAAAD6KfYA1WnnZrCkwe8PWpVzHwoAAAAAQD/E65DqtHbzV5Le2x8UA3IAAAAAgE56uwfIa+Ak6RMDoY39QQAAAABAt8QeoDjt7iavJD1wIJQW9gcBAAAAAHmrxsWoSls3dSXpwP1BMUgHAAAAAMhKnGK3B0iSjjUQ2tkfBAAAAADkwR4gSTrVQGhtfxAAAAAAcB5xWt0eIElq43Vx9gcBAAAAAC2J0+n2AElSuzWD98nUhxAAAAAAcBpxGr0ql27IStI5B0JpO6rGhQ8lAAAAAOB4VuXcHiBJym1/kNfFAQAAAABPEXuA6rRzw1WSMt4fBAAAAADwKM0eoHLjJqskdWR/UAzuAQAAAAA+qdkDlBZurEpSR/cHxSAfAAAAAOADVZrZAyRJvXhCaGl/EAAAAADwRrxOKE6Ru3kqSf3aH7Qq5z7kAAAAAGCo4vVBdVq7WSpJvR4I7ewPAgAAAIAhebsHyGvgJGlAr4vb2B8EAAAAAH1XT6ajqty7KSpJQx0IpYX9QQAAAADQN9W4sAdIkvS/p4P2N58JMx+OAAAAANB1cerbHiBJ0sefDtraHwQAAAAAXbUq5/YASZLuL63tDwIAAACArojT3fYASZIeNwy6bvYHAQAAAACZitPc9gBJkp66P6ieTH2oAgAAAEAuYg9QVS7dwJQkHXV/UDUufMgCAAAAwDlVaWYPkCTptPuDigsfuAAAAADQptgDVKedG5SSpFb2B63KuQ9fAAAAADi1Zg9QuXFTUpJ0lv1BcRABAAAAADiyZg9QWrgRKUnKYn9QHEwAAAAAAI4g9gDFKWw3HyVJeT0htLQ/CAAAAAAOFa/fiVPXbjZKknLeHxQHFgAAAACAB4rX7dRp7eaiJKlDA6Gd/UEAAAAAcJ9mD1C6dkNRktTR18Vt7A8CAAAAgPfVk6k9QJKkHr0ubmF/EAAAAABU48IeIElST58O2tsfBAAAAMAwxSnpqly6UShJ6v9AKG3tDwIAAABgOFbl3B4gSdIAXxm39ro4AAAAAPorTkPbAyRJsj9o4aIAAAAAgP54ni7tAZIk6b39QfVk6iIBAAAAgO5q9gClhRt+kiR9Yn9QNS5cNAAAAADQLVWa2QMkSdKDnxBa2h8EAAAAQP5iD1Cddm7qSZJ0wP6gVTl3MQEAAABAfpo9QOXGTTxJko6wPygOVgAAAADA2b3dA+Q1cJIkHX1/UBy0AAAAAICziD1AcWrZzTpJkk45EFrYHwQAAABAe6px0ZxSdnNOkqT29gfFAQwAAAAAOJk4jVyntZtxkiSdbSC0sz8IAAAAgOOzB0iSpJwGQmv7gwAAAAB4unoytQdIkqRsXxdnfxAAAAAAB4hTxvYASZKUf3Fgw/4gAAAAAB4kThVX5dKNNUmSujYQSttRNS5czAAAAADwcatybg+QJEl92B/kdXEAAAAA3HqRruwBkiSph/uDAAAAABiwZg9QuXGzTJKkHu8PqidTFz0AAAAAQ9LsAUoLN8gkSRrQ/qA4AAIAAABAz1VpZg+QJEmDfUJoaX8QAAAAQB/FHqA67dwEkyTJ/qDRqpy7OAIAAADog3gNTJ3WbnpJkqQP9gfFQREAAAAAOujtHiCvgZMkSZ8cCG3sDwIAAADoknoybU75urklSZIePBBKC/uDAAAAAHJWjYtRlbZuZkmSpIP3B1Vp5qIKAAAAICdxetceIEmSdLyng7b2BwEAAADkwB4gSZJ0uieE1vYHAQAAAJxDnNK1B0iSJLXzujj7gwAAAABaEady7QGSJEmtvy4uDqBMpi7GAAAAAE4hTuFW5dKNKEmSdPb9QdW4cHEGAAAAcCyrcm4PkCRJym9/kNfFAQAAABwu9gDVaedGkyRJynp/EAAAAACP0OwBKjduLkmSpM7sD4oDLAAAAAB8QrMHKC3cUJIkSZ3dHxQHWgAAAAB4T5Vm9gBJkqSePCG0tD8IAAAAIMRrVOL0rJtGkiSpf/uDZi72AAAAgGGK16bUae0mkSRJ6vlAaGd/EAAAADAszR4gr4GTJEmDel3cxv4gAAAAoN/qyXRUlXs3gyRJ0nAHQmlhfxAAAADQL9W4sAdIkiTp7dNBe/uDAAAAgO6L0672AEmSJN31dNDW/iAAAACgm1bl3B4gSZKkh5TW9gcBAAAA3RCnWu0BkiRJeuww6LrZHwQAAACQpTjFag+QJEnS0/cH1ZOpi0sAAAAgD7EHqCqXbtxIkiQdeX9QNS5cbAIAAADnU6WZPUCSJEmn3h9UXLjwBAAAANoTe4DqtHNjRpIkqaX9Qaty7iIUAAAAOK1mD1C5cTNGkiTpTPuD4kAOAAAAwFE1e4DSwg0YSZKkTPYHxQEdAAAAgCeLPUBx+tRNF0mSpNwGQgv7gwAAAIDDxGtH4rSpmyySJEl57w+KgzsAAAAADxKnSuu0dlNFkiSpUwOhnf1BAAAAwKc1e4DStRspkiRJXX1dXLmxPwgAAAB4Vz2Z2gMkSZLUq9fF2R8EAAAAg1eNC3uAJEmSevt00N7+IAAAABiiOB1alUs3SCRJkoYwEEpb+4MAAABgKFbl3B4gSZKkQb4ybu11cQAAANBXcQrUHiBJkiT7g2J/EAAAANATz9OlPUCSJEn6YH9QPZm6WAYAAIDODoBiD1BauNEhSZKkT+4PqsaFi2cAAADokirN7AGSJEnSI54QWtofBAAAALmLPUB12rmZIUmSpIP2B63KuYtqAAAAyE3sAarT2s0LSZIkHWV/UBwwAgAAAM49ALrdA+Q1cJIkSTr6QGjTHDgCAAAAziD2AMVpTTcpJEmSdNKBUFrYHwQAAACtDYDGxc2X8a2bEpIkSWp1f1AcRAIAAABOJE5h2gMkSZKk8w6EdvYHAQAAwLHZAyRJkqS8BkJr+4MAAADgqerJ1B4gSZIkZfy6OPuDAAAA4NHidKU9QJIkSepCcXDJ/iAAAAB4yACouLj5Ir10Q0GSJEndGwil7agaFy7qAQAA4GNW5dweIEmSJPVjf5DXxQEAAMAbL9KVPUCSJEnq5f4gAAAAGKxmD1C5cZNAkiRJvd4fVE+mLv4BAAAY0AAo9gClhRsDkiRJGtT+oDgIBQAAAL1WpZk9QJIkSRrwE0JL+4MAAADon2YPUNr68i9JkiSl69GqnPuSAAAAQPfF6y/qtPZlX5IkSfpgILRrDkwBAABA9wZAt3uAvAZOkiRJuud1cRv7gwAAAOiOejK9+TK796VekiRJesxAKC3sDwIAACBf1biwB0iSJEl64v6gKs18uQAAACAfcWrRHiBJkiTpmE8Hbe0PAgAA4PzsAZIkSZJO+YTQ2v4gAAAA2henE+0BkiRJktp6XZz9QQAAALQgTiPaAyRJkiSd4XVxcRBrMvWlBAAAgBMMgIqLmy+eS1/AJUmSpAz2B1XjwpcUAAAAjmNVzu0BkiRJknLcH+R1cQAAABwq9gDVaecLtiRJkpTx/qA4uAUAAAAP1uwBKje+VEuSJEkd2h8UB7kAAADg7gFQ7AFKC1+kJUmSpA7vD4qDXQAAAPCOKs2aU4S+PEuSJEl9eEJoaX8QAAAAb/YAxalBX5YlSZKk/u0PigNfAAAADFC8LqJOa1+OJUmSpN4PhHb2BwEAAAxJswcoXftCLEmSJA3qdXEb+4MAAAD6rJ5M7QGSJEmShj4QSgv7gwAAAPqkGhf2AEmSJEn6x9NBe/uDAAAAui5O+dkDJEmSJOnup4O29gcBAAB00aqc2wMkSZIk6WGltf1BAAAAXRCn+ewBkiRJkvT4YdB1sz8IAACADMXpPXuAJEmSJB1jf1A9mfqSBQAAkMUAqLhoTu35wipJkiTp2PuDqnHhSxcAAMC5VGlmD5AkSZKkEz8htGwOoAEAANCS2ANUp50vpZIkSZJa2x+0Kue+jAEAAJxSsweo3PgSKkmSJOls+4PiYBoAAADHHADd7gHyGjhJkiRJmewPioNqAAAAPFHsAYpTd75sSpIkScpvILSwPwgAAOAQ8bqFOGXny6UkSZKk3PcHxQE2AAAAHiBO09Vp7cukJEmSpI4NhHb2BwEAAHyKPUCSJEmSOv+6uHJjfxAAAMA/1ZOpPUCSJEmSeva6OPuDAACAgavGhT1AkiRJknr8dNDe/iAAAGB44lRcVS59MZQkSZI0jIFQ2tofBAAADMOqnNsDJEmSJGmgr4xbe10cAADQT3H6zR4gSZIkSYZBb/YHAQAA9MLzdDmqyo0ve5IkSZL03v6gejL1pREAAOjoACj2AKWFL3iSJEmSdM/+oDhABwAA0BlVmtkDJEmSJEmPekJoaX8QAACQt9gDVKedL3GSJEmSdOD+oFU59+USAADIS7zGoE5rX9okSZIk6Uj7g+KgHQAAwHkHQLd7gLwGTpIkSZJOMBDa2B8EAACcR+wBilNqvpxJkiRJ0okHQmlhfxAAANDSAGhc3HwJ2foyJkmSJEkt7w+KA3kAAAAnEafP7AGSJEmSpHMPhHb2BwEAAMdlD5AkSZIk5TYQWtsfBAAAPE09mdoDJEmSJElZvy7O/iAAAOCR4lSZPUCSJEmS1I3iAJ/9QQAAwP0DoOLi5gvE0hcpSZIkSeriQChtR9W48OUWAAD40Kqc2wMkSZIkSX3ZH+R1cQAAQHiRrm6+JOx8UZIkSZKkHu4PAgAABqrZA1RufDmSJEmSpJ7vD4oDgAAAwFAGQLEHKC18IZIkSZKkge0PigOBAABAj1VpZg+QJEmSJA36CaGl/UEAANA38RqAOP3lS48kSZIkKQ4Irsq5L8sAANB18dh/nda+5EiSJEmSPjIQ2tkfBAAAnRwA3e4B8ho4SZIkSdK9r4vb2B8EAABdUU+mNxfxe19mJEmSJEmPGwilhf1BAACQq2pc2AMkSZIkSXry/qAqzXzJBgCAXMRpLXuAJEmSJEnHfTpoa38QAACcmz1AkiRJkqTTPiG0tj8IAADaFqey7AGSJEmSJLX3uriFL+MAAHBqcQrLHiBJkiRJ0lleFxcHEidTX84BAODoA6Di4uaCe+mLhyRJkiQpi/1B1bjwZR0AAI6hSjN7gCRJkiRJee4PKi58cQcAgEPEHqA67XyxkCRJkiRlvT9oVc59iQcAgIdq9gCVG18mJEmSJEmd2h8UBxoBAIC7BkCxBygtfIGQJEmSJHV6f1AccAQAAP4h9gDF6SlfGiRJkiRJ/XhCaGl/EAAAxGPzcVrKlwRJkiRJUh/3B8XBRwAAGJx4TL5Oa18KJEmSJEkDGAjt7A8CAGA4mj1A6doXAUmSJEnSwF4Xt7E/CACA/qonU3uAJEmSJEkGQmlhfxAAAP1RjQt7gCRJkiRJeufpoL39QQAAdFucbqrKpQt8SZIkSZLufDpoa38QAADdsyrn9gBJkiRJkvTQ0trr4gAAyF+cYrIHSJIkSZKkQ4ZB183+IAAAyM7zdGkPkCRJkiRJR9ofVE+mbjYAAJDBACj2AKWFC3VJkiRJkk6wP6gaF24+AABwHlWa2QMkSZIkSdLJnxBa2h8EAEB7Yg9QnXYuxiVJkiRJanF/0KqcuykBAMDpNHuAyo2Lb0mSJEmSzrg/KA5oAgDA8QZAt3uAvAZOkiRJkqRs9gfFgU0AAHiS2AMUp41cZEuSJEmSlONAaGF/EAAAjxePmcfpIhfVkiRJkiTlvz8oDnICAMC94hRRndYuoiVJkiRJ6txAaGd/EAAAd7MHSJIkSZKkHrwurtzYHwQAwP/Vk6k9QJIkSZIk9e51cfYHAQAMWpwOsgdIkiRJkqQ+Px20tz8IAGBwA6Di4uZCcOmCWJIkSZKkoQyE0nZUjQs3RQAA+m5Vzu0BkiRJkiRpsK+MW3tdHABAH71IV/YASZIkSZKkt/uDAADogWYPULlxkStJkiRJkt59XVwcGJ1M3TwBAOjkACj2AKWFC1tJkiRJkvTpgVDaNgdJAQDoiCrN7AGSJEmSJEmPfEJoaX8QAEDOYg9QnXYuXiVJkiRJ0mGl69GqnLvJAgCQk3h8u05rF6uSJEmSJOlITwftmwOnAACccwB0uwfIa+AkSZIkSdJJBkIb+4MAAM4h9gDF6RwXpZIkSZIk6eQDobSwPwgAoJUB0Li4ufjaugiVJEmSJEntlq6bg6kAAJxAnLqxB0iSJEmSJJ1/ILSzPwgA4JjsAZIkSZIkSfkNhNb2BwEAPEWcrrEHSJIkSZIk5f26OPuDAAAeJU7T2AMkSZIkSZK6UnOQdTJ1UwcA4JMDoOLi5sJp6QJSkiRJkiR1cyCUtqNqXLjJAwDwvlU5twdIkiRJkiT15JVxa6+LAwAIsQeoTjsXiJIkSZIkqWfDoDf7gwAABqnZA1RuXBRKkiRJkqR+vy6u3DcHYQEAhjEAij1AaeFCUJIkSZIkDWsglLbNwVgAgN6q0sweIEmSJEmSNPAnhJb2BwEA/RKPP8epFxd7kiRJkiRJr5uDsqty7qYRANBt8bhzndYu7iRJkiRJkj46ENrZHwQAdHAAdLsHyGvgJEmSJEmSHvC6uI39QQBAN9ST6c3Fy95FnCRJkiRJ0mMHQmlhfxAAkKdqXNgDJEmSJEmS9OSng/ajKs3cbAIA8hCnVOwBkiRJkiRJOvbTQVv7gwCA81qVc3uAJEmSJEmSTlla2x8EALQrTqPYAyRJkiRJktTWMOi62R8EAHBScfrEHiBJkiRJkqQzvS4uDuZOpm5SAQBHHgAVFzcXGksXXJIkSZIkSTkMhNJ2VI0LN60AgKer0sweIEmSJEmSpCxfGbduDvACADxa7AGq084FlSRJkiRJUtbDoOvRqpy7mQUAPEyzB6jcuIiSJEmSJEnq0uviyn1zsBcA4OMDoNgDlBYunCRJkiRJkro8EErb5qAvAMBbsQcoTo24WJIkSZIkSerLE0JL+4MAYOjiceE4JeLiSJIkSZIkqYel6+YAMAAwMHEapE5rF0OSJEmSJEmDGAjt7A8CgKFo9gClaxdAkiRJkiRJg3td3Mb+IADoq3oytQdIkiRJkiTJ6+Kag8L2BwFAX54AGhf2AEmSJEmSJOm9p4P29gcBQJfFqY6qXLqwkSRJkiRJ0t0DobS1PwgAumZVzu0BkiRJkiRJ0iNeGbf2ujgAyF2c3rAHSJIkSZIkSYcNg97sDwIAMvM8XdoDJEmSJEmSpOO8Li4OGk+mbroBwNkHQLEHKC1coEiSJEmSJOn4A6G0HVXjwk04ADiHKs3sAZIkSZIkSVILTwgt7Q8CgLbEHqA67VyESJIkSZIkqb3S9WhVzt2cA4BTafYAlRsXHZIkSZIkSTrj00H75qAyAHCsAdDtHiCvgZMkSZIkSVIuA6G0bQ4uAwBPEHuA4pSFiwtJkiRJkiTlORBa2B8EAI8eAI2L5lSFiwlJkiRJkiRlX7puDjQDAPeI0xN1Wrt4kCRJkiRJUgcHQjv7gwDgzqeA7AGSJEmSJElSLwZCa/uDAOBWPZnaAyRJkiRJkqQevi7O/iAABixORdgDJEmSJEmSpD4XB6DtDwJgWAOg4uLmA3DpQkCSJEmSJEnDGQil7agaF24OAtBvq3JuD5AkSZIkSZIG/Mq4tdfFAdA/L9KVPUCSJEmSJElSMwx6s7lH6wMAACAASURBVD8IADqv2QNUbny4S5IkSZIkSe+/Li4OTk+mbiIC0MEBUOwBSgsf6JIkSZIkSdJ9A6G0bQ5UA0AnVGlmD5AkSZIkSZL06CeElvYHAZCv2ANUp50PbUmSJEmSJOnQ0vVoVc7dbAQgH/HYap3WPqQlSZIkSZKkoz0dtG8OXgPA+QZAt3uAvAZOkiRJkiRJOtFAaGN/EADtqyfT5lSCD2NJkiRJkiSphYFQWtgfBEALTwGly5sPna0PX0mSJEmSJKnt4s08k6mblACcRpVmXgMnSZIkSZIknX0gtPZ0EADHFR8uPmQlSZIkSZKkXIZBO8MgAAyBJEmSJEmSpD6/Kq4aF25gAmAIJEmSJEmSJPV1GBR7vQHAEEiSJEmSJEnymjgAGI2qNPMBKkmSJEmSJHWkKm3d1ATggUOgceHDU5IkSZIkSercMGjh5iYAnxaPkFbl3genJEmSJEmS1MFepCs3OQH4xNNA5dIHpiQdVvHt56+vNl+8nn3/5evFj181bX794fX2t5/edojdH7+885+x/s93b//z478r/jsj/w4kSdIpr3E+dn3zVLf/OfGfefufH/9d8d/pn70kHfpUULl3kxOAO4ZAXgknSfd18e9/NTcn5q+Wr5c/f9PcuNj/+fvrnNzeUIkbKfF/Z/zfe/n1Z/79SZKke7u9zomDJ3EY5dzi/4b4v+X2msa/I0nyijgAnjQISlsflJL04c2Q25OvuQ18Dh0S/fNmSgy2/HuWJMm1zjGe7mnzeub2ySH/DiXprtL16Hm6dMMTgP+Ld4f6kJSkTt4MeaoYcMWgy0lbSZKG8XRzvFo2Pvuv//6r89cx8b8h/rfE/yYHXCTpg2HQ2k1PADwNJGnwxSvTbm+G8OFJ2+nLZ26qSJLUo+FP3xkKSdJ7eSoIgDdDILuBJA1v+BNPv+Tw3nuvYJEkSad80jleCduHJ38OeVIo/rcX337uZ0HSsLMrCIBGPCbqg1HSQE7CGv54BYskSX3PNc+74p9F/DPxsyFpoK+Hu3bzE4BR84Hgg1FSz0/CctqbK/GEVTxp5WdOkqTzHXqJp3eH+PTPY/Yixj8jB1kkDa/J1A1QgEEPgW4+CHwgSurhjZAYTMSXfQyFJEkyAOL9p5sNhCQN7KmgtZugAMN+Gshr4ST1phg+uBGS32tY3GSRJMkAKOeBkJ8nSV4PB0C/VeXeh6GkPgyAvP4tb/HvZ/rymZ9XSZKOUBy08OTzcV8Z5zpFUu97ka7cCAUYoufp0gehJAMgzvFufq+OkyTp8RXffv56+9tPLihOJP7ZukaR1NtW5dzNUIAhipMAPggldfhVKHT/KaGrzRd+piVJcu2TFa+Lk9TT18Ot3QwFGKIqLXwISupa81dL78Lv6S4hP9+SJH1YHJrwGrjzPMUcT2D5GZTUm6q0dTMUwCBIkrK/CRIDA/r/2rg49exnXpKk8vXy529cIHg6SJKONAgq926GAhgESVK2r0KxB2hY4okvAyFJ0pCLJ1EcgMnr6WW7gyT1IgAMgiQpt6Yvn3kNnIGQgZAkaVDF61Jd/+R5XRLXpn5GJRkEAWAQJElHegpo8+sP7jhgICRJ8io4shL/jvysSjIIAsAgSJKekIXI3DcQ8nsiSerjIZjtbz/5sO+IOLDkgIokgyAADIIk6YDiJj/cJwaF8docvzOSpD5kH5C9QZJkEASAQZAkp2DhI+JnJp4g8zskSeryEMg+oG4/rRz/Dv0sSzIIAsAgSJLuuQHiVXA8xfo/33k9iySpc01fPjMEMgySJIMgAAyCJPW7eL2XGyAc6ybM/NXS75UkqTPXQPTrOsRrayUZBAFgECRJ7xU37eEU7+t3KleSZAjEORgGSTIIAsAgSJL+V7zKC05p8eNXftckSYZAGAZJkkEQgEGQD0FJhkB4OkiSpHZ2AjEMrj8kGQQBYBAkyRAIPB0kSRpQMRiwF3E44t+1YZAkgyAADIIkGQJBy08HXX79md9FSZIhEIZBkgyCADAIkiRDIPp6Q8Z7+yVJbXbx73+93v/5uw/hAR9EiZ8BvwuSDIIAMAiSZAgELYqfSTdlJEltFIMAhm37209+FyQZBAFgECTJEAjOcULX61okSa6DaMPy52/8TkgyCALAIEhS/5q/WvrWT/avipu+fOb3VZJ09OJVpPBPXk8rySAIAIMgSW5+gFO6kqQeFE+cxmEDeP8AiqeRJRkEAWAQJMnNDziTza8/2BskSXpy8VliLxB3iZ8NvyeSDIIAMAiS1PmbH4ZAdPnmzOXXn/ldliQdXDxlCp5ElmQQBIBBkKTetv3tJ9/u8doWSdIgu9p84YOUB4mfFb8zkgyCADAIktS5Fj9+5Vs9vRkGuUEjSfJUNKey//N3r6SVZBAEgEGQJCdg4dxm33/p91uS5JVweEWcJIMgAAyCJDkBG6cawTBIkuRADDyc19FKMggCwCBIkhOwYBgkScq83R+/+LDkILFf0++QJIMgAAyCJDkBCxmYv1r6nZckfVB8PoADJ5IMggAwCJLklXDQA97lL0l6/1ro+u+/fEDyJPEzFD9LfqckGQQBYBAkKbsWP37lmztO7UqSXAvBE8XPkt8pSQZBABgEScqqy68/840dwyBJkmsh8FSQJIMgAAyCJPWxWGwLhkH+FkjSUFv/5zsfhngqSJJBEAAGQZL62dXmC9/UwTBIkjwNBJ4KkmQQBIBBkCRPA0G/b9gU337u74IkeRoIPBUkySAIAIMgSZ4GAsMgSVLXiyc24m8/eCpIkkEQAAZBkjwNBAOx++MXN20kaSDFExtwSvNXS79rkgyCADAIkuRpIMhNDEn9nZCk/rf/83cfepxU/Iz5XZNkEASAQZAkTwNBhmJnhL8VktTfZt9/6cOOVkxfPvM7J8kgCACDIEntdvn1Z76RwwPETUJ/MySpn21+/cEHHa2InzW/c5IMggAwCJLUavGkA/Aw8RpFfzckyaEYeAr7ByUZBAFgECSpteJL6PXff/k2Dg8Uvy/Ft5/7+yFJPWr+aukDjlbFz5zfPUkGQQAYBEnyPnzI1O6PX5zklaQetf/zdx9utH4t4XdPkkEQAAZBklopvoQCj7f97Sd/QySpB8VTnnAO8UpCv4OSDIIAMAiS5H34kLHYr+VviSR1u8WPX/lA4yy8Hk6SQRAABkGSvA8fOiBer+jviSR5Ohoey+vhJBkEAWAQJMmND+iIq80X/qZIkqej4dHsHJRkEASAQZAkNz6gA67//qvZMeFviyR1q3iqE85p+vKZ30VJBkEAGARJcuMDuvJ6F6d6Jalbxa43OCf7BiUZBAFgECTpZG1+/cE3bziy7W8/+fsiSR1q/+fvPrw4q/gZ9LsoySAIAIMgSScpXmUFONkrSV6TC+cVP4t+JyUZBAFgECTpqMUuE+B05q+W/tZIktfkwoPYEyTJIAgAgyBJRy9uUgNu6kjSkFv+/I0PK7Kw+PErv5OSDIIAMAiSdNwsRobTi9cvxtN3/uZIUp7FXjfIgR2DkgyCADAIknT0dn/84hs3tCAWQF/8+1/+7khShkFOh0f8TkoyCALAIEiSGx/QUTF49XdHkvLq8uvPfECRFQdHJBkEAWAQJOloXW2+8E0bWhavY/T3R5JcD8Fd4mfS76YkgyAADIIkHaXZ91/6pg1nMH+19DdIkjJp8eNXPphwnSDJIAgAgyBJbnwAxzV9+czfIUnKoOXP3/hQIitxje53U5JBEAAGQZKO0ubXH3zThjOJZdD/Ze/uUZvn9j0MT0FDyBA8hNOoDxmAUX+adGlTaAAeQASGVHGVxqQTIaQLBLkzCEKakEaFiStXOvwf2AckZ3OKs7/Weq8L7gm8TyyvvX7b9mKz9CySpH9zz1/v3pT4jxJndK9NSYYgAAxBklx8QAY+f779ILQkOQ/BRPxNem1KMgQBYAiS9A8pLqGBf69u6D2PJOnfWHxCE/7T/o8iXpuSDEEAGIIk/UMC/jOs91vPJElyHoL/5bUpyRAEgCFIkosPyMz168pzSZKch8AQJMkQBIAhSJKLD8jV5dONZ5Mk/Qu7uL/y5oMhSJIhCABDkKQ8+6/H//a/sOE/TPxOxWKz9IySJOch/uJipPQalWQIAsAQJMnFB2QofiC6aErPKUlyHuIvLP42vUYlGYIAMARJcvEBmeqG3nNKkpyHMARJkiEIAEOQJBcfkKv1futZJUnOQxiCJMkQBIAhSJKLD8jV9evK80qSnIcwBEmSIQgAQ5AkFx+Qq6qtPbMkyXkIQ5AkGYIAMARJcvEBOTqcjuNis/TckiTnIQxBkmQIAsAQJMnFB+Q6BhVN6dklSc5DGIIkyRAEgCFIkosPyFE39MYgSXIewhAkSYYgAAxBklx8QK7W+63nlyQ5D2EIkiRDEACGIEkuPiBXt293nmGS5DyEIUiSDEEAGIIkufiAXFVt7TkmSc5DGIIkyRAEgCFIkosPyNHhdBwXm6VnmSQ5D2EIkiRDEACGIEkuPiDXMahoSs8zSXIewhAkSYYgAAxBklx8QI66oTcGSZLzEIYgSTIEAWAIkuTiA3K13m890yTJeQhDkCQZggAMQYYgSS4+IFe3b3eea5LkPIQhSJIMQQCGIG+Cklx8QK6qtvZskyTnIQxBkmQIAjAESZKLD8jR4XQcF5ul55skOQ9hCJIkQxCAIUiSXHxArmNQ0ZSecZLkPIQhSJIhCABDkCQXHy4+IEfd0BuDJMl5CEOQJEMQAIYgSS4+XHxArtb7reecJDkPYQiSZAgCwBAkycUHkKvbtzvPOklyHsIQJMkQBIAhSJKLDyBXVVt73kmS8xCGIEmGIAAMQZJcfAC5WmyWnnmS5DyEIUiSIQgAQ5AkFx9Ajg6n43hxf+W5J0nOQxiCJBmCADAESXLxAeSoG/qxaErPPklyHsIQJMkQBIAhSJKLDyBHjx8vnn2S5DyEIUiSIQgAQ5AkFx9Arla7B88/SXIewhAkyRAEgCFIkosPIFdVW3sGSpLzEIYgSYYgAAxBklx8ALlabJaeg5LkPIQhSJIhCABDkCQXH0CODqfjeHF/5VkoyXnIeQhDkCRDEACGIEkuPoAcdUM/Fk3peSjJeQgMQZIMQQAYgiS5+ABy9Pjx4nkoyXkIDEGSDEEAGIIkufgAcrXaPXgmSnIeAkOQJEMQAIYgSS4+gFxVbe25KMl5CAxBkgxBABiCJLn4AHK12Cw9GyU5D4EhSJIhCABDkCQXH0CODqfjeHF/5fkoyXkIDEGSDEEAGIIkufgActQN/Vg0pWekJOchMARJMgQBYAiS5OIDyNHjx4tnpCTnITAESTIEAWAIkuTiA8jVavfgOSnJeQgMQZIMQQAYgiS5+AByVbW1Z6Uk5yEwBEkyBAFgCJLk4gNwCSVJzkPgPViSIQgAQ5AkFx9AUg6n47jYLD0zJTkPgSFIkiEIAEOQJBcfQI66oR+LpvTclOQ8BIYgSYYgAAxBklx8ADl6/nr33JTkPASGIEmGIAAMQZJcfAC5Wu+3np2SnIfAECTJEASAIUiSiw8gV1Vbe35Kch4CQ5AkQxAAhiBJLj4AF1OS5DwE3m8lGYIAMARJcvEBJOVwOo6LzdJzVJLzEBiCJBmCADAESXLxAeSoG/qxaErPUknOQ2AIkmQIAsAQJMnFB5Cj5693z1JJzkNgCJJkCALAECTJxQeQq/V+63kqyXkIDEGSDEEAGIIkufgAclW1tWeqJOchMARJMgQBYAiS5OIDcFklSc5D4L1VkiEIAEOQJBcfQFIOp+O42Cw9WyU5D4EhSJIhCABDkCQXH0COuqEfi6b0fJXkPASGIEmGIAAMQZJcfAA5ev5693yV5DwEhiBJhiAADEGSXHwAuVrvt56xkpyHwBAkyRAEgCFIkosPIFdVW3vOSnIeAkOQJEMQAIYgSS4+gFxdPt141kpyHgJDkCRDEACGIEkuPoAcHU7HcbFZet5Kch4CQ5AkQxAAhiBJLj6AHH3+fI9FU3rmSnIeAkOQJEMQAIYgSS4+gBx1Q++ZK8l5CAxBkgxBABiCJLn4AHK13m89dyU5D4EhSJIhCABDkCQXH0Curl9Xnr2SnIfAECTJEASAIUiSiw8gV5dPN56/kpyHwBAkyRAEgCFIkosPIEeH03FcbJaewZKch8AQJMkQBIAhSJKLDyBHnz/fY9GUnsOSnIfAECTJEASAIUiSiw8gR93Qew5Lch4CQ5AkQxAAhiBJLj6AXK33W89iSc5DYAiSZAgCwBAkycUHkKvr15XnsSTnITAESTIEAWAIkuTiA8jV5dONZ7Ik5yEwBEkyBAFgCJLk4gPI0eF0HBebpeeyJOchMARJMgQBYAiS5OIDyNHnz/dYNKVnsyTnITAESTIEAWAIkuTiA8hRN/SezZKch8AQJMkQBIAhSJKLDyBX6/3W81mS8xAYgiQZggAwBEly8QHk6vp15RktyXkIQ5AhSJIhCABDkCQXH0Cuqrb2nJbkPIQhyGtUkiEIAEOQJBcfQI4Op+O42Cw9qyU5D2EIkiRDEACGIEkuPoBcx6CiKT2vJTkPYQiSJEMQAIYgSS4+gBx1Q28MkuQ8hCFIkgxBABiCJLn4AHK13m89syU5D2EIkiRDEACGIEkuPoBc3b7deW5Lch7CECRJhiAADEGSXHwAuara2rNbkvMQhiBJMgQBYAiS5OIDyNHhdBwXm6XntyTnIQxBkmQIAsAQJMnFB5DrGFQ0pWe4JOchDEGSZAgCwBAkycUHkKNu6I1BkpyHMARJkiEIAEOQJBcfQK7W+63nuCTnIQxBkmQIAsAQJMnFB5Cr27c7z3JJzkMYgiTJEASAIUiSiw8gV1Vbe55Lch7CECRJhiAADEGSXHwAOTqcjuNis/RMl+Q8hCFIkgxBABiCJLn4AHIdg4qm9FyX5DyEIUiSDEEAhiBvgpJcfAA56obeGCTJeQhDkCQZggAMQd4EJbn4AHK13m892yU5D2EIkiRDEIAhSJJcfAC5un2783yX5DyEIUiSDEEAhiBJcvEB5Kpqa894Sc5DGIIkCQBDkCS5+ABytdgsPeclOQ9hCJJkCALAECTJxQdAjg6n43hxf+VZL8l5CEOQJEMQAIYgSS4+AHLUDf1YNKXnvSTnIQxBkgxBABiCJLn4AMjR48eL570k5yEMQZIMQQAYgiS5+ADI1Wr34JkvyXkIQ5AkQxAAhiBJLj4AclW1tee+JOchDEGSDEEAGIIkufgAyNVis/Tsl+Q8hCFIkiEIAEOQJBcfADk6nI7jxf2V578k5yEMQZIMQQAYgiS5+ADIUTf0Y9GU3gMkOQ9hCJJkCALAECTJxQdAjh4/XrwHSHIewhAkyRAEgCFIkosPgFytdg/eByQ5D2EIkmQIAsAQJMnFB0Cuqrb2XiDJeQhDkCRDEACGIEkuPgBytdgsvR9IzkMehhiCJBmCADAESXLxAZCjw+k4XtxfeU+QnIfAECTJEASAIUiSiw+AHHVDPxZN6X1Bch4CQ5AkQxAAhiBJLj4AcvT48eJ9QXIeAkOQJEMQAIYgSS4+AHK12j14b5Cch8AQJMkQBIAhSJKLD4BcVW3t/UFyHgJDkCRDEACGIEkuPgBcvElyHgLvR5IMQQAYgiS5+ABIyuF0HBebpfcJyXkIDEGSDEEAGIIkufgAyFE39GPRlN4rJOchMARJMgQBYAiS5OIDIEfPX+/eKyTnITAESTIEAWAIkuTiAyBX6/3W+4XkPASGIEmGIAAMQZJcfADkqmpr7xmS8xAYgiQZggAwBEly8QHgMk6S8xB475FkCALAECTJxQdAUg6n47jYLL13SM5DYAiSZAgCwBAkycUHQI66oR+LpvT+ITkPgSFIkiEIAEOQJBcfADl6/nr3/iE5D4EhSJIhCABDkCQXHwC5Wu+33kMk5yEwBEkyBAFgCJLk4gMgV1Vbex+RnIfAECTJEASAIUiSiw8AF3SSnIfA+4wkQxAAhiBJLj4AknI4HcfFZun9RHIeAkOQJEMQAIYgSS4+AHLUDf1YNKX3FMl5CAxBkgxBABiCJLn4AMjR89e79xTJeQgMQZIMQQAYgiS5+ADI1Xq/9b4iOQ+BIUiSIQgAQ5AkFx8Auara2nuL5DwEhiBJhiAADEGSXHwAuLST5DwE3lMkGYIAMARJcvEBkJTD6TguNkvvMZLzEBiCJBmCADAESXLxAZCjz5/vsWhK7zOS8xAYgiQZggAwBEly8QGQo27ovc9IzkNgCJJkCALAECTJxQdArtb7rfcayXkIDEGSDEEAGIIkufgAyNX168r7jeQ8BIYgSYYgAAxBklx8AOTq8unGe47kPASGIEmGIAAMQZJcfADk6HA6jovN0vuO5DwEhiBJhiAADEGSXHwA5Ojz53ssmtJ7j+Q8BIYgSYYgAAxBklx8AOSoG3rvPZLzEBiCJBmCADAESXLxAZCr9X7r/UdyHgJDkCRDEACGIEkuPgBydf268h4kOQ+BIUiSIQgAQ5AkFx8Aubp8uvE+JDkPgSFIkiEIAEOQJBcfADk6nI7jYrP0XiQ5D4EhSJIhCABDkCQXHwA5+vz5Houm9H4kOQ+BIUiSIQgAQ5AkFx8AOeqG3vuR5DwEhiBJhiAADEGSXHwA5Gq933pPkpyHwBAkyRAEgCFIkosPgFxdv668L0nOQ2AIkmQIAsAQJMnFB0CuLp9uvDdJzkNgCJJkCALAECTJxQdAjg6n47jYLL0/Sc5DYAiSZAgCwBAkycUHQK5jUNGU3qMk5yEwBEkyBAFgCJLk4gMgR93QG4Mk5yEwBEkyBAFgCJLk4gMgV+v91vuU5DyEIchrVJIhCABDkCQXHwC5un27814lOQ9hCJIkQxAAhiBJLj4AclW1tfcryXkIQ5AkGYIAMARJcvEBkKPD6TguNkvvWZLzEIYgSTIEAWAIkuTiAyDXMahoSu9bkvMQhiBJMgQBYAiS5OIDIEfd0BuDJOchDEGSZAgCwBAkycUHefj8+fYfAWbW+633Lsl5CEOQJBmCADAESXLxQfriN1Hi67CAqdu3O+9fkvMQhiBJMgQBYAiS5OKDtMXf5+XTjf8Q8Iuqrb2HSc5DGIIkyRAEgCFIkosP0h6CouvXlf8YMBOflotPzXkfk5yHMARJkiEIAEOQJBcfJD0ERfG7KMD5GFQ0pfcyyXkIQ5AkGYIAMARJcvFB2kNQ1A29/ygwE68LY5DkPIQhSJIMQQAYgiS5+CD5ISguuz9/vv2HgZn4xJz3M8l5CEOQJBmCADAESXLxQdJDUBS/iRJfhwVM3b7deU+TnIcwBEmSIQgAQ5AkFx+kPQRFl083/uPAL6q29r4mOQ9hCJIkQxCAIcgQJMnFB2kPQdH168p/IJiJT8vFp+a8t0nOQxiCJMkQBGAI8iYoycUHSQ9BUfwuCnA+Bl3cX3l/k5yHMARJkiEIwBAkSS4+SHsIirqh9x8KZuJ1UTSl9zjJeQhDkCQZggAMQZLk4oO0h6C47P78+fYfC2YeP168x0nOQxiCJMkQBGAIkiQXH6Q9BEXxmyjxdVjA1Gr34H1Och7CECTJEASAIUiSiw8XH6Q9BPk7hr+vamvvdZL3EQxBkgxBABiCJLn4gLSHoCguvIFz8ak573eS8xCGIEmGIAAMQZJcfEDSQ1C03m/9h4OZ+OrEi/sr73mS8xCGIEmGIAAMQZJcfEDaQ1D0/PXuPx7MdEM/Fk3pfU9yHsIQJMkQBIAhSJKLD0h7CIrL7rj0BqYeP16870nOQxiCJBmCADAESXLxAWkPQVH8Jkp8HRYwtdo9eO+TnIcwBEkyBAFgCJLk4gPSHoL8bcPfV7W19z/JewaGIEmGIAAMQZJcfEDaQ1AUF97AufjUnPdAyXkIQ5AkQxAAhiBJLj4g6SEoWu+3/mPCTHx14sX9lfdByXkIQ5AkQxAAhiBJLj4g7SEoev569x8UZrqhH4um9F4oOQ9hCJJkCALAECTJxQekPQTFZXdcegNTjx8v3gsl5yEMQZIMQQAYgiS5+IC0h6AofhMlvg4LmFrtHrwfynnIeQhDkCRDEACGIEkuPiDtIcjfO/x9VVt7T5TzEBiCJBmCADAESXLxAWkPQVFceAPn4lNz3hflPASGIEmGIAAMQZJcfEDSQ1C03m/9B4aZ+OpEY5Cch8AQJMkQBIAhSJKLD0h+CIqev979R4aZbujHoim9P8p5CAxBkgxBABiCJLn4gLSHoLjsjktvYCpGUu+Pch4CQ5AkQxAAhiBJLj4g6SEoiq/Biq/DAqbi6xO9R8p5CAxBkgxBABiCJLn4gKSHoL+NQcC5qq29T8p5CAxBkgxBABiCJLn4gLSHoCguvAEXkHIeAs9hSYYgAAxBklx8QIZDULTaPfiPDjPx1YnxqTnvl3IeAkOQJEMQAIYgSS4+IOkhKHr8ePEfHma6oR+LpvSeKechMARJMgQBYAiS5OID0h6C4rI7Lr2Bqeevd++Zch4CQ5AkQxAAhiBJLj4g7SEouri/+vN1WMDUer/1vinnITAESTIEAWAIkuTiA9IegqL4TRTgXNXW3jvlPASGIEmGIAAMQZJcfEDaQ1AUF96AS0k5D4FnriRDEACGIEkuPiDDISha7R78Q8BMfHVifGrOe6ich8AQJMkQBIAhSJKLD0h6CIoeP178Y8BMN/Rj0ZTeR+U8BIYgSYYgAAxBklx8QNpDUFx2x6U3MPX89e59VM5DYAiSZAgCwBAkycUHpD0ERRf3V3++DguYWu+33kvlPASGIEmGIAAMQZJcfEDaQ1AUv4kCnKva2vupnIfAECTJEASAIUiSiw9IewiK4sIbcFEp5yHwfJVkCALAECTJxQdkOARFq92DfxyYia9OjE/NeV+V8xAYgiQZggAwBEly8QFJD0HR48eLfyCY+fz5Houm9N4q5yEwBEkyBAFgCJLk4gPSHoLisrsbev9IMBOvC++tch4CQ5AkQxAAhiBJLj4g6SEouri/+vN1WMDUer/1/irn0SGZggAAIABJREFUITAESTIEAWAIkuTiA9IegqL4TRRjEJy7fl15j5XzEBiCJBmCADAESXLxAWkPQVHV1v6x4BeXTzfeZ+U8BIYgSYYgAAxBklx8QNpDUHT7ducfDGbi03LxqTnvtXIeAkOQJEMQAIYgSS4+IOkhKIrfRQGmPn++x6Ipvd/KeQgMQZIMQQAYgiS5+IC0h6C47O6G3j8czMTrwvutnIfAECTJEASAIUiSiw9Iegj62xgUX4cFTMUn5rznynkIDEGSDEEAGIIkufiApIegKH4TxRgE565fV9535TwEhiBJhiAADEGSXHxA2kNQVLW1f0D4xeXTjfdeOQ+BIUiSIQgAQ5AkFx8wJv/aun27848IM/FpufjUnPdfOQ+BIUiSIQgAQ5AkFx8YgpIvfhcFmPr8+f7ze1reg+U8BIYgSYYgAAxBklx8YAhKurjs7obePybMxOvCe7Cch8AQJMkQBIAhSJKLDwxBWYxB8XVYwFR8Ys77sJyHwBAkyRAEgCFIkosPDEHJF7+JYgyCc9evK+/Fch4CQ5AkQxAAhiBJLj4wBKVf1db+UeEXl0833o/lPASGIEmGIAAMQZJcfGAISr/btzv/sDATn5aLT815T5bzEBiCJBmCADAESXLxgSEo+eJ3UYDzMSh+T8v7spyHwBAkyRAEgCFIkosPDEFJF5fd3dD7B4aZeF0Yg+Q8BIYgSYYgAAxBklx8YAjKYgyKT0AAU/GJOe/Nch4CQ5AkQxAAhiBJLj4wBCVf/CaKMQjOxW9peX+W8xAYgiQZggAwBEly8YEhKPmqtvYPDb+I14b3aDkPgSFIkiEIAEOQJBcfGIKS7/p15R8bZuLTcvGpOe/Tch7CEGQIkmQIAsAQJMnFB4ag5IvfRQHOx6D4PS3v1XIewhDkNSrJEASAIUiSiw8MQcnXDb1/dJiJ14UxSM5DGIK8RiUZggAwBEly8YEhKPnisvvz59s/PMzEJ+a8X8t5CEOQJBmCADAESXLxgSEo+eI3UeLrsICp27c779lyHsIQJEmGIAAMQZJcfGAISr/Lpxv/+PCLqq29b8t5CEOQJBmCADAESXLxgSEo/a5fV/4AYCY+LRefmvPeLechDEGSZAgCwBAkycUHhqDki99FAc7HoPg9Le/fch7CECRJhiAADEGSXHxgCEq+buj9IcBMvC6MQXIewhAkSYYgAAxBklx8YAhKvrjs/vz59scAM/GJOc8IOQ9hCJIkQxAAhiBJLj4wBCVf/CZKfB0WMHX7ducZIechDEGSZAgCwBAkycUHhqD0u3y68QcBv6ja2jNCzkMYgiTJEASAIUiSiw8MQel3/bryRwEz8Wm5+NScZ4SchzAESZIhCABDkCQXHxiCki9+FwU4H4Pi97Q8I+Q8hCFIkgxBABiCJLn4wBCUfN3Q++OAmXhdGIPkPIQhSJIMQQAYgiS5+MAQlHxx2f358+0PBGYeP148I+Q8hCFIkgxBABiCJLn4wBCUfvGbKPF1WMDUavfgGSHnIQxBkmQIAjAEeROU5OIDQ1D6XT7d+COBX1Rt7Rkh5yEMQZJkCAIwBEmSiw8MQekXF97AufjUnGeEnIcwBEmSIQjAECRJLj4wBCXfer/1xwIz8dWJF/dXnhFyHsIQJEkAGIIkycUHhqD0e/569wcDM93Qj0VTekbIeQhDkCRDEACGIEkuPsAQlHZx2R2X3sDU48eLZ4SchzAESTIEAWAIkuTiAwxB6Re/iRJfhwVMrXYPnhFyHsIQJMkQBIAhSJKLDzAEeT1Drqq29oyQ5yeGIEmGIAAMQZJcfIAhKP3iwhs4F5+a84yQ8xCGIEmGIAAMQZJcfIAhKPnW+60/IJiJr068uL/yjJDzEIYgSYYgAAxBklx8gCEo/Z6/3v0RwUw39GPRlJ4Rch7CECTJEASAIUiSiw8wBKVdXHbHpTcw9fjx4hkh5yEMQZIMQQAYgiS5+ABDUPrFb6LE12EBU6vdg2eEnIcwBEkyBAFgCJLk4gMMQV7jkKuqrT0j5FmJIUiSIQgAQ5AkFx9gCEq/uPAGzsWn5jwj5DyEIUiSIQgAQ5AkFx9gCEq+9X7rjwpm4qsTL+6vPCPkPIQhSJIhCABDkCQXH2AISr/nr3d/WDDTDf1YNKVnhPOQFwOGIEmGIAAMQZJcfIAhKO3isjsuvYGpGEk9I5yHwBAkyRAEgCFIkosPMAQlX/wmSnwdFjAVX5/oGeE8BIYgSYYgAAxBklx8gCHI6x4yVbW1Z4TnIhiCJBmCADAESXLxAYag9IsLb8Clq5yH8EySZAgCwBAkycUHGIIybbV78IcGM/HVifEVip4RzkNgCJJkCALAECTJxQcYgpLv8ePFHxvMdEM/Fk3pGeE8BIYgSYYgAAxBklx8gCEo7eKyOy69gannr3fPCOchMARJMgQBYAiS5OIDDEHpd3F/9efrsICp9X7rGeE8BIYgSYYgAAxBklx8gCEo/eI3UYBzVVt7RjgPgSFIkiEIAEOQJBcfYAhKv7jwBlzEOg+B548kQxAAhiBJLj7AEJRpq92DPz6Yia9OjE/NeUY4D4EhSJIhCABDkCQXH2AISr7Hjxd/gDDTDf1YNKVnhPMQGIIkGYIAMARJcvEBhqC0i8vuuPQGpp6/3j0jnIfAECTJEASAIUiSiw8wBKXfxf3Vn6/DAqbW+61nhPMQGIIkGYIAMARJcvEBhqD0i99EAc5Vbe0Z4TwEhiBJhiAADEGSXHyAISj94sIbcDnrPASeNZIMQQAYgiS5+ABDUKatdg/+IGEmvjoxPjXnGeE8BIYgSYYgAAxBklx8gCEo+R4/XvxRwkw39GPRlJ4RzkNgCJJkCALAECTJxQcYgtIuLrvj0hs4H4M8I5yHwBAkyRAEgCFIkosPMAQl38X91Z+vwwKm1vutZ4TzEBiCJBmCADAESXLxAYag9IvfRAHOXb+uPCOch8AQJMkQBIAhSJKLDzAEpV/V1v5A4ReXTzeeEc5DYAiSZAgCwBAkycUHGILS7/btzh8pzMRXJ8an5jwjnIfAECTJEASAIUiSiw8wBCVf/C4KMPX58z0WTekZ4TwEhiBJhiAADEGSXHyAISjt4rK7G3p/rDATrwvPCOchMARJMgQBYAiS5OIDDEFZjEHxdVjAVHxizjPCeQgMQZIMQQAYgiS5+ABDUPLFb6IYg+Dc9evKM8J5CAxBkgxBABiCJLn4AENQ+lVt7Y8WfnH5dOMZ4TwEhiBJhiAADEGSXHyAISj9bt/u/OHCTHxaLj415xnhPASGIEmGIAAMQZJcfIAhKPnid1GAqc+f7z+/p+UZ4TwEhiBJhiAADEGSXHyAISjp4rK7G3p/wDATrwvPCOchMARJMgQBYAiS5OIDDEFZjEHxdVjAVHxizjPCeQgMQZIMQQAYgiS5+ABDUPLFb6IYg+Dc9evKM8J5CAxBkgxBABiCJLn4AK/P9Kva2h8y/OLy6cYzwnkIDEGSDEEAGIIkufjAEKT0u32788cMM/FpufjUnGeE8xAYgiQZggAwBEly8YEhSMkXv4sCTH3+fP/5PS3PCOchMARJMgQBYAiS5OIDQ5CSLi67u6H3Rw0z8bowBjkPgSFIkiEIAEOQJBcfGIKUxRgUX4cFTMUn5jwjnIfAECTJEASAIUiSiw8MQUq++E0UYxCci9/S8oxwHgJDkCRDEACGIEkuPjAEKfmqtvbHDb+I14ZnhPMQGIIkGYIAMARJcvGBIUjJd/268gcOM/FpufjUnGeE8xAYgiQZggAwBEly8YEhSMkXv4sCnI9B8XtanhHOQ2AIkmQIAsAQJMnFB4YgJV839P7QYSZeF8Yg5yEwBEkyBAFgCJLk4gNDkJIvLrs/f779scNMfGLOM8J5CAxBkgxBABiCJLn4wBCk5IvfRImvwwKmbt/uPCOch8AQJMkQBIAhSJKLDwxBSr/Lpxt/8PCLqq09I5yHMAR5jUoyBAFgCJLk4gNDkNLv+nXljx5m4tNy8ak5zwjnIQxBkmQIAsAQJMnFB4YgJV/8LgpwPgbF72l5RjgPYQiSJEMQAIYgSS4+MAQp+bqh98cPM/G6MAY5D2EIkiRDEACGIEkuPjAEKfnisvvz59sLAGbiE3OeEc5DGIIkyRAEgCFIkosPDEFKvvhNlPg6LGDq9u3OM8J5CEOQJBmCADAESXLxgSFI6Xf5dONFAL+o2tozwnkIQ5AkGYIAMARJcvGBIUjpd/268kKAmfi0XHxqzjPCeQhDkCQZggAwBEly8YEhSMkXv4sCnI9B8XtanhHOQxiCJMkQBIAhSJKLDwxBSr5u6L0gYCZeF8Yg5yEMQZJkCALAECTJxQeGICVfXHZ//nx7UcDM48eLZ4TzEIYgSTIEAWAIkuTiA0OQ0i9+EyW+DguYWu0ePCOchzAESZIhCABDkCQXHxiClH6XTzdeGPCLqq09I5yHMARJkiEIAEOQJBcfGIKUfnHhDZyLT815RjgPYQiSJEMQAIYgSS4+MAQp+db7rRcIzMRXJ17cX3lGOA9hCJIkQxCAIcgQJMnFB4Ygpd/z17sXCcx0Qz8WTekZ4TyEIUiSDEEAhiBvgpJcfGAIUtrFZXdcegNTjx8vnhHOQxiCJMkQBGAI8iYoycUHhiClX/wmSnwdFjC12j14RjgPYQiSJEMQgCFIklx8YAiSZxjkqmprzwjPEgxBkmQIAjAESZKLDwxBSr+48AbOxafmPCOchzAESTIEAWAIkuTiw//CxhCk5Fvvt140MBNfnXhxf+UZ4TyEIUiSIQgAQ5AkFx9gCFL6PX+9e+HATDf0Y9GUnhHOQxiCJBmCADAESXLxAYYgpV1cdselNzD1+PHiGeE8hCFIkiEIAEOQJBcfYAhS+sVvosTXYQFTq92DZ4TzEIYgSYYgAAxBklx8gCFInmuQq6qtPSM8NzAESTIEAWAIkuTiAwxBSr+48AbOxafmPCOchzAESTIEAWAIkuTiAwxBSr71fuuFBDPx1YkX91eeEc5DGIIkGYIAMARJcvEBhiCl3/PXuxcTzHRDPxZN6RnhPIQhSJIhCABDkCQXH2AIUtrFZXdcegNTMZJ6RjgPYQiSZAgCwBAkycUHGIKUfPGbKPF1WMBUfH2iZ4TzEIYgSYYgAAxBklx8gCFInnWQqaqtPSM8IzAESTIEAWAIkuTiAwxBSr+48AZcNDsP4fUpyRAEgCFIkosPMAQp01a7By8umImvToyvUHQeAkOQJEMQAIYgSS4+wBCk5Hv8ePECg5lu6MeiKZ2HwBAkyRAEgCFIkosPMAQp7eKyOy69gannr3fnITAESTIEAWAIkuTiAwxBSr+L+6s/X4cFTK33W+chMARJMgQBYAiS5OIDDEFKv/hNFOBc1dbOQ2AIkmQIAsAQJMnFBxiClH5x4Q24fHYewmtRkiEIAEOQJBcfYAhSpq12D15wMBNfnRifmnMeAkOQJEMQAIYgSS4+wBCk5Hv8ePGig5lu6MeiKZ2HwBAkyRAEgCFIkosPMAQp7eKyOy69gannr3fnITAESTIEAWAIkuTiAwxBSr+L+6s/X4cFTK33W+chMARJMgQBYAiS5OIDDEFKv/hNFOBc1dbOQ2AIkmQIAsAQJMnFBxiClH5x4Q38tS6knYfwupNkCALAECTJxQcYgvQXarV78CKEmfjqxPjUnPMQGIIkGYIAMARJcvEBhiAl3+PHixcizHRDPxZN6TwEhiBJhiAADEGSXHyAIUhpF5fdcekNTD1/vTsPgSFIkiEIAEOQJBcfYAhS+l3cX/35Oixgar3fOg+BIUiSIQgAQ5AkFx9gCFL6xW+iAOeuX1fOQ2AIkmQIAsAQJMnFBxiClH5VW3tRwi8un26ch8AQJMkQBIAhSJKLDzAEKf1WuwcvTJiJr06MT805D4EhSJIhCABDkCQXH2AIUvLF76IAU58/32PRlM5DYAiSZAgCwBAkycUHGIKUdnHZ3Q29FyjMxOvCeQgMQZIMQQAYgiS5+ABDkLIYg+LrsICp+MSc8xAYgiQZggAwBEly8QGGICVf/CaKMQjOXb+unIfAECTJEASAIUiSiw8wBCn9qrb2QoVfXD7dOA+BIUiSIQgAQ5AkFx9gCFL63b7debHCTHxaLj415zwEhiBJhiAADEGSXHyAIUjJF7+LAkx9/nz/+T0t5yEwBEkyBAFgCJLk4gMMQUq6uOzuht6LFmbideE8BIYgSYYgAAxBklx8gCFIWYxB8XVYwFR8Ys55CAxBkgxBABiCJLn4AEOQki9+E8UYBOeuX1fOQ2AIkmQIAsAQJMnFBxiClH5VW3vxwi8un26ch8AQJMkQBIAhSJKLDzAEKf1u3+68gGEmPi0Xn5pzHgJDkCRDEACGIEkuPsAQpOSL30UBpj5/vv/8npbzEBiCJBmCADAESXLxAV6fSrq47O6G3gsZZuJ14TwEhiBJhiAADEGSXHyA16eyGIPi67CAqfjEnPMQGIIkGYIAMARJcvGBIUhKvvhNFGMQnIvf0nIeAkOQJEMQAIYgSS4+MARJyVe1tRc0/CJeG85DYAiSZAgCwBAkycUHhiAp+eLTD8BUfFouPjXnPASGIEmGIAAMQZJcfGAIkpIvfhcFOB+D4ve0nIfAECTJEASAIUiSiw8MQVLydUPvxQ0z8br4d49BzkMYgiQZggAwBEkyBIEhSPp/F5fdnz/fXuAwE5+Ycx4CQ5AkQxAAhiBJLj4wBEnJF7+JEl+HBUzFb2k5D4EhSJIhCABDkCQXHxiCpOS7fLrxIodfVG3tPASGIEmGIAAMQZJcfGAIktLv+nXlhQ4z8Wm5+NSc8xAYgiQZggAwBEly8YEhSEq++F0U4HwMit/Tch4CQ5AkQxAAhiBJLj4wBEnJ1w29FzzMxOviXzkGOQ9hCJJkCALAECTJEASGIOmfUlx2f/58e9HDTHxiznkIQ5AhSJIhCABDkCQXHxiCpOSL30SJr8MCpm7f7pyHMAR5n5RkCALAECTJxQeGICn9Lp9uvPDhF1VbOw9hCJIkQxAAhiBJLj4wBEnpd/268uKHmfi0XHxqznkIQ5AkGYIAMARJcvGBIUhKvvhdFOB8DIrf03IewhAkSYYgAAxBklx8YAiSkq8beg8BmInXxT9rDHIewhAkyRAEgCFIkiEIDEHSv6y47P78+fYggJn4xJzzEIYgSTIEAWAIkuTiA0OQlHzxmyjxdVjA1Gr34DyEIUiSDEEAGIIkufjAECSl3+XTjYcB/KJqa+chDEGSZAgCwBAkycUHhiAp/a5fVx4I8Iv41JzzEIYgSTIEAWAIkuTiA0OQlHzxuyjAVHx14sX9lfMQhiBJMgQBYAiS5OIDQ5CUfs9f7x4MMNMN/Vg0pfMQhiBJMgQBYAiS5OIDQ5CUdnHZHZfewNTjx4vzEIYgSTIEAWAIkuTiA0OQlH7xmyjxdVjA1Gr34DyEIUiSDEEAGIIkufjAECR5bkOuqrb2usIQJEmGIAAMQZJcfGAIktIvLryBc/GpOechDEGSZAgCMAR5E5Tk4gNDkJR86/3WgwJm4qsTL+6vnIcwBEmSIQjAECRJLj4wBEnp9/z17mEBM93Qj0VTOg9hCJIkQxCAIUiSXHxgCJLSLi6749IbmHr8eHEewhAkSYYgAEOQJLn4wBAkpV/8Jkp8HRYwtdo9OA9hCJIkAAxBkuTiA0OQ5FkOuara2msIQ5AkQxAAhiBJLg/BECSlX1x4A+fiU3POQxiCJBmCADAESTIEgSFISr71fuvhATPx1YkX91fOQxiCJBmCADAESTIEgSFISr/nr3cPEJjphn4smtJ5CEOQJEMQAIYgSYYgMARJaReX3XHpDUw9frw4D2EIkmQIAsAQJMkQBIYgKf3iN1Hi67CAqfj6ROchDEGSDEEAGIIkGYLAECR5vkOmqrb2esEQJMkQBIAhSJKLQjAESekXF97A/3257jyEIUiSIQgAQ5AkQxAYgqQki6/CAqbiqxPjKxSdhzAESTIEAWAIkmQIAkOQlHyPHy8eKjDTDf1YNKXzEIYgSYYgAAxBkgxBYAiS0i4uu+PSG5h6/np3HsIQJMkQBIAhSJIhCAxBUvpd3F/9+TosYCq+PtF5CEOQJEMQAIYgSYYgMARJyRe/iQL8PgaBIUiSIQgAQ5AkQxAYgqTkq9raAwbAECTJEASAIUiSIQgMQVKurXYPHjIAhiBJhiAADEGSDEFgCJJy7fHjxYMGwBAkyRAEgCFIkiEIDEFSjhVNOXZD72EDYAiSZAgCwBAkyRAEhiApxy7ur8bD6eiBA2AIkmQIAsAQJMkQBIYgKccWm6UHDoAhSJIhCABDkCRDEBiCpFyr2tpDB8AQJMkQBIAhSJIhCAxBUq6tdg8ePACGIEmGIAAMQZIMQWAIknLt8ePFwwfAECTJEASAIUiSIQgMQVKOFU05dkPvAQRgCJJkCALAECTJEASGICnHLu6vxsPp6CEEYAiSZAgCwBAkyRAEhiApxxabpYcQgCFIkiEIAEOQJEMQGIKkXKva2oMIwBAkyRAEgCFIkiEIDEFSrq12Dx5GAIYgSYYgAAxBkgxBYAiScm2933ogARiCJBmCADAESTIEgSFIyrGiKcdu6D2UAAxBkgxBABiCJBmCwBAk5ToGHU5HDyYAQ5AkQxAAhiBJhiAwBEk5ttgsjUEAhiBJhiAADEGSDEFgCJJyrWprDycAQ5AkQxAAhiBJhiAwBEm5dvt25wEFYAiSZAgCwBAkyRAEhiAp19b7rYcUgCFIkiEIAEOQJEMQGIKkHCuacuyG3oMKwBAkyRAEgCFIkiEIDEFSrmPQ4XT0sAIwBEkyBAFgCJJkCAJDkJRji83SGARgCJJkCALAECTJEASGICnXqrb2wAIwBEkyBAFgCJJkCAJDkJRrt293HloAhiBJhiAADEGSDEFgCJJybb3fenABGIIkGYIAMARJMgSBIUjKsaIpx27oPbwADEGSDEEAGIIkGYLAECTlOgYdTkcPMABDkCRDEACGIEmGIDAESTm22CyNQQCGIEmGIAAMQZIMQWAIknKtamsPMQBDkCRDEACGIEmGIDAESbl2+3bnQQZgCJJkCALAECTJEASGICnX1vuthxmAIUiSIQgAQ5AkQxAYgqRc64beAw3AECTJEASAIUiSIQgMQVKOFU05fv58e6gBGIIkGYIAMARJMgSBIUjKscVmOR5ORw82AEOQJEMQAIYgSYYgMARJOXb5dOPBBmAIkmQIAsAQJMkQBIYgKdeuX1cebgCGIEmGIAAMQZIMQWAIknJtvd96wAEYgiQZggAwBEkyBGEI8vqUcq0beg85AEOQJEMQAIYgSYYgDEGScqxoyvHz59uDDsAQJMkQBIAhSJIhCEOQpBxbbJbj4XT0sAMwBEkyBAFgCJJkCMIQJCnHLp9uPOwADEGSDEEAGIIkGYIwBEnKtevXlQcewN8Rn570XiHJEASAIUiSIQhDkKSkW++3HnoAzkOSDEEAGIIkGYJw8SEp17qh9+ADcB6SZAgCwBAkyRCEiw9JOVY05fj58+3hB+A8JMkQBIAhSJIhCBcfknIsfgvjcDp6AAI4D0kyBAFgCJJkCMLFh6Qcu3y68QAEcB6SZAgCwBAkyRCEiw9JuXb9uvIQBHAekmQIAsAQJMkQhIsPSbm23m89CAHnIe8HkgxBABiCJBmCcPEhKde6ofcwBJyHJMkQBIAhSJIhCBcfknKsaEpjEOA8JEmGIAAMQZIMQbj4kJRri81yPJyOHoqA85AkGYIAMARJMgTh4kOS9yoA5yFJMgQBGIK8CUpyuYaLD0lJVbW1ByPgPCRJhiAADEGSDEG4+JCUa+v91sMRcB6SJEMQAIYgSYYgXHxIyrXnr3cPSMB5SJIMQQAYgiQZgnDxISnHiqYcu6H3kASchyTJEASAIUiSIQgXH5JybLFZjofT0YMScB6SJEMQAIYgSYYgXHxI8v4F4DwkyRAEgCFIkos0cPEhKamqtvawBJyHJMkQBIAhSJIhCBcfknJtvd96YALOQ5JkCALAECTJEISLD0m59vz17qEJOA9JkiEIAEOQJEMQLj4k5VjRlGM39B6cgPOQJBmCADAESTIE4eJDUo4tNsvxcDp6eALOQ5JkCAIwBHkTlGQIwsWHJO9pAM5DkgxBABiCJLk0AxcfkpKqamsPUMB5SJIMQQCGIEkyBOHiQ1KurfdbD1HAeUiSDEEAhiBJMgTh4kNSrj1/vXuQAs5DkgSAIUiSDEG4+JCUY0VTjt3Qe5gCzkOSDEEAGIIkGYLAxYekHLu4vxoPp6MHKuA8JMkQBIAhSJIhCFx8SMqxxWbpgQo4D0kyBAFgCJJkCAIXH5JyrWprD1XAeUiSIQgAQ5AkQxC4+JCUa6vdgwcr4DwkyRAEgCFIkiEIXHxIyrXHjxcPV8B5SJIhCABDkCRDELj4kJRjRVOO3dB7wALOQ5IMQQAYgiQZgsDFh6Qcu7i/Gg+no4cs4DwkyRAEgCFIkiEIXHxIyrHFZukhCzgPSTIEAWAIkmQIAhcfknKtamsPWsB5SJIhCABDkCRDELj4kJRrq92Dhy3gPCTJEASAIUiSIQhcfEjKtcePFw9cwHlIkiEIAEOQJEMQuPiQlGNFU47d0HvoAs5DkgxBABiCJBmCwMWHpBy7uL8aD6ejBy/gPCTJEASAIUiSIQhcfEjKscVm6cELOA9JMgQBYAiSZAgCFx+Scq1qaw9fwHlIkiEIAEOQJEMQuPiQlGur3YMHMOA8JMkQBIAhSJIhCFx8SMq1x48XD2HAeUiSIQgAQ5AkQxC4+JCUY0VTjt3QexADzkOSDEEAGIIkGYLAxYekXMegw+noYQw4D0kyBAFgCJJkCAIXH5JybLFZGoMA5yFJhiAADEGSDEHg4kNSrlVt7YEMOA9JMgQBYAiSZAgCFx+Scu327c5DGXAekmQIAsAQJMkQBC4+JOXaer/1YAachyQZggAwBEkyBIGLD0k5VjTl2A3DnPioAAAgAElEQVS9hzPgPCTJEASAIUiSIQhcfEjKdQw6nI4e0IDzkCRDEACGIEmGIHDxISnHFpulMQhwHpJkCALAECTJEAQuPiTlWtXWHtKA85AkQxAAhiBJhiBw8SEp127f7jyoAechSYYgAAxBkgxB4OJDUq6t91sPa8B5SJIhCABDkCRDELj4kJRjRVOO3dB7YAPOQ5IMQQAYgiQZgsDFh6Rcx6DD6eihDTgPSTIEAWAIkmQIAhcfknJssVkagwDnIUmGIAAMQZIMQeDiQ1KuVW3twQ04D0kyBAFgCJJkCAIXH5Jy7fbtf9i7Yx0nsm/Rw34EHsGP4KRbVVkn5BYPgJxP4oy0A3Is0eVokCwRDZETRIYsRDYSMhkSEnKCJiFoDRFRH6/iT58ZBprutqu8a9f3Sb/s6t5zz+B21V6uWr/74w24HpJkEASAQZAkgyBw8CEp1xbvnvsDDrgekmQQBIBBkCSDIHDwISnH7jy5e7H+9N4fccD1kCSDIAAMgiQZBIGDD0m5DoM2f//lDzngekiSQRAABkGSDILAwYekHBs9u39x/uWzP+aA6yFJBkEAGARJMggCBx+Scmz84oE/5oDrIUkGQQAYBEkyCAIHH5Jybfp65g864HpIkkEQAAZBkgyCwMGHpFxbvHvujzrgekiSQRAABkGSDILAwYekXFt/eu8PO+B6SJJBEAAGQZIMgsDBh6Qcu/Pk7sXm77/8cQdcD0kyCALAIEiSQRA4+JCUY6Nn9y/Ov3z2Bx5wPSTJIAgAgyBJBkHg8ykpx8YvHvgDD7gekmQQBIBBkCSDIPD5lJRr09czf+QB10OSDIIAMAiSZBCEgw9JyrXFu+f+0AOuhyQZBAFgECTJIAgHH5KUa+tP7/2xB1wPSTIIAsAgSJJBEA4+JCnH7jy5e7H5+y9/8AHXQ5IMggAwCJJkEISDD0nKsdGz+xfnXz77ow+4HpJkEASAQZAkgyAcfEhSjo1fPPBHH3A9JMkgCACDIEkGQTj4kKRcm76e+cMPuB6SZBAEgEGQJIMgHHxIUq4t3j33xx9wPSTJIAgAgyBJBkE4+JCkXFt/eu8LAHA9JMkgCACDIEkGQTj4kKQcu/PkrmEQ4HpIkkEQAAZBkgyCcPAhSbk2enb/4vzLZ18EgL+JkgyCADAIkmQQhIMPSfL9DLgekiSDIAAMgiQ5aMLBhyR1qsnLh74MwPWQJBkEAWAQJMkgCAcfkpRri3fPfSGA6yFJMggCwCBIkkEQDj4kKddWH9/4UgDXQ5JkEASAQZAkgyAcfEhSjt15cvdi/em9LwZwPSRJBkEAGARJMgjCwYck5djo2f2L8y+ffTmA6yFJMggCwCBIkkEQDj4kyXc24HpIkgyCAAyCJMmhEg4+JKlTTV4+9AUBrockySAIAIMgSQZBOPiQpFxbvHvuSwJcD0mSQRAABkGSDIJw8CFJubb6+MYXBbgekiSDIAAMgiQZBOHgQ5Jy7M6TuxfrT+99WYDrIUkyCALAIEiSQRAOPiQpx0bP7l+cf/nsCwNcD0mSQRAABkGSDIJw8CFJvscB10OSDIIAMAiS5AAJHHxIUqeavHzoSwNcD0mSQRAABkGSDIJw8CFJubZ499wXB7gekiSDIAAMgiQZBOHgQ5JybfXxjS8PcD0kSQZBAAZBBkGSDIJw8CFJOXbnyd2L9af3vkDA9ZAkGQQBGAT5EpRkEISDD0nKseHTexfnXz77EgHXQ5JkEARgECRJBkE4+JCkHBs9u+9LBFwPSZJBEIBBkCQZBOHgQ5JybfLyoS8ScD0kSQZBAAZBkmQQhIMPScq12ds/fJmA6yFJBkEAGARJMggyCMLBhyTl2vLDK18o4HpIkkEQAAZBkgyCwMGHJOXYnSd3L9af3vtSAddDkgyCADAIkmQQBA4+JCnHhk/vXZx/+eyLBVwPSTIIAsAgSJJBEDj4kKQcGz2774sFXA9JMggCwCBIkkEQOPiQpFybvHzoywVcD0kyCALAIEiSQRA4+JCkXJu9/cMXDLgekmQQBIBBkCSDIHDwIUm5tvzwypcMuB6SZBAEgEGQJIMgcPAhSTl258ndi/Wn975owPWQJIMgAAyCJBkEgYMPScqx4dN7F+dfPvuyAddDkgyCADAIkmQQBA4+JCnHRs/u+7IB10OSDIIAMAiSZBAEDj4kKdcmLx/6wgHXQ5IMggAwCJJkEAQOPiQp12Zv//ClA66HJBkEAWAQJMkgCBx8SFKuLT+88sUDrockGQQBYBAkySAIHHxIUo7deXL3Yv3pvS8fcD0kySAIAIMgSQZB4OBDknJs+PTexfmXz76AwPWQJIMgAAyCJOX2C2Bw8CFJikbP7hsGQSLis+jvkiSDIAAMgiTtJUjN6uMbn01JOlCTlw99EYHrIUkGQQAYBEkyCAIHH5KUa6d//u7LCFwPSTIIAsAgSFIuxU0mpGT54ZXPpiQduMW7576Q4IBmb//wt0iSQRAABkGSDILIU/wS3WdTkg6/R3D96b0vJXA9JMkgCACDIEldL35tCCmZvp75bEpSIsOgWFgPtG/84oG/Q5IMggAwCJJkDwB5Oln+5rMpSYk0enbfMAgOID57/gZJMggCwCBI0l6KQ3dIyfDpPZ9NSUqoycuHvpygZf72SDIIAsAgSNLeikN3cPAhSfIEMaQh9nP5uyPJIAgAgyBJew1Ssfr4xmdSkhJt8e65LypoQXzW/M2RZBAEgEGQpL0Wh++QgtnbP3wmJSnR7jy5Wz+pADRr+nrmb44kgyAADIIk7bc4fIcUxB4Kn0lJSnsYdP7lsy8saNDo2X1/byQZBAFgECRpv41fPHDHTRJiZ5XPpCSlXRxSGwZBM+Kz5e+MJIMgAAyCJO29OHwHBx+SpOsWT3AC+7f88MrfGEkGQQAYBElqps3ff7nzxsGHJOnanf75uy8v2DP7gSQZBAFgECSpsRbvnrvz5qDsB5Ik1w/Qd16TK8kgCACDIEn2BOHgQ5KUTHee3L1Yf3rvSwz2IJ7Q93dFkkEQAAZBkho9yAEHH5Kk21xDxJ43YDezt3/4myLJIAgAgyBJzRY7WsDBhyTppo2e3TcMgh3F58jfE0kGQQAYBElqtFhOCw4+JEleMwuejpZkEASAQZCkDIsdLeDgQ5LkRyXQrvjs+BsiySAIAIMgSV4PR5a8Fk6S8mrx7rkvN7ih+EGWvx+SDIIAMAiS1EqTlw/didMqr4WTpPxaf3rvCw6uKX6I5e+GJIMgAAyCJLXWnSd3LXumNXFQ6HMnSXleT8SrP4FfO1n+5u+GJIMgAAyCJHmlC3mKJ9B85iQpz+KJTz8ugavZlSjJIAgAgyBJBzu4gabF4WD8YtxnTpLybfzigS888KMYSQZBABgESUqx1cc37sxpVDx55rMmSfl3+ufvvvTA00CSDIIAMAiSlFrx60Ro0vDpPZ81SfLaWeitGJL6+yDJIAgAgyBJB82SZ5qy/PDKZ0ySetb603tfgPA/XpErySAIAIMgSZ4KImsny998xiSpZ8Wht2EQfGU3kCSDIAAMgiR5Kohsxf4pny1J6u8wyLUFfWc3kCSDIAAMgiR5KghPA0mSsm307H79Wizoq/GLB/4WSDIIAsAgSJKngvA0kCTJMAhcC0mSQRAABkGSPBVEh8TBn8+UJMkwiL4aPr3n8y/JIAgAgyBJaWa5M7tavHvusyRJMgyit07//N3nXpJBEAAGQZLSLfa6wG3FIV8sCPdZkiQZBtFH8aMqn3dJBkEAGARJSr54ogNuY/p65jMkSTIMore8HleSQRAABkGSOlE80eGQBr+AlSQ1NQza/P2XL068Ek6SDIIAMAiSdMgmLx+6m8cvYCVJjf3oxF5CcrL6+MZnW5JBEAAGQZK6V9zQgl/ASpIMg+Dn4kn64dN7PteSDIIAMAiS5BVxeCWcJEnfZzchXXey/M1nWZJBEAAGQZK62/jFA3f3eCWcJKnR4slS8FS0JBkEAWAQJMkvdUnM9PXMZ0SStJdiP6EnkemSuEb22ZVkEASAQZAk7/AnW8sPr3w+JEl7LZ4y3fz9ly9ZkhfXxnGN7HMrySAIAIMgSVkdzPiVLg4/JElt/ABl9fGNL1tcB0mSQRAABkGS7AviEGIgaC+QJMneIFwHSZJBEAAGQZIyLHbC0G8xEPRZkCS10cnyN08kYwgkSQZBABgESWq7WIxLP8Uib58BSVLbr4qLvXRgCCRJBkEAGARJajHv7u+fGAD6ty9JOuRTyZ4OwhBIkgyCADAIktTir3NjUS6GQJIktdXw6T3XHxgCSZJBEAAGQZIMgzAEkiTl3Omfv/uCxhBIkgyCAAyCJMkwCEMgSVLOTwd5VS1NievbuM71WZNkEASAQZAkGQYZAkmSZHcQGYkBoyGQJIMgAAyCJMkwyBBIkqSErkPiuwtcA0kyCALAIEiSDINwACJJyrST5W+uRbi1ycuHPkeSDIIAMAiSpOvkF7ndFcu3/RuWJHW9OND3ujiua/P3XxejZ/d9diQZBAFgECRJNykGCvgVrCRJh3xSOa5HDIS4yvLDK/uAJBkEAWAQJEl+jZu3+G/kV7CSpJwHQp5W5kfXP9PXM58RSQZBABgESdKuxYAhXrdBmmKPgl/BSpL60PDpPQMhaquPb+p/Dz4XkgyCADAIkqQ9/hI3XrtBWmZv//DvU5JkIISngCTJIAgAgyBJ2k9x4+1VcWkcgpwsf/NvUpJkIPTuuWuTHu0C8hSQJIMgAAyCJKmlV8XF68iwEFmSpFSeXD7983cDoUzFK4r9AEaSQRAABkGSdIDiwIV2nwIav3jg354kSVc0efnQD1YyuvaJ603/riUZBAFgECRJB34lSyzrpVnx2htPAUmSdP3iCRJ7hLorBkCufSQZBAFgECRJCRVPqsRrO9iv+EWzV6FIkrTba+Nix6HrlO78+MUeIEkGQQAYBEmS9/P34l348Wob/64kSdpfsecwBg2uVdJ8BZwBkKT+Vpw7DAUwCJKkzg2EZm//cKqxw0GIV6FIktRs8YOL5YdXLj4O/MMX1z2StK0qVg5DAfpofjz2RSip68WvOv3q1gBIkqTUf8BiKNSu2C/pyWdJMggCoDoa+SKU5JVx/XkFnAGQJElpXLPE3kM/ZGnmmieeGPf6N0n64SDo1GEoQG+fCvJFKCnP17CsP73v/WFI/Oo4Dpr8m5AkKd1ip1D8mMW1y+2feI6hmmseSfpVx2MHoQC9fSqoXPoilJTzwUr8KrRPv7b99h58v4SVJKm7TwvF9YvB0NXXO4Y/knTDHo3uOAgF6KuzcurLUFIfyvkVLN9egxKDL/+tJUnKczAUO2/6vvNn+nrmekeSblWxdggK0GePiqEvQ0l9fVKoy7+0dRgiSVI/O1n+Vl8DxA9cch4Oxf/f4inn+P+v/+6StGPxQ3AAeq4qVr4UJfmlbbq/tI2nmByGSJKkq37kEtczca0QOwK7NCD6dp0T12Kx59GPXCSpidfCFUMHoAAGQRNfipL078OUOIiIw5Q4mGjzyaH4fy8OcOL/7TjQsetHkiTt8oOX+BHJt+uabz98idp8XW68xvaf1zjxP0/8zxX/8/nvJEkNF/vBAeDrMKjc+HKUpOsdpkTffnW7S/F/x7f/+/zvV5IkHfJHMN+uSb69em7XaxvXN5KUSI+LEwefAHgqSJIkSZIkScruaaBi5dATAE8FSZIkSZIkSZ4GAsBTQZIkSZIkSZK68TSQ3UAA/HwYtPJlKUmSJEmSJHW14nzwqBg66ATgx+JLIr4sfGlKkiRJkiRJ3eusnDrkBOBq8WXhS1OSJEmSJEnq2CvhipXDTQCuJ94j6stTkiRJkiRJ6tAr4UZ3HGwCcD3xpTEv1r5AJUmSJEmSpC48DXQ0cqgJwM2HQVW58UUqSZIkSZIkJf1KuInDTABuJ35JEI+V+kKVJEmSJEmSDIEAyPHJoGLoNXGSJEmSJEmSIRAA2Q6D6tfELX3BSpIkSZIkSYeuOLcTCIBmnJVTr4qTJEmSJEmSDvUUULmsf7QNAM09HVQMPR0kSZIkSZIktToA2gweFycOJwFoT3zx2B0kSZIkSZIkNfsauHhLDwAcTCyl87o4SZIkSZIkad9DoIXXwAGQhvhCqsqZL2dJkiRJkiRp19fAFatBdTRy6AhAggOh2B+0/aLyhS1JkiRJkiTdcABUbgbz47FDRgDSF/uD6i8uX+CSJEmSJEnSL14Bdz6oilOHigB0Tyyysz9IkiRJkiRJ+tkQaFG/ZQcAOiv2B8UXmi92SZIkSZIk6X+vgStW9Vt1ACAbseDO/iBJkiRJkiR5DdzEYSEA+YqFd/YHSZIkSZIkqX9PAZ3Wb88BgOzFF1588dkfJEmSJEmSpOwHQOXSHiAAejoQ2n4B2h8kSZIkSZKkPF8Dt7YHCABCfCHaHyRJkiRJkqQ8BkDng7Ny6tAPAL4Xi/K8Lk6SJEmSJEndfQ3czB4gALjK5f4gFw6SJEmSJEnqygCoWNkDBAA3GghtvzhjkZ4LCUmSJEmSJKX7BNDGHiAA2EV8kcZiPRcWkiRJkiRJSqbivH6rDQCwJ7Fgz/4gSZIkSZIkHX4ItLAHCACaUO8PKmcuNiRJkiRJktT+a+CK1aA6GjmkA4DGB0KxP2j7xesCRJIkSZIkSY0PgMrNYH48digHAG2L/UH1F7ELEkmSJEmSJO39FXBf9wB5DRwAHFh8IdsfJEmSJEmSpP0NgRb1W2kAgETELzPiC9qFiiRJkiRJkm4/AFrXb6EBAFJ9OuhoZH+QJEmSJEmSbvEauInDNQDozEBo+8Vtf5AkSZIkSZJ+lT1AANBR8QVuf5AkSZIkSZJ+OAAql/YAAUAWA6HtF7r9QZIkSZIkSfo6ANrYAwQAOYov+Fj454JHkiRJkiSphxXng7Ny6pAMAHIX+4O8Lk6SJEmSJKlPTwHN7AECgD653B/kQkiSJEmSJCnfAVCxsgcIAHo9ENpeCMRiQBdGkiRJkiRJOT0BtBnMj8cOvwCAr2J/UH2B4EJJkiRJkiSpuxXn9VtgAAB+KBYG2h8kSZIkSZLUxSHQwh4gAODX6v1B5czFkyRJkiRJUhdeA1esBtXRyKEWAHAzcQERFxIuqCRJkiRJkhIcAJWbQVVMHGIBALuJxYL2B0mSJEmSJKXyCrive4C8Bg4A2Ku4wLA/SJIkSZIk6ZBPAS0Hj4qhgyoAoBnxS5NYPOjCS5IkSZIkqc2ngNaDx8WJwykAoB1x4WF/kCRJkiRJUhuvgZs4jAIADiMuROwPkiRJkiRJauA1cPYAAQApiAsS+4MkSZIkSZL2NQBa2QMEACQ4ENpeoMTCQhdskiRJkiRJtxgAlRt7gACA9MUFSywwdAEnSZIkSZJ0jYrzwVk5dagEAHRL7A/yujhJkiRJkqSrngKa2QMEAHTX5f4gF3aSJEmSJEn/PwAqVoPqaOTwCADIZCAU+4O2Fzgu9CRJkiRJUr+fANoM5sdjh0UAQJ5if1B9wePCT5IkSZIk9anivH5rCgBAL8QCRPuDJEmSJElSP4ZAC3uAAID+iQuguBByQShJkiRJkrJ8DVyxqt+OAgDQa7EY0f4gSZIkSZKUzQCo3AyqYuLQBwDgn2JRov1BkiRJkiSp208BnXoNHADAVeKCyf4gSZIkSZLUraeAloNHxdDBDgDAdcSFk/1BkiRJkiQp+Yq1PUAAALcVF1L2B0mSJEmSpPQGQOf2AAEA7EtcWNkfJEmSJEmS0ngN3MweIACAfYsLrHp/kAtOSZIkSZJ0iAFQsbIHCACg8YHQ9oIrFjC6AJUkSZIkSe08AbSxBwgAoG1xARYLGV2QSpIkSZKkRirOB2fl1CEMAMAhxf6guDBzgSpJkiRJkvY3BFrYAwQAkIp6f1A5c5EqSZIkSZJ2ew1csRpURyOHLQAASQ6EYn/Q9oLNhaskSZIkSbrRAKjcDObHY4crAABdEPuD6gs4F7KSJEmSJOnKV8CdD6ri1GvgAAC6KC7k7A+SJEmSJEk/HgIt6reLAADQYfGLnriwc4ErSZIkSZLq18AVq/ptIgAAZCQWPdofJEmSJElS318DN3FIAgCQs1j8aH+QJEmSJEl9ewrIHiAAgN6ICz/7gyRJkiRJ6sEAqFzaAwQA0NuB0PZC0P4gSZIkSZJyfA3c2h4gAAC+igtD+4MkSZIkScpjD9BZOXXYAQDAf8XCSK+LkyRJkiSpq6+Bm9kDBADA1S73B7mAliRJkiSpGwOgYmUPEAAANxwIbS8gY6GkC2pJkiRJklJ9AmhjDxAAALuJC8pYMOkCW5IkSZKkdPYAxds8AABgb2LRpP1BkiRJkiQdegi0sAcIAIBm1PuDypmLbkmSJEmSDrAHqDoaOZwAAKCFgVDsD9pegLoQlyRJkiSp+T1AVTFxGAEAQPvmx+P6gtSFuSRJkiRJzewB8ho4AAAOLi5M7Q+SJEmSJGmPe4CKoQMHAADSEb9QigtVF+ySJEmSJN12ALQePC5OHDIAAJCuWFxpf5AkSZIkSTd9DdzEoQIAAB0aCG0vYO0PkiRJkiTp6uwBAgCgs+JC1v4gSZIkSZJ+MAAql/YAAQCQyUBoe2Frf5AkSZIkSRf12zPsAQIAIEtxoRuLL134S5IkSZL6uAforJw6HAAAIH+xP8jr4iRJkiRJ/XkKaGYPEAAA/XK5P8gNgSRJkiQp1wFQsbIHCACAng+EthfEcWHsBkGSJEmSlNMeoPnx2E0/AAB8E/uD6gtlNwySJEmSpA7vAYq3XwAAAD8RizPtD5IkSZIkdW8ItLAHCAAArqPeH1TO3ERIkiRJkjqxByjecgEAANxQdTSyP0iSJEmSlOweoKqYuHkHAIBdxYJN+4MkSZIkSSntAfIaOAAA2LO40LY/SJIkSZJ0uKeAloNHxdANOgAANCV+cRULON2ASJIkSZLaewpobQ8QAAC0KS7A7Q+SJEmSJDX/GriJm3AAADiUuCC3P0iSJEmStPfXwNkDBAAAaYgLc/uDJEmSJEn7GQCt7AECAIAkB0LbC/VY3OnGRZIkSZJ04wFQubEHCAAAuiAu3GORpxsZSZIkSdJ19gCdlVM30wAA0DWxP8jr4iRJkiRJP38KaGYPEAAAdFm9P2h7Ye8GR5IkSZL0zz1A1dHITTMAAGQzEIr9QdsLfTc8kiRJktTvPUDz47GbZAAAyFXsD6ov/N0ASZIkSVKv9gBVxambYgAA6ItYBGp/kCRJkiT1YQi0qN8SAQAA9EzsD4obAjdGkiRJkpTnHqB4KwQAANBzsSDU/iBJkiRJymcPUFVM3OwCAAD/FgtD7Q+SJEmSpC4/BXRav/0BAADgp+LGwf4gSZIkSerSU0BLe4AAAIDrixsI+4MkSZIkKfGKtT1AAADA7cUNhf1BkiRJkpTaAOjcHiAAAGB/4gbD/iBJkiRJSuE1cDN7gAAAgP2LG416f5AbL0mSJElqfwBUrOwBAgAAWhgIbW88YhGpGzFJkiRJauMJoI09QAAAQPviRiQWk7oxkyRJkqSm9gCduvkEAAAO66yc1jcobtQkSZIkaV9DoIU9QAAAQDrq/UHlzM2aJEmSJO24B6g6GrnJBAAAEh0Ixf6g7Y2LGzhJkiRJutkeoPnx2E0lAADQDbE/qL6RcUMnSZIkSb/cA+Q1cAAAQCfFDY39QZIkSZL0kz1AxdCNIwAA0G3xy7a4wXGjJ0mSJElf9wDFWxQAAACyEgtP7Q+SJEmS1O/XwE3cHAIAAHmLBaj2B0mSJEnq11NA9gABAAA9EjdA9gdJkiRJyn4AVC7tAQIAAHo8ENreENkfJEmSJCm/18Ct7QECAAD4Jm6Q7A+SJEmSlMMeoLNy6iYPAADgR2JxqtfFSZIkSerma+Bm9gABAAD8yuX+IDeSkiRJkrowACpW9gABAADceCC0vZGKxapuLCVJkiSl+QTQZjA/Hrt5AwAA2EW9PyhusNxoSpIkSUpkD1C8xQAAAIA9ioWr9gdJkiRJOuwQaGEPEAAAQFPq/UHlzM2nJEmSpNb3AFVHIzdlAAAArQyEYn/Q9kbMDakkSZKkpvcAVcXETRgAAMAhxGJW+4MkSZIkNbUHyGvgAAAAEhA3aPYHSZIkSdrbHqBi6EYLAAAgJfFLvbhhc+MqSZIk6XYDoPXgcXHi5goAACBlscDV/iBJkiRJN3sN3MTNFAAAQKcGQtsbOfuDJEmSJF2VPUAAAAAdFjd09gdJkiRJ+s8AqFzaAwQAAJDNQGh7gxc3em54JUmSpL4PgDb2AAEAAOQqbvhiAawbYEmSJKl/e4DOyqmbIgAAgD6I/UFeFydJkiT15SmgmT1AAAAAfXO5P8iNsSRJkpTnAKhYDaqjkZsfAACAXg+EYn/Q9gbRjbIkSZKUzx6g+fHYzQ4AAAD/L/YH1TeMbpwlSZKkzu4Biqf+AQAA4Kdigaz9QZIkSVLXhkALe4AAAAC4nnp/UDlzMy1JkiR1YA9QPN0PAAAANxaLZe0PkiRJktLcA1QVEzctAAAA7C4WzdofJEmSJKWzB8hr4AAAANi7uOG0P0iSJEk61FNAy8GjYujGBAAAgObELw9jEa0bcUmSJKmtp4DW9gABAADQrrgRtT9IkiRJavo1cBM3HwAAABxO3JjaHyRJkiTt+TVw9gABAACQirhBrfcHuWGXJEmSdhwArewBAgAAINGB0PaGNRbYuoGXJEmSbjgAKjf2AAEAANANcQMbC23d0EuSJEm/3gN0Vk7dRAAAANA9sT8obmzd4EuSJEk/GgIt7AECAACg2+r9QeXMTb4kSZL0jz1A1dHIzQIAAAAZDYRif9D2hteNvyRJkvq8B2h+PHZzAAAAQL5if1B9A+wgQJIkST3aA1QVp24GAAAA6I9YiGt/kCRJknqxB6gYugEAAACgf2J/UNwYOyCQJElSjnuA4ml4AAAA6L1YlGt/kCRJknLZA1QVExf5AAAA8L1YnGt/kCRJkrr7FNBp/dQ7AGDVc50AABI0SURBVAAAcIW4gbY/SJIkSd15CmhpDxAAAADcRNxI2x8kSZKkpCvW9gABAADALuLG2v4gSZIkpTUAOh+clVMX6wAAALAvsXDX6+IkSZJ0+NfAzewBAgAAgCbEDXe9P8gBhCRJktoeABUre4AAAACglYHQ9gY8FvI6kJAkSVLzTwBt7AECAACAQ4gb8ljQ64BCkiRJTewBiqfRAQAAgAOLRb32B0mSJGl/Q6CFPUAAAACQknp/UDlzaCFJkqSd9gBVRyMX1wAAAJDsQCj2B21v4B1kSJIk6SZ7gObHYxfTAAAA0BWxP6i+oXewIUmSpF/sAfIaOAAAAOiouLG3P0iSJEk/3ANUDF0wAwAAQNfFLzzjRt+BhyRJkuI1wvH0OAAAAJCZWPxrf5AkSVKfXwM3cVEMAAAAuYtFwPYHSZIk9ekpIHuAAAAAoFfiIMD+IEmSpMwHQOXSHiAAAADoszgYsD9IkiQptwHQxh4gAAAA4P/FQcG8WDs4kSRJ6vgeoLNy6uIWAAAA+LFYIOx1cZIkSV18CmhmDxAAAADwa5f7gxyoSJIkpT8AKlb2AAEAAAA3FwcKsWDYAYskSVKae4Dmx2MXrQAAAMBuYn9QfdDgwEWSJCmJPUDx9DYAAADAXsXiYfuDJEmSDjkEWtgDBAAAADSn3h9UzhzCSJIktbwHqDoauRgFAAAA2lHvDypWDmYkSZIa3gNUFRMXnwAAAMBhxIJi+4MkSZKa2QPkNXAAAABAEuKgwv4gSZKkPe0BKoYuMAEAAIC0xC9W4+DCAY4kSdJtBkDrwePixEUlAAAAkLY4wLA/SJIk6SavgZu4iAQAAAC6JQ407A+SJEn6efYAAQAAAJ0WBxv2B0mSJH0/AFrZAwQAAADkIw46qnLp4EeSJPV7AFRu7AECAAAA8hUHH7EI2UGQJEnq2x6gs3LqYhAAAADoh9gf5HVxkiSpH08BzewBAgAAAPrncn+QAyJJkpTpHqDqaOSiDwAAAOi3en9QsXJgJEmSstkDND8eu8gDAAAA+KfYH1QfnDhAkiRJHd0DFE87AwAAAHCFWKRsf5AkSerWEGhhDxAAAADAddX7g8qZQyVJkpT8HqB4qhkAAACAW4gFy/YHSZKkFPcAVcXExRoAAADAPsTCZfuDJElSKnuAvAYOAAAAoAFx8GJ/kCRJOsxTQMvBo2LoggwAAACgSXEAEwuZHUhJkqR2ngJa2wMEAAAA0LY4kLE/SJIkNfsauImLLgAAAIBDigMa+4MkSdJ+XwM3swcIAAAAIBVxUFPvD3JwJUmSdhkAFSt7gAAAAABSFQc3scjZQZYkSbrZE0Abe4AAAAAAuiIOcmKxs4MtSZL0qz1AZ+XUxRMAAABAF8X+oDjgcdAlSZL+OwRa2AMEAAAA0HX1/qBy5rBLkiRd7gGqjkYukgAAAAByUu8PKlYOwCRJ6vEeoPnx2EURAAAAQM5if1B9EORATJKk3uwBqopTF0EAAAAAfRKLoe0PkiSpB3uAiqELHwAAAIA+iv1BcUDkoEySpPz2AMVTwAAAAABQL4y2P0iSpFxeAzdxcQMAAADAf8UCafuDJEnq6lNAp/XTvgAAAADwU3GAFAdJ9gdJktSRAVC5tAcIAAAAgJuJAyX7gyRJSvk1cGt7gAAAAADYTRww2R8kSVJae4DOyqmLFAAAAAD2JxZPe12cJEmHfg3czB4gAAAAAJpxuT/IQZwkSe0OgIqVPUAAAAAAtCMOomIxtYM5SZKafgJoYw8QAAAAAIcRB1OxqNpBnSRJ+98DFE/hAgAAAMDBxcJq+4MkSdrXEGhhDxAAAAAAaan3B5Uzh3eSJO2wB6g6GrmoAAAAACBd9f6gYuVAT5KkG+wBmh+PXUQAAAAA0B2xP6g+2HLAJ0nSlXuAvAYOAAAAgM6KAy77gyRJ+sEeoGLoQgEAAACA7otfOseBl4M/SZIB0Lp+ahYAAAAAshMLsO0PkiT19zVwExcDAAAAAOQvDsLsD5Ik9SV7gAAAAADonTgQsz9IkpT1AKhc2gMEAAAAQL/FAZn9QZKkvAZAG3uAAAAAAOCf4sAsFmg7QJQkdXkP0Fk59aUOAAAAAD8T+4O8Lk6S1L2ngGb2AAEAAADAdVzuD3KwKElKfQBUrOwBAgAAAIDbiIO1WLTtoFGSlOIeoPnx2Jc1AAAAAOwq9gfVB24OHiVJCewBiqdWAQAAAIA9iwXc9gdJkg43BFrYAwQAAAAATar3B5Uzh5GSpFb3AFVHI1/CAAAAANCWOJCLgzkHlJKkJvcAVcXEly4AAAAAHEos6rY/SJLUxB4gr4EDAAAAgETEgZ39QZKk3Z8CWg4eFUNfrAAAAACQmvjldizydpApSbr5U0DrwePixJcpAAAAAKQuDvLsD5IkXf81cBNfngAAAADQNXGwZ3+QJOmnr4GzBwgAAAAAui0O+OwPkiT9ewC0sgcIAAAAAHISB36xANwBqCT1eABUbuwBAgAAAICcxQFgLAR3ICpJ/doDdFZOfQkCAAAAQF/E/iCvi5OkPjwFNLMHCAAAAAD66HJ/kINSScpyD1B1NPJlBwAAAAB9V+8PKlYOTiUpkz1A8+OxLzcAAAAA4N9if1B9gOggVZI6uQconvIEAAAAALhSLBS3P0iSujQEWtRPdwIAAAAAXEvsD4qDRQeskpT2HqB4mhMAAAAA4FZi0bj9QZKU3h6gqpj4kgIAAAAA9iMWj9sfJEkpPAV0Wj+1CQAAAACwd3EAaX+QJB3iKaClPUAAAAAAQPPiINL+IElqqWJtDxAAAAAA0L44mLQ/SJKaGgCd2wMEAAAAABxeHFTaHyRJ+3wN3MweIAAAAAAgHXFgWe8PcoArSbcfABUre4AAAAAAgHTFAWYsNHegK0k3eQJoYw8QAAAAANAdcaAZC84d8ErS1XuAzsqpLw0AAAAAoJtif1AcdDrwlaTvh0ALe4AAAAAAgO6r9weVM4e+kvS/PUDV0ciXAwAAAACQl3p/ULFyECypt3uA5sdjXwYAAAAAQN5if1B9IOpgWFJP9gBVxanXwAEAAAAA/RIHo/YHScp+D1Ax9AcfAAAAAOin+IV8HJQ6MJaU2x6gePoRAAAAAICtWJxuf5CkPF4DN/FHHQAAAADgR2KRuv1Bkrr5FJA9QAAAAAAAvxQHqfYHSerMAKhc2gMEAAAAAHBTcbBqf5CkdF8Dt7YHCAAAAABgV3HQan+QpJT2AJ2VU3+cAQAAAAD2KRawe12cpMO+Bm5mDxAAAAAAQFMu9wc5kJbU5gCoWNkDBAAAAADQljiQjQXtDqglNfsE0MYeIAAAAACAQ4kD2ljY7sBa0r73AMXThwAAAAAAJCAWt9sfJGk/Q6CFPUAAAAAAAKmp9weVM4fYkm69B6g6GvljCgAAAACQsnp/ULFysC3p2nuAqmLijycAAAAAQJfMj8f1Aa+DbklX7QHyGjgAAAAAgA6Lg177gyT9Zw9QMfQHEgAAAAAgB/GL/zj4dQAu9X0AtB48Lk78UQQAAAAAyFEsgrc/SOrra+Am/ggCAAAAAPRBHAjbHyT1I3uAAAAAAAB6KA6G7Q+SMh4AlUt7gAAAAAAA+i4Oiu0PknIaAG3sAQIAAAAA4N/i4DgWyTtIl7q7B+isnPpjBgAAAADAz8X+IK+Lk7r2FNDMHiAAAAAAAK7ncn+QA3Yp7QFQsbIHCAAAAACA24kD5jhoduAupbcHaH489kcKAAAAAIDdxf6g+uDZAbx08D1A8bQeAAAAAADsXSyitz9IOtQQaGEPEAAAAAAAzar3B5Uzh/JSi3uA4qk8AAAAAABoTXU0sj9IangPUFVM/LEBAAAAAOBwYmG9/UHS/vcAeQ0cAAAAAADJiINr+4OkXZ8CWg4eFUN/UAAAAAAASE88wRAL7R3oSzd9CmhtDxAAAAAAAN0QB9r2B0nXfQ3cxB8NAAAAAAC6Jw647Q+SfvIaOHuAAAAAAADoujjotj9I+ucAaGUPEAAAAAAAeYmD76pcGgSovwOgcmMPEAAAAAAAeYuD8HmxNhhQr/YAnZVTH34AAAAAAPoj9gd5XZzyHwIt7AECAAAAAKCf6v1B5cywQFnuAaqORj7kAAAAAABQ7w8qVgYIymIP0Px47EMNAAAAAADfi/1B9UG6gYI6uAeoKk59iAEAAAAA4FfOyqn9QerWHqBi6IMLAAAAAADXFfuD4oDdoEEp7wGKp9gAAAAAAIBbqo5G9gcpuT1AVTHx4QQAAAAAgH2ZH4/tD1ICTwGd1k+rAQAAAAAADYiDePuD1P5TQEt7gAAAAAAAoA1xIG9/kFqpWNsDBAAAAAAAhxAH9PYHqZkB0Lk9QAAAAAAAkII4sLc/SPt7DdzMHiAAAAAAAEhJHNzX+4MMMnTbAVCxsgcIAAAAAABSFgf5Vbk02NANngDa2AMEAAAAAABdEgf782Jt0KFf7AE69WEBAAAAAICuOiun9YG/wYf+PQRa2AMEAAAAAAA5qPcHlTPDD9V7gKqjkQ8FAAAAAADkpt4fVKwMRHq6B2h+PPYhAAAAAACA3MX+oHowYEDSmz1AXgMHAAAAAAA9EwMC+4My3wNUDP1DBwAAAACAvoonRWJgYHCS1x6geOoLAAAAAACgVh2N7A/K4jVwE/+YAQAAAACAH5sfj+0P6uRTQPYAAQAAAAAA1xADBfuDOjIAKpf2AAEAAAAAADcXAwb7g1J9DdzaHiAAAAAAAGB3MXCwPyidPUBn5dQ/SgAAAAAAYL+qYuJ1cQd9DdzMHiAAAAAAAKA5l/uDDGbaGwAVK3uAAAAAAACA9sRgoiqXBjWNPgG0GcyPx/6xAQAAAAAAh1HvD4qBhcHNXvcAxVNXAAAAAAAASTgrp/YH7WUItLAHCAAAAAAASE+9P6icGebccg9QdTTyjwgAAAAAAEhbvT+oWBnwXHMPUFVM/KMBAAAAAAC6ZX48tj/oF3uAvAYOAAAAAADotBh42B/03R6gYugfBgAAAAAAkId48iUGIP0eAK0Hj4sT/xgAAAAAAIA8VUej/u0Pql8DN/EfHwAAAAAA6IcYjPRhf5A9QAAAAAAAQC/FgCTX/UFVubQHCAAAAAAAIAYmMTjJYwC0sQcIAAAAAADgezFAmRfrzu4BOiun/iMCAAAAAABcJfYHdel1cVU5swcIAAAAAADgui73B6U8ACpWg+po5D8WAAAAAADAbdT7g4pVcnuA5sdj/3EAAAAAAAD2IfYH1QOYA+8BiqeUAAAAAAAAaMBZOT3M/qBiYQ8QAAAAAABA0y73B7UxEIoBUDH0v3QAAAAAAIC2VcVkUJXLPQ9/1vWTRwZAAAAAAAAAiaj3CBWn21bX3ydU7/2J//Ozeqhk+AMAAAAAANAhMSD6PgMfAAAAAAAAAAAAAAAAAAAAAAAAAAAAAAAAAAAAAAAAAAAAAAAAAAAAAAAAAAAAAAAAAAAAAAAAAAAAAAAAAAAAAAAAAAAAAAAAAAAAAAAAAAAAAAAAAAAAAAAAAAAAAAAAAAAAAAAAAAAAAAAAAAAAAAAAAAAAAAAAAAAAAAAAAAAAAAAAAAAAAAAAAAAAAAAAAAAAAAAAAAAAAAAAAAAAAAAAAAAAAAAAAAAAAAAAAAAAAAAAAAAAAAAAAAAAAAAAAAAAAAAAAAAAAAAAAP6vPTggAQAAABD0/3U/QgUAAAAAAAAAAAAAAAAAAAAAAAAAAAAAAAAAAAAAAAAAAAAAAAAAAAAAAAAAAAAAAAAAAAAAAAAAAAAAAAAAAAAAAAAAAAAAAAAAAAAAAAAAAAAAAAAAAAAAAAAAAAAAAAAAAAAAAAAAAAAAAAAAAAAAAAAAAAAAAAAAAAAAAAAAAAAAAAAAAAAAAAAAAAAAAAAAAAAAAAAAAAAAAAAAAAAAAAAAAAAAAAAAAAAAAAAAAAAAAAAAAAAAAAAAAAAAAAAAAAAAAAAAAAAAAAAAAAAAAAAAAAAAAAAAAAAAAAAAAAAAAAAAAAAAAAAAAAAAAAAAAAAAAAAAAAAAAAAAAAAAAAAAAAAAAAAAAAAAAAAAAAAAAAAAAAAAAAAAAAAAAAAAAAAAAAAAAAAAAAAAAAAAAAAAAAAAAAAAAAAAAAAAAAAAAAAAAAAAAAAAAAAAAAAAAAAAAAAAAAAAAAAAAAAAAAAAAAAAAAAAAAAAAAAAAAAAAAAAAAAAAAAAAAAAAAAAAAAAAAAAAAAAAAAAAAAAAAAAAAAAAAAAAAAAAAAAAIC5AEveDc6ilibPAAAAAElFTkSuQmCC;fontSize=6;strokeWidth=2;" parent="1" vertex="1">
          <mxGeometry x="-602" y="216" width="30" height="30" as="geometry" />
        </mxCell>
        <mxCell id="zASXWuwOFtAYf3o6rH9Y-10" value="" style="endArrow=classic;startArrow=classic;html=1;strokeColor=#b85450;strokeWidth=1;fontSize=8;fontColor=#000000;fillColor=#f8cecc;dashed=1;" parent="1" edge="1">
          <mxGeometry width="50" height="50" relative="1" as="geometry">
            <mxPoint x="-584" y="180" as="sourcePoint" />
            <mxPoint x="-537.38" y="187.57999999999998" as="targetPoint" />
            <Array as="points">
              <mxPoint x="-559" y="210" />
            </Array>
          </mxGeometry>
        </mxCell>
        <mxCell id="zASXWuwOFtAYf3o6rH9Y-11" value="&lt;span style=&quot;font-size: 8px&quot;&gt;&lt;font style=&quot;font-size: 8px&quot;&gt;DWH&lt;/font&gt;&lt;/span&gt;" style="rounded=0;whiteSpace=wrap;html=1;fontSize=8;fillColor=#fff2cc;strokeColor=#d6b656;" parent="1" vertex="1">
          <mxGeometry x="-535.75" y="329" width="37.5" height="30" as="geometry" />
        </mxCell>
        <mxCell id="zASXWuwOFtAYf3o6rH9Y-12" value="&lt;span style=&quot;font-size: 8px&quot;&gt;&lt;font style=&quot;font-size: 8px&quot;&gt;3rd Party aggregators&lt;/font&gt;&lt;/span&gt;" style="rounded=0;whiteSpace=wrap;html=1;fontSize=8;fillColor=#fff2cc;strokeColor=#d6b656;" parent="1" vertex="1">
          <mxGeometry x="-492.75" y="368" width="53.75" height="36" as="geometry" />
        </mxCell>
        <mxCell id="zASXWuwOFtAYf3o6rH9Y-13" value="" style="endArrow=classic;startArrow=classic;html=1;strokeColor=#b85450;strokeWidth=1;fontSize=8;fontColor=#000000;fillColor=#f8cecc;dashed=1;entryX=0.5;entryY=0.559;entryDx=0;entryDy=0;entryPerimeter=0;" parent="1" source="nwB4_m3L2SUhbiX_EwjS-4" target="nwB4_m3L2SUhbiX_EwjS-1" edge="1">
          <mxGeometry width="50" height="50" relative="1" as="geometry">
            <mxPoint x="-574" y="190.0000000000001" as="sourcePoint" />
            <mxPoint x="-527.3799999999999" y="197.57999999999993" as="targetPoint" />
          </mxGeometry>
        </mxCell>
        <mxCell id="zASXWuwOFtAYf3o6rH9Y-14" value="" style="endArrow=classic;startArrow=classic;html=1;strokeColor=#b85450;strokeWidth=1;fontSize=8;fontColor=#000000;fillColor=#f8cecc;dashed=1;" parent="1" source="nwB4_m3L2SUhbiX_EwjS-4" target="MFkD_TH9y4HgoGXGHOmQ-79" edge="1">
          <mxGeometry width="50" height="50" relative="1" as="geometry">
            <mxPoint x="-478.3942993848259" y="223.4799999999999" as="sourcePoint" />
            <mxPoint x="-479" y="300.05999999999995" as="targetPoint" />
          </mxGeometry>
        </mxCell>
        <mxCell id="zASXWuwOFtAYf3o6rH9Y-15" value="&lt;span style=&quot;font-size: 8px&quot;&gt;&lt;font style=&quot;font-size: 8px&quot;&gt;IBFT&lt;/font&gt;&lt;/span&gt;" style="rounded=0;whiteSpace=wrap;html=1;fontSize=8;fillColor=#fff2cc;strokeColor=#d6b656;" parent="1" vertex="1">
          <mxGeometry x="-492.75" y="405" width="37.5" height="36" as="geometry" />
        </mxCell>
        <mxCell id="MFkD_TH9y4HgoGXGHOmQ-78" value="Integration" style="text;html=1;strokeColor=none;fillColor=none;align=center;verticalAlign=middle;whiteSpace=wrap;rounded=0;fontStyle=1;fontColor=#3399FF;labelBackgroundColor=none;fontSize=10;" parent="1" vertex="1">
          <mxGeometry x="-525" y="101" width="70" height="20" as="geometry" />
        </mxCell>
        <mxCell id="zASXWuwOFtAYf3o6rH9Y-16" value="&lt;span style=&quot;font-size: 8px&quot;&gt;&lt;font style=&quot;font-size: 8px&quot;&gt;Chatbot&lt;/font&gt;&lt;/span&gt;" style="rounded=0;whiteSpace=wrap;html=1;fontSize=8;fillColor=#fff2cc;strokeColor=#d6b656;" parent="1" vertex="1">
          <mxGeometry x="-535.75" y="405" width="37.5" height="36" as="geometry" />
        </mxCell>
        <mxCell id="UVQyyf4iAR5tZwW15urH-2" value="" style="aspect=fixed;perimeter=ellipsePerimeter;html=1;align=center;shadow=0;dashed=0;spacingTop=3;image;image=img/lib/active_directory/firewall.svg;" vertex="1" parent="1">
          <mxGeometry x="-369" y="180" width="30.5" height="50" as="geometry" />
        </mxCell>
        <mxCell id="UVQyyf4iAR5tZwW15urH-3" value="" style="aspect=fixed;perimeter=ellipsePerimeter;html=1;align=center;shadow=0;dashed=0;spacingTop=3;image;image=img/lib/active_directory/firewall.svg;" vertex="1" parent="1">
          <mxGeometry x="-649" y="230" width="33.55" height="55" as="geometry" />
        </mxCell>
      </root>
    </mxGraphModel>
  </diagram>
</mxfile>
